999
Inkscape export via "Better DXF Output" (bob@bobcookdev.com)
  0
SECTION
  2
HEADER
  9
$ACADVER
  1
AC1014
  9
$HANDSEED
  5
FFFF
  0
ENDSEC
  0
SECTION
  2
TABLES
  0
TABLE
  2
VPORT
  5
8
330
0
100
AcDbSymbolTable
 70
     4
  0
VPORT
  5
2E
330
8
100
AcDbSymbolTableRecord
100
AcDbViewportTableRecord
  2
*ACTIVE
 70
     0
 10
0.0
 20
0.0
 11
1.0
 21
1.0
 12
4.25
 22
5.5
 13
0.0
 23
0.0
 14
10.0
 24
10.0
 15
10.0
 25
10.0
 16
0.0
 26
0.0
 36
1.0
 17
0.0
 27
0.0
 37
0.0
 40
11
 41
1.24
 42
50.0
 43
0.0
 44
0.0
 50
0.0
 51
0.0
 71
     0
 72
   100
 73
     1
 74
     3
 75
     0
 76
     0
 77
     0
 78
     0
  0
ENDTAB
  0
TABLE
  2
LTYPE
  5
5
330
0
100
AcDbSymbolTable
 70
     1
  0
LTYPE
  5
14
330
5
100
AcDbSymbolTableRecord
100
AcDbLinetypeTableRecord
  2
BYBLOCK
 70
     0
  3

 72
    65
 73
     0
 40
0.0
  0
LTYPE
  5
15
330
5
100
AcDbSymbolTableRecord
100
AcDbLinetypeTableRecord
  2
BYLAYER
 70
     0
  3

 72
    65
 73
     0
 40
0.0
  0
LTYPE
  5
16
330
5
100
AcDbSymbolTableRecord
100
AcDbLinetypeTableRecord
  2
CONTINUOUS
 70
     0
  3
Solid line
 72
    65
 73
     0
 40
0.0
  0
ENDTAB
  0
TABLE
  2
LAYER
  5
2
330
0
100
AcDbSymbolTable
 70
1
  0
LAYER
  5
10
330
2
100
AcDbSymbolTableRecord
100
AcDbLayerTableRecord
  2
0
 70
     0
 62
     7
  6
CONTINUOUS
  0
ENDTAB
  0
TABLE
  2
STYLE
  5
3
330
0
100
AcDbSymbolTable
 70
     1
  0
STYLE
  5
11
330
3
100
AcDbSymbolTableRecord
100
AcDbTextStyleTableRecord
  2
STANDARD
 70
     0
 40
0.0
 41
1.0
 50
0.0
 71
     0
 42
2.5
  3
txt
  4

  0
ENDTAB
  0
TABLE
  2
VIEW
  5
6
330
0
100
AcDbSymbolTable
 70
     0
  0
ENDTAB
  0
TABLE
  2
UCS
  5
7
330
0
100
AcDbSymbolTable
 70
     0
  0
ENDTAB
  0
TABLE
  2
APPID
  5
9
330
0
100
AcDbSymbolTable
 70
     2
  0
APPID
  5
12
330
9
100
AcDbSymbolTableRecord
100
AcDbRegAppTableRecord
  2
ACAD
 70
     0
  0
ENDTAB
  0
TABLE
  2
DIMSTYLE
  5
A
330
0
100
AcDbSymbolTable
 70
     1
  0
DIMSTYLE
105
27
330
A
100
AcDbSymbolTableRecord
100
AcDbDimStyleTableRecord
  2
ISO-25
 70
     0
  3

  4

  5

  6

  7

 40
1.0
 41
2.5
 42
0.625
 43
3.75
 44
1.25
 45
0.0
 46
0.0
 47
0.0
 48
0.0
140
2.5
141
2.5
142
0.0
143
0.03937007874016
144
1.0
145
0.0
146
1.0
147
0.625
 71
     0
 72
     0
 73
     0
 74
     0
 75
     0
 76
     0
 77
     1
 78
     8
170
     0
171
     3
172
     1
173
     0
174
     0
175
     0
176
     0
177
     0
178
     0
270
     2
271
     2
272
     2
273
     2
274
     3
340
11
275
     0
280
     0
281
     0
282
     0
283
     0
284
     8
285
     0
286
     0
287
     3
288
     0
  0
ENDTAB
  0
TABLE
  2
BLOCK_RECORD
  5
1
330
0
100
AcDbSymbolTable
 70
     1
  0
BLOCK_RECORD
  5
1F
330
1
100
AcDbSymbolTableRecord
100
AcDbBlockTableRecord
  2
*MODEL_SPACE
  0
BLOCK_RECORD
  5
1B
330
1
100
AcDbSymbolTableRecord
100
AcDbBlockTableRecord
  2
*PAPER_SPACE
  0
ENDTAB
  0
ENDSEC
  0
SECTION
  2
BLOCKS
  0
BLOCK
  5
20
330
1F
100
AcDbEntity
  8
0
100
AcDbBlockBegin
  2
*MODEL_SPACE
 70
     0
 10
0.0
 20
0.0
 30
0.0
  3
*MODEL_SPACE
  1

  0
ENDBLK
  5
21
330
1F
100
AcDbEntity
  8
0
100
AcDbBlockEnd
  0
BLOCK
  5
1C
330
1B
100
AcDbEntity
 67
     1
  8
0
100
AcDbBlockBegin
  2
*PAPER_SPACE
  1

  0
ENDBLK
  5
1D
330
1B
100
AcDbEntity
 67
     1
  8
0
100
AcDbBlockEnd
  0
ENDSEC
  0
SECTION
  2
ENTITIES
0
LINE
8
Layer 1
62
4
5
100
100
AcDbEntity
100
AcDbLine
10
87.559444
20
-266.587111
30
0.0
11
88.225235
21
-269.329690
31
0.0
0
LINE
8
Layer 1
62
4
5
101
100
AcDbEntity
100
AcDbLine
10
88.225235
20
-269.329690
30
0.0
11
92.700115
21
-267.965663
31
0.0
0
LINE
8
Layer 1
62
4
5
102
100
AcDbEntity
100
AcDbLine
10
92.700115
20
-267.965663
30
0.0
11
97.002275
21
-266.142929
31
0.0
0
LINE
8
Layer 1
62
4
5
103
100
AcDbEntity
100
AcDbLine
10
97.002275
20
-266.142929
30
0.0
11
101.092875
21
-263.891241
31
0.0
0
LINE
8
Layer 1
62
4
5
104
100
AcDbEntity
100
AcDbLine
10
101.092875
20
-263.891241
30
0.0
11
104.933073
21
-261.240355
31
0.0
0
LINE
8
Layer 1
62
4
5
105
100
AcDbEntity
100
AcDbLine
10
104.933073
20
-261.240355
30
0.0
11
108.487397
21
-258.219871
31
0.0
0
LINE
8
Layer 1
62
4
5
106
100
AcDbEntity
100
AcDbLine
10
108.487397
20
-258.219871
30
0.0
11
111.718612
21
-254.856911
31
0.0
0
LINE
8
Layer 1
62
4
5
107
100
AcDbEntity
100
AcDbLine
10
111.718612
20
-254.856911
30
0.0
11
114.588406
21
-251.181955
31
0.0
0
LINE
8
Layer 1
62
4
5
108
100
AcDbEntity
100
AcDbLine
10
114.588406
20
-251.181955
30
0.0
11
117.058468
21
-247.225481
31
0.0
0
LINE
8
Layer 1
62
4
5
109
100
AcDbEntity
100
AcDbLine
10
117.058468
20
-247.225481
30
0.0
11
119.088867
21
-243.028427
31
0.0
0
LINE
8
Layer 1
62
4
5
10a
100
AcDbEntity
100
AcDbLine
10
119.088867
20
-243.028427
30
0.0
11
120.666856
21
-238.646878
31
0.0
0
LINE
8
Layer 1
62
4
5
10b
100
AcDbEntity
100
AcDbLine
10
120.666856
20
-238.646878
30
0.0
11
121.787909
21
-234.129599
31
0.0
0
LINE
8
Layer 1
62
4
5
10c
100
AcDbEntity
100
AcDbLine
10
121.787909
20
-234.129599
30
0.0
11
122.447502
21
-229.525350
31
0.0
0
LINE
8
Layer 1
62
4
5
10d
100
AcDbEntity
100
AcDbLine
10
122.447502
20
-229.525350
30
0.0
11
122.447502
21
-229.525342
31
0.0
0
LINE
8
Layer 1
62
4
5
10e
100
AcDbEntity
100
AcDbLine
10
122.447502
20
-229.525342
30
0.0
11
122.642996
21
-224.879982
31
0.0
0
LINE
8
Layer 1
62
4
5
10f
100
AcDbEntity
100
AcDbLine
10
122.642996
20
-224.879982
30
0.0
11
122.369309
21
-220.239384
31
0.0
0
LINE
8
Layer 1
62
4
5
110
100
AcDbEntity
100
AcDbLine
10
122.369309
20
-220.239384
30
0.0
11
121.622760
21
-215.652338
31
0.0
0
LINE
8
Layer 1
62
4
5
111
100
AcDbEntity
100
AcDbLine
10
121.622760
20
-215.652338
30
0.0
11
120.399669
21
-211.167633
31
0.0
0
LINE
8
Layer 1
62
4
5
112
100
AcDbEntity
100
AcDbLine
10
120.399669
20
-211.167633
30
0.0
11
118.621393
21
-206.617170
31
0.0
0
LINE
8
Layer 1
62
4
5
113
100
AcDbEntity
100
AcDbLine
10
118.621393
20
-206.617170
30
0.0
11
116.437854
21
-202.265991
31
0.0
0
LINE
8
Layer 1
62
4
5
114
100
AcDbEntity
100
AcDbLine
10
116.437854
20
-202.265991
30
0.0
11
113.929821
21
-198.102667
31
0.0
0
LINE
8
Layer 1
62
4
5
115
100
AcDbEntity
100
AcDbLine
10
113.929821
20
-198.102667
30
0.0
11
111.178058
21
-194.115766
31
0.0
0
LINE
8
Layer 1
62
4
5
116
100
AcDbEntity
100
AcDbLine
10
111.178058
20
-194.115766
30
0.0
11
108.232099
21
-190.232768
31
0.0
0
LINE
8
Layer 1
62
4
5
117
100
AcDbEntity
100
AcDbLine
10
108.232099
20
-190.232768
30
0.0
11
105.184222
21
-186.448776
31
0.0
0
LINE
8
Layer 1
62
4
5
118
100
AcDbEntity
100
AcDbLine
10
105.184222
20
-186.448776
30
0.0
11
99.016820
21
-178.994300
31
0.0
0
LINE
8
Layer 1
62
4
5
119
100
AcDbEntity
100
AcDbLine
10
99.016820
20
-178.994300
30
0.0
11
96.033572
21
-175.247447
31
0.0
0
LINE
8
Layer 1
62
4
5
11a
100
AcDbEntity
100
AcDbLine
10
96.033572
20
-175.247447
30
0.0
11
93.186956
21
-171.414022
31
0.0
0
LINE
8
Layer 1
62
4
5
11b
100
AcDbEntity
100
AcDbLine
10
93.186956
20
-171.414022
30
0.0
11
90.546714
21
-167.460477
31
0.0
0
LINE
8
Layer 1
62
4
5
11c
100
AcDbEntity
100
AcDbLine
10
90.546714
20
-167.460477
30
0.0
11
88.182591
21
-163.353262
31
0.0
0
LINE
8
Layer 1
62
4
5
11d
100
AcDbEntity
100
AcDbLine
10
88.182591
20
-163.353262
30
0.0
11
88.182585
21
-163.353253
31
0.0
0
LINE
8
Layer 1
62
4
5
11e
100
AcDbEntity
100
AcDbLine
10
88.182585
20
-163.353253
30
0.0
11
86.167435
21
-159.064485
31
0.0
0
LINE
8
Layer 1
62
4
5
11f
100
AcDbEntity
100
AcDbLine
10
86.167435
20
-159.064485
30
0.0
11
84.580195
21
-154.612231
31
0.0
0
LINE
8
Layer 1
62
4
5
120
100
AcDbEntity
100
AcDbLine
10
84.580195
20
-154.612231
30
0.0
11
83.510533
21
-150.035676
31
0.0
0
LINE
8
Layer 1
62
4
5
121
100
AcDbEntity
100
AcDbLine
10
83.510533
20
-150.035676
30
0.0
11
83.197815
21
-147.713031
31
0.0
0
LINE
8
Layer 1
62
4
5
122
100
AcDbEntity
100
AcDbLine
10
83.197815
20
-147.713031
30
0.0
11
83.048117
21
-145.374004
31
0.0
0
LINE
8
Layer 1
62
4
5
123
100
AcDbEntity
100
AcDbLine
10
83.048117
20
-145.374004
30
0.0
11
83.091967
21
-142.432354
31
0.0
0
LINE
8
Layer 1
62
4
5
124
100
AcDbEntity
100
AcDbLine
10
83.091967
20
-142.432354
30
0.0
11
83.390814
21
-139.506238
31
0.0
0
LINE
8
Layer 1
62
4
5
125
100
AcDbEntity
100
AcDbLine
10
83.390814
20
-139.506238
30
0.0
11
83.923496
21
-136.604074
31
0.0
0
LINE
8
Layer 1
62
4
5
126
100
AcDbEntity
100
AcDbLine
10
83.923496
20
-136.604074
30
0.0
11
84.668853
21
-133.734278
31
0.0
0
LINE
8
Layer 1
62
4
5
127
100
AcDbEntity
100
AcDbLine
10
84.668853
20
-133.734278
30
0.0
11
85.605724
21
-130.905268
31
0.0
0
LINE
8
Layer 1
62
4
5
128
100
AcDbEntity
100
AcDbLine
10
85.605724
20
-130.905268
30
0.0
11
86.712947
21
-128.125460
31
0.0
0
LINE
8
Layer 1
62
4
5
129
100
AcDbEntity
100
AcDbLine
10
86.712947
20
-128.125460
30
0.0
11
89.353808
21
-122.747120
31
0.0
0
LINE
8
Layer 1
62
4
5
12a
100
AcDbEntity
100
AcDbLine
10
89.353808
20
-122.747120
30
0.0
11
92.440578
21
-117.617056
31
0.0
0
LINE
8
Layer 1
62
4
5
12b
100
AcDbEntity
100
AcDbLine
10
92.440578
20
-117.617056
30
0.0
11
95.836170
21
-112.659263
31
0.0
0
LINE
8
Layer 1
62
4
5
12c
100
AcDbEntity
100
AcDbLine
10
95.836170
20
-112.659263
30
0.0
11
103.036505
21
-102.951771
31
0.0
0
LINE
8
Layer 1
62
4
5
12d
100
AcDbEntity
100
AcDbLine
10
103.036505
20
-102.951771
30
0.0
11
106.594975
21
-98.033035
31
0.0
0
LINE
8
Layer 1
62
4
5
12e
100
AcDbEntity
100
AcDbLine
10
106.594975
20
-98.033035
30
0.0
11
109.952361
21
-92.960681
31
0.0
0
LINE
8
Layer 1
62
4
5
12f
100
AcDbEntity
100
AcDbLine
10
109.952361
20
-92.960681
30
0.0
11
112.965365
21
-87.683434
31
0.0
0
LINE
8
Layer 1
62
4
5
130
100
AcDbEntity
100
AcDbLine
10
112.965365
20
-87.683434
30
0.0
11
114.297944
21
-84.951952
31
0.0
0
LINE
8
Layer 1
62
4
5
131
100
AcDbEntity
100
AcDbLine
10
114.297944
20
-84.951952
30
0.0
11
115.490690
21
-82.150018
31
0.0
0
LINE
8
Layer 1
62
4
5
132
100
AcDbEntity
100
AcDbLine
10
115.490690
20
-82.150018
30
0.0
11
116.520737
21
-79.267724
31
0.0
0
LINE
8
Layer 1
62
4
5
133
100
AcDbEntity
100
AcDbLine
10
116.520737
20
-79.267724
30
0.0
11
117.360058
21
-76.314033
31
0.0
0
LINE
8
Layer 1
62
4
5
134
100
AcDbEntity
100
AcDbLine
10
117.360058
20
-76.314033
30
0.0
11
117.989352
21
-73.308615
31
0.0
0
LINE
8
Layer 1
62
4
5
135
100
AcDbEntity
100
AcDbLine
10
117.989352
20
-73.308615
30
0.0
11
118.389317
21
-70.271143
31
0.0
0
LINE
8
Layer 1
62
4
5
136
100
AcDbEntity
100
AcDbLine
10
118.389317
20
-70.271143
30
0.0
11
118.540649
21
-67.221289
31
0.0
0
LINE
8
Layer 1
62
4
5
137
100
AcDbEntity
100
AcDbLine
10
118.540649
20
-67.221289
30
0.0
11
118.424049
21
-64.178724
31
0.0
0
LINE
8
Layer 1
62
4
5
138
100
AcDbEntity
100
AcDbLine
10
118.424049
20
-64.178724
30
0.0
11
118.020212
21
-61.163120
31
0.0
0
LINE
8
Layer 1
62
4
5
139
100
AcDbEntity
100
AcDbLine
10
118.020212
20
-61.163120
30
0.0
11
117.309838
21
-58.194149
31
0.0
0
LINE
8
Layer 1
62
4
5
13a
100
AcDbEntity
100
AcDbLine
10
117.309838
20
-58.194149
30
0.0
11
117.309832
21
-58.194132
31
0.0
0
LINE
8
Layer 1
62
4
5
13b
100
AcDbEntity
100
AcDbLine
10
117.309832
20
-58.194132
30
0.0
11
116.616770
21
-56.149710
31
0.0
0
LINE
8
Layer 1
62
4
5
13c
100
AcDbEntity
100
AcDbLine
10
116.616770
20
-56.149710
30
0.0
11
115.784512
21
-54.164898
31
0.0
0
LINE
8
Layer 1
62
4
5
13d
100
AcDbEntity
100
AcDbLine
10
115.784512
20
-54.164898
30
0.0
11
113.755504
21
-50.371567
31
0.0
0
LINE
8
Layer 1
62
4
5
13e
100
AcDbEntity
100
AcDbLine
10
113.755504
20
-50.371567
30
0.0
11
111.328997
21
-46.809058
31
0.0
0
LINE
8
Layer 1
62
4
5
13f
100
AcDbEntity
100
AcDbLine
10
111.328997
20
-46.809058
30
0.0
11
108.611179
21
-43.472292
31
0.0
0
LINE
8
Layer 1
62
4
5
140
100
AcDbEntity
100
AcDbLine
10
108.611179
20
-43.472292
30
0.0
11
105.702328
21
-40.329911
31
0.0
0
LINE
8
Layer 1
62
4
5
141
100
AcDbEntity
100
AcDbLine
10
105.702328
20
-40.329911
30
0.0
11
102.673541
21
-37.311487
31
0.0
0
LINE
8
Layer 1
62
4
5
142
100
AcDbEntity
100
AcDbLine
10
102.673541
20
-37.311487
30
0.0
11
96.531221
21
-31.381610
31
0.0
0
LINE
8
Layer 1
62
4
5
143
100
AcDbEntity
100
AcDbLine
10
96.531221
20
-31.381610
30
0.0
11
93.550972
21
-28.330448
31
0.0
0
LINE
8
Layer 1
62
4
5
144
100
AcDbEntity
100
AcDbLine
10
93.550972
20
-28.330448
30
0.0
11
90.727039
21
-25.141571
31
0.0
0
LINE
8
Layer 1
62
4
5
145
100
AcDbEntity
100
AcDbLine
10
90.727039
20
-25.141571
30
0.0
11
88.147157
21
-21.772829
31
0.0
0
LINE
8
Layer 1
62
4
5
146
100
AcDbEntity
100
AcDbLine
10
88.147157
20
-21.772829
30
0.0
11
85.899063
21
-18.182076
31
0.0
0
LINE
8
Layer 1
62
4
5
147
100
AcDbEntity
100
AcDbLine
10
85.899063
20
-18.182076
30
0.0
11
84.083823
21
-14.333359
31
0.0
0
LINE
8
Layer 1
62
4
5
148
100
AcDbEntity
100
AcDbLine
10
84.083823
20
-14.333359
30
0.0
11
83.374169
21
-12.324678
31
0.0
0
LINE
8
Layer 1
62
4
5
149
100
AcDbEntity
100
AcDbLine
10
83.374169
20
-12.324678
30
0.0
11
82.815398
21
-10.274562
31
0.0
0
LINE
8
Layer 1
62
4
5
14a
100
AcDbEntity
100
AcDbLine
10
82.815398
20
-10.274562
30
0.0
11
82.421686
21
-8.194100
31
0.0
0
LINE
8
Layer 1
62
4
5
14b
100
AcDbEntity
100
AcDbLine
10
82.421686
20
-8.194100
30
0.0
11
82.207213
21
-6.094375
31
0.0
0
LINE
8
Layer 1
62
4
5
14c
100
AcDbEntity
100
AcDbLine
10
82.207213
20
-6.094375
30
0.0
11
82.186157
21
-3.986475
31
0.0
0
LINE
8
Layer 1
62
4
5
14d
100
AcDbEntity
100
AcDbLine
10
82.186157
20
-3.986475
30
0.0
11
82.372697
21
-1.881485
31
0.0
0
LINE
8
Layer 1
62
4
5
14e
100
AcDbEntity
100
AcDbLine
10
82.372697
20
-1.881485
30
0.0
11
82.729024
21
-0.000523
31
0.0
0
LINE
8
Layer 1
62
4
5
14f
100
AcDbEntity
100
AcDbLine
10
82.729024
20
-0.000523
30
0.0
11
83.261693
21
1.839403
31
0.0
0
LINE
8
Layer 1
62
4
5
150
100
AcDbEntity
100
AcDbLine
10
83.261693
20
1.839403
30
0.0
11
83.962717
21
3.623766
31
0.0
0
LINE
8
Layer 1
62
4
5
151
100
AcDbEntity
100
AcDbLine
10
83.962717
20
3.623766
30
0.0
11
84.824107
21
5.338041
31
0.0
0
LINE
8
Layer 1
62
4
5
152
100
AcDbEntity
100
AcDbLine
10
84.824107
20
5.338041
30
0.0
11
85.837876
21
6.967703
31
0.0
0
LINE
8
Layer 1
62
4
5
153
100
AcDbEntity
100
AcDbLine
10
85.837876
20
6.967703
30
0.0
11
86.996036
21
8.498225
31
0.0
0
LINE
8
Layer 1
62
4
5
154
100
AcDbEntity
100
AcDbLine
10
86.996036
20
8.498225
30
0.0
11
88.290600
21
9.915082
31
0.0
0
LINE
8
Layer 1
62
4
5
155
100
AcDbEntity
100
AcDbLine
10
88.290600
20
9.915082
30
0.0
11
89.713579
21
11.203748
31
0.0
0
LINE
8
Layer 1
62
4
5
156
100
AcDbEntity
100
AcDbLine
10
89.713579
20
11.203748
30
0.0
11
91.254313
21
12.350181
31
0.0
0
LINE
8
Layer 1
62
4
5
157
100
AcDbEntity
100
AcDbLine
10
91.254313
20
12.350181
30
0.0
11
92.897200
21
13.346498
31
0.0
0
LINE
8
Layer 1
62
4
5
158
100
AcDbEntity
100
AcDbLine
10
92.897200
20
13.346498
30
0.0
11
94.626519
21
14.187420
31
0.0
0
LINE
8
Layer 1
62
4
5
159
100
AcDbEntity
100
AcDbLine
10
94.626519
20
14.187420
30
0.0
11
96.426552
21
14.867663
31
0.0
0
LINE
8
Layer 1
62
4
5
15a
100
AcDbEntity
100
AcDbLine
10
96.426552
20
14.867663
30
0.0
11
98.281578
21
15.381946
31
0.0
0
LINE
8
Layer 1
62
4
5
15b
100
AcDbEntity
100
AcDbLine
10
98.281578
20
15.381946
30
0.0
11
100.175879
21
15.724988
31
0.0
0
LINE
8
Layer 1
62
4
5
15c
100
AcDbEntity
100
AcDbLine
10
100.175879
20
15.724988
30
0.0
11
102.093734
21
15.891506
31
0.0
0
LINE
8
Layer 1
62
4
5
15d
100
AcDbEntity
100
AcDbLine
10
102.093734
20
15.891506
30
0.0
11
104.019423
21
15.876219
31
0.0
0
LINE
8
Layer 1
62
4
5
15e
100
AcDbEntity
100
AcDbLine
10
104.019423
20
15.876219
30
0.0
11
102.093185
21
15.907257
31
0.0
0
LINE
8
Layer 1
62
4
5
15f
100
AcDbEntity
100
AcDbLine
10
102.093185
20
15.907257
30
0.0
11
100.171857
21
15.756255
31
0.0
0
LINE
8
Layer 1
62
4
5
160
100
AcDbEntity
100
AcDbLine
10
100.171857
20
15.756255
30
0.0
11
98.271279
21
15.428108
31
0.0
0
LINE
8
Layer 1
62
4
5
161
100
AcDbEntity
100
AcDbLine
10
98.271279
20
15.428108
30
0.0
11
96.407290
21
14.927706
31
0.0
0
LINE
8
Layer 1
62
4
5
162
100
AcDbEntity
100
AcDbLine
10
96.407290
20
14.927706
30
0.0
11
94.595728
21
14.259941
31
0.0
0
LINE
8
Layer 1
62
4
5
163
100
AcDbEntity
100
AcDbLine
10
94.595728
20
14.259941
30
0.0
11
92.852432
21
13.429707
31
0.0
0
LINE
8
Layer 1
62
4
5
164
100
AcDbEntity
100
AcDbLine
10
92.852432
20
13.429707
30
0.0
11
91.193241
21
12.441895
31
0.0
0
LINE
8
Layer 1
62
4
5
165
100
AcDbEntity
100
AcDbLine
10
91.193241
20
12.441895
30
0.0
11
89.633992
21
11.301397
31
0.0
0
LINE
8
Layer 1
62
4
5
166
100
AcDbEntity
100
AcDbLine
10
89.633992
20
11.301397
30
0.0
11
88.190996
21
10.015886
31
0.0
0
LINE
8
Layer 1
62
4
5
167
100
AcDbEntity
100
AcDbLine
10
88.190996
20
10.015886
30
0.0
11
86.875354
21
8.599472
31
0.0
0
LINE
8
Layer 1
62
4
5
168
100
AcDbEntity
100
AcDbLine
10
86.875354
20
8.599472
30
0.0
11
85.695410
21
7.066483
31
0.0
0
LINE
8
Layer 1
62
4
5
169
100
AcDbEntity
100
AcDbLine
10
85.695410
20
7.066483
30
0.0
11
84.659508
21
5.431245
31
0.0
0
LINE
8
Layer 1
62
4
5
16a
100
AcDbEntity
100
AcDbLine
10
84.659508
20
5.431245
30
0.0
11
83.775993
21
3.708087
31
0.0
0
LINE
8
Layer 1
62
4
5
16b
100
AcDbEntity
100
AcDbLine
10
83.775993
20
3.708087
30
0.0
11
83.053209
21
1.911334
31
0.0
0
LINE
8
Layer 1
62
4
5
16c
100
AcDbEntity
100
AcDbLine
10
83.053209
20
1.911334
30
0.0
11
82.499501
21
0.055315
31
0.0
0
LINE
8
Layer 1
62
4
5
16d
100
AcDbEntity
100
AcDbLine
10
82.499501
20
0.055315
30
0.0
11
82.123212
21
-1.845643
31
0.0
0
LINE
8
Layer 1
62
4
5
16e
100
AcDbEntity
100
AcDbLine
10
82.123212
20
-1.845643
30
0.0
11
81.918232
21
-3.975274
31
0.0
0
LINE
8
Layer 1
62
4
5
16f
100
AcDbEntity
100
AcDbLine
10
81.918232
20
-3.975274
30
0.0
11
81.922208
21
-6.109456
31
0.0
0
LINE
8
Layer 1
62
4
5
170
100
AcDbEntity
100
AcDbLine
10
81.922208
20
-6.109456
30
0.0
11
82.121238
21
-8.236759
31
0.0
0
LINE
8
Layer 1
62
4
5
171
100
AcDbEntity
100
AcDbLine
10
82.121238
20
-8.236759
30
0.0
11
82.501418
21
-10.345753
31
0.0
0
LINE
8
Layer 1
62
4
5
172
100
AcDbEntity
100
AcDbLine
10
82.501418
20
-10.345753
30
0.0
11
83.048847
21
-12.425008
31
0.0
0
LINE
8
Layer 1
62
4
5
173
100
AcDbEntity
100
AcDbLine
10
83.048847
20
-12.425008
30
0.0
11
83.749622
21
-14.463093
31
0.0
0
LINE
8
Layer 1
62
4
5
174
100
AcDbEntity
100
AcDbLine
10
83.749622
20
-14.463093
30
0.0
11
85.555599
21
-18.370036
31
0.0
0
LINE
8
Layer 1
62
4
5
175
100
AcDbEntity
100
AcDbLine
10
85.555599
20
-18.370036
30
0.0
11
87.797552
21
-22.015205
31
0.0
0
LINE
8
Layer 1
62
4
5
176
100
AcDbEntity
100
AcDbLine
10
87.797552
20
-22.015205
30
0.0
11
90.370896
21
-25.434870
31
0.0
0
LINE
8
Layer 1
62
4
5
177
100
AcDbEntity
100
AcDbLine
10
90.370896
20
-25.434870
30
0.0
11
93.186799
21
-28.669062
31
0.0
0
LINE
8
Layer 1
62
4
5
178
100
AcDbEntity
100
AcDbLine
10
93.186799
20
-28.669062
30
0.0
11
96.156430
21
-31.757812
31
0.0
0
LINE
8
Layer 1
62
4
5
179
100
AcDbEntity
100
AcDbLine
10
96.156430
20
-31.757812
30
0.0
11
96.156436
21
-31.757818
31
0.0
0
LINE
8
Layer 1
62
4
5
17a
100
AcDbEntity
100
AcDbLine
10
96.156436
20
-31.757818
30
0.0
11
102.253000
21
-37.740717
31
0.0
0
LINE
8
Layer 1
62
4
5
17b
100
AcDbEntity
100
AcDbLine
10
102.253000
20
-37.740717
30
0.0
11
105.244714
21
-40.770531
31
0.0
0
LINE
8
Layer 1
62
4
5
17c
100
AcDbEntity
100
AcDbLine
10
105.244714
20
-40.770531
30
0.0
11
108.104878
21
-43.912000
31
0.0
0
LINE
8
Layer 1
62
4
5
17d
100
AcDbEntity
100
AcDbLine
10
108.104878
20
-43.912000
30
0.0
11
110.761198
21
-47.232040
31
0.0
0
LINE
8
Layer 1
62
4
5
17e
100
AcDbEntity
100
AcDbLine
10
110.761198
20
-47.232040
30
0.0
11
113.122083
21
-50.755359
31
0.0
0
LINE
8
Layer 1
62
4
5
17f
100
AcDbEntity
100
AcDbLine
10
113.122083
20
-50.755359
30
0.0
11
115.081226
21
-54.484472
31
0.0
0
LINE
8
Layer 1
62
4
5
180
100
AcDbEntity
100
AcDbLine
10
115.081226
20
-54.484472
30
0.0
11
115.876922
21
-56.426986
31
0.0
0
LINE
8
Layer 1
62
4
5
181
100
AcDbEntity
100
AcDbLine
10
115.876922
20
-56.426986
30
0.0
11
116.532316
21
-58.421891
31
0.0
0
LINE
8
Layer 1
62
4
5
182
100
AcDbEntity
100
AcDbLine
10
116.532316
20
-58.421891
30
0.0
11
116.532319
21
-58.421899
31
0.0
0
LINE
8
Layer 1
62
4
5
183
100
AcDbEntity
100
AcDbLine
10
116.532319
20
-58.421899
30
0.0
11
117.203377
21
-61.311101
31
0.0
0
LINE
8
Layer 1
62
4
5
184
100
AcDbEntity
100
AcDbLine
10
117.203377
20
-61.311101
30
0.0
11
117.572496
21
-64.247323
31
0.0
0
LINE
8
Layer 1
62
4
5
185
100
AcDbEntity
100
AcDbLine
10
117.572496
20
-64.247323
30
0.0
11
117.659455
21
-67.211386
31
0.0
0
LINE
8
Layer 1
62
4
5
186
100
AcDbEntity
100
AcDbLine
10
117.659455
20
-67.211386
30
0.0
11
117.484035
21
-70.184110
31
0.0
0
LINE
8
Layer 1
62
4
5
187
100
AcDbEntity
100
AcDbLine
10
117.484035
20
-70.184110
30
0.0
11
117.066016
21
-73.146317
31
0.0
0
LINE
8
Layer 1
62
4
5
188
100
AcDbEntity
100
AcDbLine
10
117.066016
20
-73.146317
30
0.0
11
116.425178
21
-76.078828
31
0.0
0
LINE
8
Layer 1
62
4
5
189
100
AcDbEntity
100
AcDbLine
10
116.425178
20
-76.078828
30
0.0
11
115.581302
21
-78.962464
31
0.0
0
LINE
8
Layer 1
62
4
5
18a
100
AcDbEntity
100
AcDbLine
10
115.581302
20
-78.962464
30
0.0
11
114.554167
21
-81.778046
31
0.0
0
LINE
8
Layer 1
62
4
5
18b
100
AcDbEntity
100
AcDbLine
10
114.554167
20
-81.778046
30
0.0
11
113.362939
21
-84.519821
31
0.0
0
LINE
8
Layer 1
62
4
5
18c
100
AcDbEntity
100
AcDbLine
10
113.362939
20
-84.519821
30
0.0
11
112.030778
21
-87.194944
31
0.0
0
LINE
8
Layer 1
62
4
5
18d
100
AcDbEntity
100
AcDbLine
10
112.030778
20
-87.194944
30
0.0
11
109.014603
21
-92.372633
31
0.0
0
LINE
8
Layer 1
62
4
5
18e
100
AcDbEntity
100
AcDbLine
10
109.014603
20
-92.372633
30
0.0
11
105.647537
21
-97.365907
31
0.0
0
LINE
8
Layer 1
62
4
5
18f
100
AcDbEntity
100
AcDbLine
10
105.647537
20
-97.365907
30
0.0
11
102.071478
21
-102.229562
31
0.0
0
LINE
8
Layer 1
62
4
5
190
100
AcDbEntity
100
AcDbLine
10
102.071478
20
-102.229562
30
0.0
11
94.778467
21
-111.895849
31
0.0
0
LINE
8
Layer 1
62
4
5
191
100
AcDbEntity
100
AcDbLine
10
94.778467
20
-111.895849
30
0.0
11
91.309299
21
-116.877226
31
0.0
0
LINE
8
Layer 1
62
4
5
192
100
AcDbEntity
100
AcDbLine
10
91.309299
20
-116.877226
30
0.0
11
88.128289
21
-122.064422
31
0.0
0
LINE
8
Layer 1
62
4
5
193
100
AcDbEntity
100
AcDbLine
10
88.128289
20
-122.064422
30
0.0
11
86.686243
21
-124.764675
31
0.0
0
LINE
8
Layer 1
62
4
5
194
100
AcDbEntity
100
AcDbLine
10
86.686243
20
-124.764675
30
0.0
11
85.374929
21
-127.543109
31
0.0
0
LINE
8
Layer 1
62
4
5
195
100
AcDbEntity
100
AcDbLine
10
85.374929
20
-127.543109
30
0.0
11
84.215697
21
-130.391836
31
0.0
0
LINE
8
Layer 1
62
4
5
196
100
AcDbEntity
100
AcDbLine
10
84.215697
20
-130.391836
30
0.0
11
83.229899
21
-133.302969
31
0.0
0
LINE
8
Layer 1
62
4
5
197
100
AcDbEntity
100
AcDbLine
10
83.229899
20
-133.302969
30
0.0
11
82.438887
21
-136.268619
31
0.0
0
LINE
8
Layer 1
62
4
5
198
100
AcDbEntity
100
AcDbLine
10
82.438887
20
-136.268619
30
0.0
11
81.864014
21
-139.280899
31
0.0
0
LINE
8
Layer 1
62
4
5
199
100
AcDbEntity
100
AcDbLine
10
81.864014
20
-139.280899
30
0.0
11
81.526630
21
-142.331920
31
0.0
0
LINE
8
Layer 1
62
4
5
19a
100
AcDbEntity
100
AcDbLine
10
81.526630
20
-142.331920
30
0.0
11
81.448089
21
-145.413795
31
0.0
0
LINE
8
Layer 1
62
4
5
19b
100
AcDbEntity
100
AcDbLine
10
81.448089
20
-145.413795
30
0.0
11
81.589087
21
-147.868094
31
0.0
0
LINE
8
Layer 1
62
4
5
19c
100
AcDbEntity
100
AcDbLine
10
81.589087
20
-147.868094
30
0.0
11
81.896801
21
-150.301214
31
0.0
0
LINE
8
Layer 1
62
4
5
19d
100
AcDbEntity
100
AcDbLine
10
81.896801
20
-150.301214
30
0.0
11
82.360148
21
-152.707980
31
0.0
0
LINE
8
Layer 1
62
4
5
19e
100
AcDbEntity
100
AcDbLine
10
82.360148
20
-152.707980
30
0.0
11
82.968046
21
-155.083222
31
0.0
0
LINE
8
Layer 1
62
4
5
19f
100
AcDbEntity
100
AcDbLine
10
82.968046
20
-155.083222
30
0.0
11
84.573159
21
-159.718440
31
0.0
0
LINE
8
Layer 1
62
4
5
1a0
100
AcDbEntity
100
AcDbLine
10
84.573159
20
-159.718440
30
0.0
11
86.623480
21
-164.165486
31
0.0
0
LINE
8
Layer 1
62
4
5
1a1
100
AcDbEntity
100
AcDbLine
10
86.623480
20
-164.165486
30
0.0
11
86.623485
21
-164.165500
31
0.0
0
LINE
8
Layer 1
62
4
5
1a2
100
AcDbEntity
100
AcDbLine
10
86.623485
20
-164.165500
30
0.0
11
89.020341
21
-168.405422
31
0.0
0
LINE
8
Layer 1
62
4
5
1a3
100
AcDbEntity
100
AcDbLine
10
89.020341
20
-168.405422
30
0.0
11
91.683765
21
-172.469818
31
0.0
0
LINE
8
Layer 1
62
4
5
1a4
100
AcDbEntity
100
AcDbLine
10
91.683765
20
-172.469818
30
0.0
11
94.543245
21
-176.390600
31
0.0
0
LINE
8
Layer 1
62
4
5
1a5
100
AcDbEntity
100
AcDbLine
10
94.543245
20
-176.390600
30
0.0
11
97.528270
21
-180.199673
31
0.0
0
LINE
8
Layer 1
62
4
5
1a6
100
AcDbEntity
100
AcDbLine
10
97.528270
20
-180.199673
30
0.0
11
103.637958
21
-187.708901
31
0.0
0
LINE
8
Layer 1
62
4
5
1a7
100
AcDbEntity
100
AcDbLine
10
103.637958
20
-187.708901
30
0.0
11
106.628614
21
-191.483227
31
0.0
0
LINE
8
Layer 1
62
4
5
1a8
100
AcDbEntity
100
AcDbLine
10
106.628614
20
-191.483227
30
0.0
11
109.497032
21
-195.329889
31
0.0
0
LINE
8
Layer 1
62
4
5
1a9
100
AcDbEntity
100
AcDbLine
10
109.497032
20
-195.329889
30
0.0
11
112.150265
21
-199.248412
31
0.0
0
LINE
8
Layer 1
62
4
5
1aa
100
AcDbEntity
100
AcDbLine
10
112.150265
20
-199.248412
30
0.0
11
114.552620
21
-203.303513
31
0.0
0
LINE
8
Layer 1
62
4
5
1ab
100
AcDbEntity
100
AcDbLine
10
114.552620
20
-203.303513
30
0.0
11
116.623082
21
-207.504665
31
0.0
0
LINE
8
Layer 1
62
4
5
1ac
100
AcDbEntity
100
AcDbLine
10
116.623082
20
-207.504665
30
0.0
11
118.280634
21
-211.861338
31
0.0
0
LINE
8
Layer 1
62
4
5
1ad
100
AcDbEntity
100
AcDbLine
10
118.280634
20
-211.861338
30
0.0
11
119.406476
21
-216.123806
31
0.0
0
LINE
8
Layer 1
62
4
5
1ae
100
AcDbEntity
100
AcDbLine
10
119.406476
20
-216.123806
30
0.0
11
120.078549
21
-220.483192
31
0.0
0
LINE
8
Layer 1
62
4
5
1af
100
AcDbEntity
100
AcDbLine
10
120.078549
20
-220.483192
30
0.0
11
120.301724
21
-224.890784
31
0.0
0
LINE
8
Layer 1
62
4
5
1b0
100
AcDbEntity
100
AcDbLine
10
120.301724
20
-224.890784
30
0.0
11
120.080873
21
-229.297873
31
0.0
0
LINE
8
Layer 1
62
4
5
1b1
100
AcDbEntity
100
AcDbLine
10
120.080873
20
-229.297873
30
0.0
11
120.080871
21
-229.297890
31
0.0
0
LINE
8
Layer 1
62
4
5
1b2
100
AcDbEntity
100
AcDbLine
10
120.080871
20
-229.297890
30
0.0
11
119.419095
21
-233.658691
31
0.0
0
LINE
8
Layer 1
62
4
5
1b3
100
AcDbEntity
100
AcDbLine
10
119.419095
20
-233.658691
30
0.0
11
118.323237
21
-237.927893
31
0.0
0
LINE
8
Layer 1
62
4
5
1b4
100
AcDbEntity
100
AcDbLine
10
118.323237
20
-237.927893
30
0.0
11
116.799012
21
-242.056866
31
0.0
0
LINE
8
Layer 1
62
4
5
1b5
100
AcDbEntity
100
AcDbLine
10
116.799012
20
-242.056866
30
0.0
11
114.852140
21
-245.996979
31
0.0
0
LINE
8
Layer 1
62
4
5
1b6
100
AcDbEntity
100
AcDbLine
10
114.852140
20
-245.996979
30
0.0
11
112.496034
21
-249.704537
31
0.0
0
LINE
8
Layer 1
62
4
5
1b7
100
AcDbEntity
100
AcDbLine
10
112.496034
20
-249.704537
30
0.0
11
109.761627
21
-253.146056
31
0.0
0
LINE
8
Layer 1
62
4
5
1b8
100
AcDbEntity
100
AcDbLine
10
109.761627
20
-253.146056
30
0.0
11
106.688024
21
-256.292036
31
0.0
0
LINE
8
Layer 1
62
4
5
1b9
100
AcDbEntity
100
AcDbLine
10
106.688024
20
-256.292036
30
0.0
11
103.314331
21
-259.112975
31
0.0
0
LINE
8
Layer 1
62
4
5
1ba
100
AcDbEntity
100
AcDbLine
10
103.314331
20
-259.112975
30
0.0
11
99.675917
21
-261.579906
31
0.0
0
LINE
8
Layer 1
62
4
5
1bb
100
AcDbEntity
100
AcDbLine
10
99.675917
20
-261.579906
30
0.0
11
95.810994
21
-263.667265
31
0.0
0
LINE
8
Layer 1
62
4
5
1bc
100
AcDbEntity
100
AcDbLine
10
95.810994
20
-263.667265
30
0.0
11
91.759117
21
-265.346214
31
0.0
0
LINE
8
Layer 1
62
4
5
1bd
100
AcDbEntity
100
AcDbLine
10
91.759117
20
-265.346214
30
0.0
11
87.559840
21
-266.587913
31
0.0
0
LINE
8
Layer 1
62
4
5
1be
100
AcDbEntity
100
AcDbLine
10
87.559840
20
-266.587913
30
0.0
11
87.559444
21
-266.587111
31
0.0
0
LINE
8
Layer 1
62
4
5
1bf
100
AcDbEntity
100
AcDbLine
10
113.354556
20
-199.638356
30
0.0
11
113.562209
21
-197.385206
31
0.0
0
LINE
8
Layer 1
62
4
5
1c0
100
AcDbEntity
100
AcDbLine
10
113.562209
20
-197.385206
30
0.0
11
111.400766
21
-195.972654
31
0.0
0
LINE
8
Layer 1
62
4
5
1c1
100
AcDbEntity
100
AcDbLine
10
111.400766
20
-195.972654
30
0.0
11
109.523538
21
-194.175701
31
0.0
0
LINE
8
Layer 1
62
4
5
1c2
100
AcDbEntity
100
AcDbLine
10
109.523538
20
-194.175701
30
0.0
11
107.995878
21
-192.065942
31
0.0
0
LINE
8
Layer 1
62
4
5
1c3
100
AcDbEntity
100
AcDbLine
10
107.995878
20
-192.065942
30
0.0
11
106.883138
21
-189.714971
31
0.0
0
LINE
8
Layer 1
62
4
5
1c4
100
AcDbEntity
100
AcDbLine
10
106.883138
20
-189.714971
30
0.0
11
106.231800
21
-187.190277
31
0.0
0
LINE
8
Layer 1
62
4
5
1c5
100
AcDbEntity
100
AcDbLine
10
106.231800
20
-187.190277
30
0.0
11
106.054065
21
-184.573270
31
0.0
0
LINE
8
Layer 1
62
4
5
1c6
100
AcDbEntity
100
AcDbLine
10
106.054065
20
-184.573270
30
0.0
11
106.349949
21
-181.960867
31
0.0
0
LINE
8
Layer 1
62
4
5
1c7
100
AcDbEntity
100
AcDbLine
10
106.349949
20
-181.960867
30
0.0
11
107.119474
21
-179.449984
31
0.0
0
LINE
8
Layer 1
62
4
5
1c8
100
AcDbEntity
100
AcDbLine
10
107.119474
20
-179.449984
30
0.0
11
108.351372
21
-177.123428
31
0.0
0
LINE
8
Layer 1
62
4
5
1c9
100
AcDbEntity
100
AcDbLine
10
108.351372
20
-177.123428
30
0.0
11
109.998719
21
-175.050951
31
0.0
0
LINE
8
Layer 1
62
4
5
1ca
100
AcDbEntity
100
AcDbLine
10
109.998719
20
-175.050951
30
0.0
11
111.996226
21
-173.304176
31
0.0
0
LINE
8
Layer 1
62
4
5
1cb
100
AcDbEntity
100
AcDbLine
10
111.996226
20
-173.304176
30
0.0
11
114.278605
21
-171.954726
31
0.0
0
LINE
8
Layer 1
62
4
5
1cc
100
AcDbEntity
100
AcDbLine
10
114.278605
20
-171.954726
30
0.0
11
114.278610
21
-171.954723
31
0.0
0
LINE
8
Layer 1
62
4
5
1cd
100
AcDbEntity
100
AcDbLine
10
114.278610
20
-171.954723
30
0.0
11
116.780356
21
-171.057453
31
0.0
0
LINE
8
Layer 1
62
4
5
1ce
100
AcDbEntity
100
AcDbLine
10
116.780356
20
-171.057453
30
0.0
11
119.418124
21
-170.632406
31
0.0
0
LINE
8
Layer 1
62
4
5
1cf
100
AcDbEntity
100
AcDbLine
10
119.418124
20
-170.632406
30
0.0
11
122.095421
21
-170.688510
31
0.0
0
LINE
8
Layer 1
62
4
5
1d0
100
AcDbEntity
100
AcDbLine
10
122.095421
20
-170.688510
30
0.0
11
124.715753
21
-171.234690
31
0.0
0
LINE
8
Layer 1
62
4
5
1d1
100
AcDbEntity
100
AcDbLine
10
124.715753
20
-171.234690
30
0.0
11
127.085872
21
-172.190395
31
0.0
0
LINE
8
Layer 1
62
4
5
1d2
100
AcDbEntity
100
AcDbLine
10
127.085872
20
-172.190395
30
0.0
11
129.304333
21
-173.517166
31
0.0
0
LINE
8
Layer 1
62
4
5
1d3
100
AcDbEntity
100
AcDbLine
10
129.304333
20
-173.517166
30
0.0
11
131.364996
21
-175.138856
31
0.0
0
LINE
8
Layer 1
62
4
5
1d4
100
AcDbEntity
100
AcDbLine
10
131.364996
20
-175.138856
30
0.0
11
133.261724
21
-176.979323
31
0.0
0
LINE
8
Layer 1
62
4
5
1d5
100
AcDbEntity
100
AcDbLine
10
133.261724
20
-176.979323
30
0.0
11
135.001906
21
-178.982658
31
0.0
0
LINE
8
Layer 1
62
4
5
1d6
100
AcDbEntity
100
AcDbLine
10
135.001906
20
-178.982658
30
0.0
11
136.629443
21
-181.103772
31
0.0
0
LINE
8
Layer 1
62
4
5
1d7
100
AcDbEntity
100
AcDbLine
10
136.629443
20
-181.103772
30
0.0
11
139.731668
21
-185.529528
31
0.0
0
LINE
8
Layer 1
62
4
5
1d8
100
AcDbEntity
100
AcDbLine
10
139.731668
20
-185.529528
30
0.0
11
142.952473
21
-189.941402
31
0.0
0
LINE
8
Layer 1
62
4
5
1d9
100
AcDbEntity
100
AcDbLine
10
142.952473
20
-189.941402
30
0.0
11
144.725657
21
-192.033158
31
0.0
0
LINE
8
Layer 1
62
4
5
1da
100
AcDbEntity
100
AcDbLine
10
144.725657
20
-192.033158
30
0.0
11
146.662481
21
-193.985188
31
0.0
0
LINE
8
Layer 1
62
4
5
1db
100
AcDbEntity
100
AcDbLine
10
146.662481
20
-193.985188
30
0.0
11
148.807816
21
-195.740641
31
0.0
0
LINE
8
Layer 1
62
4
5
1dc
100
AcDbEntity
100
AcDbLine
10
148.807816
20
-195.740641
30
0.0
11
151.160292
21
-197.212646
31
0.0
0
LINE
8
Layer 1
62
4
5
1dd
100
AcDbEntity
100
AcDbLine
10
151.160292
20
-197.212646
30
0.0
11
153.691892
21
-198.320531
31
0.0
0
LINE
8
Layer 1
62
4
5
1de
100
AcDbEntity
100
AcDbLine
10
153.691892
20
-198.320531
30
0.0
11
156.374595
21
-198.983625
31
0.0
0
LINE
8
Layer 1
62
4
5
1df
100
AcDbEntity
100
AcDbLine
10
156.374595
20
-198.983625
30
0.0
11
158.336412
21
-199.135613
31
0.0
0
LINE
8
Layer 1
62
4
5
1e0
100
AcDbEntity
100
AcDbLine
10
158.336412
20
-199.135613
30
0.0
11
160.296828
21
-199.016515
31
0.0
0
LINE
8
Layer 1
62
4
5
1e1
100
AcDbEntity
100
AcDbLine
10
160.296828
20
-199.016515
30
0.0
11
162.219683
21
-198.631910
31
0.0
0
LINE
8
Layer 1
62
4
5
1e2
100
AcDbEntity
100
AcDbLine
10
162.219683
20
-198.631910
30
0.0
11
164.068819
21
-197.987381
31
0.0
0
LINE
8
Layer 1
62
4
5
1e3
100
AcDbEntity
100
AcDbLine
10
164.068819
20
-197.987381
30
0.0
11
164.068825
21
-197.987378
31
0.0
0
LINE
8
Layer 1
62
4
5
1e4
100
AcDbEntity
100
AcDbLine
10
164.068825
20
-197.987378
30
0.0
11
165.806954
21
-197.092217
31
0.0
0
LINE
8
Layer 1
62
4
5
1e5
100
AcDbEntity
100
AcDbLine
10
165.806954
20
-197.092217
30
0.0
11
167.402631
21
-195.968449
31
0.0
0
LINE
8
Layer 1
62
4
5
1e6
100
AcDbEntity
100
AcDbLine
10
167.402631
20
-195.968449
30
0.0
11
168.827959
21
-194.639813
31
0.0
0
LINE
8
Layer 1
62
4
5
1e7
100
AcDbEntity
100
AcDbLine
10
168.827959
20
-194.639813
30
0.0
11
170.055040
21
-193.130051
31
0.0
0
LINE
8
Layer 1
62
4
5
1e8
100
AcDbEntity
100
AcDbLine
10
170.055040
20
-193.130051
30
0.0
11
171.057556
21
-191.466293
31
0.0
0
LINE
8
Layer 1
62
4
5
1e9
100
AcDbEntity
100
AcDbLine
10
171.057556
20
-191.466293
30
0.0
11
171.820415
21
-189.683353
31
0.0
0
LINE
8
Layer 1
62
4
5
1ea
100
AcDbEntity
100
AcDbLine
10
171.820415
20
-189.683353
30
0.0
11
172.332369
21
-187.816058
31
0.0
0
LINE
8
Layer 1
62
4
5
1eb
100
AcDbEntity
100
AcDbLine
10
172.332369
20
-187.816058
30
0.0
11
172.582171
21
-185.899236
31
0.0
0
LINE
8
Layer 1
62
4
5
1ec
100
AcDbEntity
100
AcDbLine
10
172.582171
20
-185.899236
30
0.0
11
172.561712
21
-183.969502
31
0.0
0
LINE
8
Layer 1
62
4
5
1ed
100
AcDbEntity
100
AcDbLine
10
172.561712
20
-183.969502
30
0.0
11
172.276405
21
-182.063832
31
0.0
0
LINE
8
Layer 1
62
4
5
1ee
100
AcDbEntity
100
AcDbLine
10
172.276405
20
-182.063832
30
0.0
11
171.734970
21
-180.217784
31
0.0
0
LINE
8
Layer 1
62
4
5
1ef
100
AcDbEntity
100
AcDbLine
10
171.734970
20
-180.217784
30
0.0
11
170.946129
21
-178.466914
31
0.0
0
LINE
8
Layer 1
62
4
5
1f0
100
AcDbEntity
100
AcDbLine
10
170.946129
20
-178.466914
30
0.0
11
171.692292
21
-180.232968
31
0.0
0
LINE
8
Layer 1
62
4
5
1f1
100
AcDbEntity
100
AcDbLine
10
171.692292
20
-180.232968
30
0.0
11
172.187688
21
-182.082286
31
0.0
0
LINE
8
Layer 1
62
4
5
1f2
100
AcDbEntity
100
AcDbLine
10
172.187688
20
-182.082286
30
0.0
11
172.426131
21
-183.978753
31
0.0
0
LINE
8
Layer 1
62
4
5
1f3
100
AcDbEntity
100
AcDbLine
10
172.426131
20
-183.978753
30
0.0
11
172.401436
21
-185.886254
31
0.0
0
LINE
8
Layer 1
62
4
5
1f4
100
AcDbEntity
100
AcDbLine
10
172.401436
20
-185.886254
30
0.0
11
172.110892
21
-187.768550
31
0.0
0
LINE
8
Layer 1
62
4
5
1f5
100
AcDbEntity
100
AcDbLine
10
172.110892
20
-187.768550
30
0.0
11
171.564840
21
-189.590614
31
0.0
0
LINE
8
Layer 1
62
4
5
1f6
100
AcDbEntity
100
AcDbLine
10
171.564840
20
-189.590614
30
0.0
11
170.776962
21
-191.318460
31
0.0
0
LINE
8
Layer 1
62
4
5
1f7
100
AcDbEntity
100
AcDbLine
10
170.776962
20
-191.318460
30
0.0
11
169.760937
21
-192.918103
31
0.0
0
LINE
8
Layer 1
62
4
5
1f8
100
AcDbEntity
100
AcDbLine
10
169.760937
20
-192.918103
30
0.0
11
168.533394
21
-194.357731
31
0.0
0
LINE
8
Layer 1
62
4
5
1f9
100
AcDbEntity
100
AcDbLine
10
168.533394
20
-194.357731
30
0.0
11
167.121132
21
-195.613290
31
0.0
0
LINE
8
Layer 1
62
4
5
1fa
100
AcDbEntity
100
AcDbLine
10
167.121132
20
-195.613290
30
0.0
11
165.553597
21
-196.663055
31
0.0
0
LINE
8
Layer 1
62
4
5
1fb
100
AcDbEntity
100
AcDbLine
10
165.553597
20
-196.663055
30
0.0
11
163.860234
21
-197.485305
31
0.0
0
LINE
8
Layer 1
62
4
5
1fc
100
AcDbEntity
100
AcDbLine
10
163.860234
20
-197.485305
30
0.0
11
163.860229
21
-197.485308
31
0.0
0
LINE
8
Layer 1
62
4
5
1fd
100
AcDbEntity
100
AcDbLine
10
163.860229
20
-197.485308
30
0.0
11
162.071545
21
-198.061879
31
0.0
0
LINE
8
Layer 1
62
4
5
1fe
100
AcDbEntity
100
AcDbLine
10
162.071545
20
-198.061879
30
0.0
11
160.222483
21
-198.386496
31
0.0
0
LINE
8
Layer 1
62
4
5
1ff
100
AcDbEntity
100
AcDbLine
10
160.222483
20
-198.386496
30
0.0
11
158.349524
21
-198.456155
31
0.0
0
LINE
8
Layer 1
62
4
5
200
100
AcDbEntity
100
AcDbLine
10
158.349524
20
-198.456155
30
0.0
11
156.489149
21
-198.267853
31
0.0
0
LINE
8
Layer 1
62
4
5
201
100
AcDbEntity
100
AcDbLine
10
156.489149
20
-198.267853
30
0.0
11
153.955821
21
-197.581670
31
0.0
0
LINE
8
Layer 1
62
4
5
202
100
AcDbEntity
100
AcDbLine
10
153.955821
20
-197.581670
30
0.0
11
151.570474
21
-196.464983
31
0.0
0
LINE
8
Layer 1
62
4
5
203
100
AcDbEntity
100
AcDbLine
10
151.570474
20
-196.464983
30
0.0
11
149.355360
21
-195.000262
31
0.0
0
LINE
8
Layer 1
62
4
5
204
100
AcDbEntity
100
AcDbLine
10
149.355360
20
-195.000262
30
0.0
11
147.332731
21
-193.269980
31
0.0
0
LINE
8
Layer 1
62
4
5
205
100
AcDbEntity
100
AcDbLine
10
147.332731
20
-193.269980
30
0.0
11
147.332728
21
-193.269977
31
0.0
0
LINE
8
Layer 1
62
4
5
206
100
AcDbEntity
100
AcDbLine
10
147.332728
20
-193.269977
30
0.0
11
145.504185
21
-191.340511
31
0.0
0
LINE
8
Layer 1
62
4
5
207
100
AcDbEntity
100
AcDbLine
10
145.504185
20
-191.340511
30
0.0
11
143.828227
21
-189.262217
31
0.0
0
LINE
8
Layer 1
62
4
5
208
100
AcDbEntity
100
AcDbLine
10
143.828227
20
-189.262217
30
0.0
11
140.755822
21
-184.838024
31
0.0
0
LINE
8
Layer 1
62
4
5
209
100
AcDbEntity
100
AcDbLine
10
140.755822
20
-184.838024
30
0.0
11
137.738594
21
-180.310192
31
0.0
0
LINE
8
Layer 1
62
4
5
20a
100
AcDbEntity
100
AcDbLine
10
137.738594
20
-180.310192
30
0.0
11
136.119929
21
-178.098213
31
0.0
0
LINE
8
Layer 1
62
4
5
20b
100
AcDbEntity
100
AcDbLine
10
136.119929
20
-178.098213
30
0.0
11
134.362359
21
-175.972859
31
0.0
0
LINE
8
Layer 1
62
4
5
20c
100
AcDbEntity
100
AcDbLine
10
134.362359
20
-175.972859
30
0.0
11
132.411030
21
-173.978785
31
0.0
0
LINE
8
Layer 1
62
4
5
20d
100
AcDbEntity
100
AcDbLine
10
132.411030
20
-173.978785
30
0.0
11
130.241883
21
-172.196391
31
0.0
0
LINE
8
Layer 1
62
4
5
20e
100
AcDbEntity
100
AcDbLine
10
130.241883
20
-172.196391
30
0.0
11
127.855582
21
-170.702101
31
0.0
0
LINE
8
Layer 1
62
4
5
20f
100
AcDbEntity
100
AcDbLine
10
127.855582
20
-170.702101
30
0.0
11
125.252790
21
-169.572342
31
0.0
0
LINE
8
Layer 1
62
4
5
210
100
AcDbEntity
100
AcDbLine
10
125.252790
20
-169.572342
30
0.0
11
122.320629
21
-168.888491
31
0.0
0
LINE
8
Layer 1
62
4
5
211
100
AcDbEntity
100
AcDbLine
10
122.320629
20
-168.888491
30
0.0
11
119.310496
21
-168.753121
31
0.0
0
LINE
8
Layer 1
62
4
5
212
100
AcDbEntity
100
AcDbLine
10
119.310496
20
-168.753121
30
0.0
11
116.319253
21
-169.164148
31
0.0
0
LINE
8
Layer 1
62
4
5
213
100
AcDbEntity
100
AcDbLine
10
116.319253
20
-169.164148
30
0.0
11
113.443766
21
-170.119486
31
0.0
0
LINE
8
Layer 1
62
4
5
214
100
AcDbEntity
100
AcDbLine
10
113.443766
20
-170.119486
30
0.0
11
113.443763
21
-170.119486
31
0.0
0
LINE
8
Layer 1
62
4
5
215
100
AcDbEntity
100
AcDbLine
10
113.443763
20
-170.119486
30
0.0
11
110.794389
21
-171.602465
31
0.0
0
LINE
8
Layer 1
62
4
5
216
100
AcDbEntity
100
AcDbLine
10
110.794389
20
-171.602465
30
0.0
11
108.460318
21
-173.546415
31
0.0
0
LINE
8
Layer 1
62
4
5
217
100
AcDbEntity
100
AcDbLine
10
108.460318
20
-173.546415
30
0.0
11
106.511746
21
-175.884536
31
0.0
0
LINE
8
Layer 1
62
4
5
218
100
AcDbEntity
100
AcDbLine
10
106.511746
20
-175.884536
30
0.0
11
105.018865
21
-178.550028
31
0.0
0
LINE
8
Layer 1
62
4
5
219
100
AcDbEntity
100
AcDbLine
10
105.018865
20
-178.550028
30
0.0
11
104.516622
21
-179.951096
31
0.0
0
LINE
8
Layer 1
62
4
5
21a
100
AcDbEntity
100
AcDbLine
10
104.516622
20
-179.951096
30
0.0
11
104.230570
21
-181.348310
31
0.0
0
LINE
8
Layer 1
62
4
5
21b
100
AcDbEntity
100
AcDbLine
10
104.230570
20
-181.348310
30
0.0
11
104.134893
21
-182.745597
31
0.0
0
LINE
8
Layer 1
62
4
5
21c
100
AcDbEntity
100
AcDbLine
10
104.134893
20
-182.745597
30
0.0
11
104.203772
21
-184.146883
31
0.0
0
LINE
8
Layer 1
62
4
5
21d
100
AcDbEntity
100
AcDbLine
10
104.203772
20
-184.146883
30
0.0
11
104.731933
21
-186.977153
31
0.0
0
LINE
8
Layer 1
62
4
5
21e
100
AcDbEntity
100
AcDbLine
10
104.731933
20
-186.977153
30
0.0
11
105.608512
21
-189.870526
31
0.0
0
LINE
8
Layer 1
62
4
5
21f
100
AcDbEntity
100
AcDbLine
10
105.608512
20
-189.870526
30
0.0
11
107.130229
21
-191.090148
31
0.0
0
LINE
8
Layer 1
62
4
5
220
100
AcDbEntity
100
AcDbLine
10
107.130229
20
-191.090148
30
0.0
11
108.405939
21
-192.376223
31
0.0
0
LINE
8
Layer 1
62
4
5
221
100
AcDbEntity
100
AcDbLine
10
108.405939
20
-192.376223
30
0.0
11
110.395036
21
-195.015613
31
0.0
0
LINE
8
Layer 1
62
4
5
222
100
AcDbEntity
100
AcDbLine
10
110.395036
20
-195.015613
30
0.0
11
111.927199
21
-197.524459
31
0.0
0
LINE
8
Layer 1
62
4
5
223
100
AcDbEntity
100
AcDbLine
10
111.927199
20
-197.524459
30
0.0
11
113.353819
21
-199.638519
31
0.0
0
LINE
8
Layer 1
62
4
5
224
100
AcDbEntity
100
AcDbLine
10
113.353819
20
-199.638519
30
0.0
11
113.354556
21
-199.638356
31
0.0
0
LINE
8
Layer 1
62
4
5
225
100
AcDbEntity
100
AcDbLine
10
83.546244
20
-153.732089
30
0.0
11
82.107250
21
-150.913507
31
0.0
0
LINE
8
Layer 1
62
4
5
226
100
AcDbEntity
100
AcDbLine
10
82.107250
20
-150.913507
30
0.0
11
81.645074
21
-153.908985
31
0.0
0
LINE
8
Layer 1
62
4
5
227
100
AcDbEntity
100
AcDbLine
10
81.645074
20
-153.908985
30
0.0
11
80.842896
21
-156.962389
31
0.0
0
LINE
8
Layer 1
62
4
5
228
100
AcDbEntity
100
AcDbLine
10
80.842896
20
-156.962389
30
0.0
11
79.726503
21
-160.007347
31
0.0
0
LINE
8
Layer 1
62
4
5
229
100
AcDbEntity
100
AcDbLine
10
79.726503
20
-160.007347
30
0.0
11
78.321680
21
-162.977484
31
0.0
0
LINE
8
Layer 1
62
4
5
22a
100
AcDbEntity
100
AcDbLine
10
78.321680
20
-162.977484
30
0.0
11
76.654211
21
-165.806426
31
0.0
0
LINE
8
Layer 1
62
4
5
22b
100
AcDbEntity
100
AcDbLine
10
76.654211
20
-165.806426
30
0.0
11
74.749882
21
-168.427800
31
0.0
0
LINE
8
Layer 1
62
4
5
22c
100
AcDbEntity
100
AcDbLine
10
74.749882
20
-168.427800
30
0.0
11
72.634478
21
-170.775230
31
0.0
0
LINE
8
Layer 1
62
4
5
22d
100
AcDbEntity
100
AcDbLine
10
72.634478
20
-170.775230
30
0.0
11
70.333785
21
-172.782343
31
0.0
0
LINE
8
Layer 1
62
4
5
22e
100
AcDbEntity
100
AcDbLine
10
70.333785
20
-172.782343
30
0.0
11
68.530032
21
-174.049628
31
0.0
0
LINE
8
Layer 1
62
4
5
22f
100
AcDbEntity
100
AcDbLine
10
68.530032
20
-174.049628
30
0.0
11
66.631396
21
-175.177272
31
0.0
0
LINE
8
Layer 1
62
4
5
230
100
AcDbEntity
100
AcDbLine
10
66.631396
20
-175.177272
30
0.0
11
64.649965
21
-176.160493
31
0.0
0
LINE
8
Layer 1
62
4
5
231
100
AcDbEntity
100
AcDbLine
10
64.649965
20
-176.160493
30
0.0
11
62.597827
21
-176.994510
31
0.0
0
LINE
8
Layer 1
62
4
5
232
100
AcDbEntity
100
AcDbLine
10
62.597827
20
-176.994510
30
0.0
11
60.487071
21
-177.674538
31
0.0
0
LINE
8
Layer 1
62
4
5
233
100
AcDbEntity
100
AcDbLine
10
60.487071
20
-177.674538
30
0.0
11
58.329785
21
-178.195797
31
0.0
0
LINE
8
Layer 1
62
4
5
234
100
AcDbEntity
100
AcDbLine
10
58.329785
20
-178.195797
30
0.0
11
56.138057
21
-178.553504
31
0.0
0
LINE
8
Layer 1
62
4
5
235
100
AcDbEntity
100
AcDbLine
10
56.138057
20
-178.553504
30
0.0
11
53.923974
21
-178.742876
31
0.0
0
LINE
8
Layer 1
62
4
5
236
100
AcDbEntity
100
AcDbLine
10
53.923974
20
-178.742876
30
0.0
11
53.923971
21
-178.742876
31
0.0
0
LINE
8
Layer 1
62
4
5
237
100
AcDbEntity
100
AcDbLine
10
53.923971
20
-178.742876
30
0.0
11
51.699336
21
-178.761008
31
0.0
0
LINE
8
Layer 1
62
4
5
238
100
AcDbEntity
100
AcDbLine
10
51.699336
20
-178.761008
30
0.0
11
49.476334
21
-178.608893
31
0.0
0
LINE
8
Layer 1
62
4
5
239
100
AcDbEntity
100
AcDbLine
10
49.476334
20
-178.608893
30
0.0
11
47.267634
21
-178.289458
31
0.0
0
LINE
8
Layer 1
62
4
5
23a
100
AcDbEntity
100
AcDbLine
10
47.267634
20
-178.289458
30
0.0
11
45.085900
21
-177.805629
31
0.0
0
LINE
8
Layer 1
62
4
5
23b
100
AcDbEntity
100
AcDbLine
10
45.085900
20
-177.805629
30
0.0
11
42.943802
21
-177.160332
31
0.0
0
LINE
8
Layer 1
62
4
5
23c
100
AcDbEntity
100
AcDbLine
10
42.943802
20
-177.160332
30
0.0
11
40.854005
21
-176.356493
31
0.0
0
LINE
8
Layer 1
62
4
5
23d
100
AcDbEntity
100
AcDbLine
10
40.854005
20
-176.356493
30
0.0
11
38.829176
21
-175.397038
31
0.0
0
LINE
8
Layer 1
62
4
5
23e
100
AcDbEntity
100
AcDbLine
10
38.829176
20
-175.397038
30
0.0
11
36.881983
21
-174.284894
31
0.0
0
LINE
8
Layer 1
62
4
5
23f
100
AcDbEntity
100
AcDbLine
10
36.881983
20
-174.284894
30
0.0
11
35.024295
21
-173.024485
31
0.0
0
LINE
8
Layer 1
62
4
5
240
100
AcDbEntity
100
AcDbLine
10
35.024295
20
-173.024485
30
0.0
11
33.265803
21
-171.623926
31
0.0
0
LINE
8
Layer 1
62
4
5
241
100
AcDbEntity
100
AcDbLine
10
33.265803
20
-171.623926
30
0.0
11
31.615268
21
-170.092822
31
0.0
0
LINE
8
Layer 1
62
4
5
242
100
AcDbEntity
100
AcDbLine
10
31.615268
20
-170.092822
30
0.0
11
30.081450
21
-168.440777
31
0.0
0
LINE
8
Layer 1
62
4
5
243
100
AcDbEntity
100
AcDbLine
10
30.081450
20
-168.440777
30
0.0
11
28.673111
21
-166.677396
31
0.0
0
LINE
8
Layer 1
62
4
5
244
100
AcDbEntity
100
AcDbLine
10
28.673111
20
-166.677396
30
0.0
11
27.399012
21
-164.812281
31
0.0
0
LINE
8
Layer 1
62
4
5
245
100
AcDbEntity
100
AcDbLine
10
27.399012
20
-164.812281
30
0.0
11
26.267913
21
-162.855040
31
0.0
0
LINE
8
Layer 1
62
4
5
246
100
AcDbEntity
100
AcDbLine
10
26.267913
20
-162.855040
30
0.0
11
25.288576
21
-160.815274
31
0.0
0
LINE
8
Layer 1
62
4
5
247
100
AcDbEntity
100
AcDbLine
10
25.288576
20
-160.815274
30
0.0
11
24.468681
21
-158.703691
31
0.0
0
LINE
8
Layer 1
62
4
5
248
100
AcDbEntity
100
AcDbLine
10
24.468681
20
-158.703691
30
0.0
11
23.811531
21
-156.532971
31
0.0
0
LINE
8
Layer 1
62
4
5
249
100
AcDbEntity
100
AcDbLine
10
23.811531
20
-156.532971
30
0.0
11
23.318880
21
-154.315994
31
0.0
0
LINE
8
Layer 1
62
4
5
24a
100
AcDbEntity
100
AcDbLine
10
23.318880
20
-154.315994
30
0.0
11
22.992479
21
-152.065644
31
0.0
0
LINE
8
Layer 1
62
4
5
24b
100
AcDbEntity
100
AcDbLine
10
22.992479
20
-152.065644
30
0.0
11
22.834081
21
-149.794802
31
0.0
0
LINE
8
Layer 1
62
4
5
24c
100
AcDbEntity
100
AcDbLine
10
22.834081
20
-149.794802
30
0.0
11
22.845437
21
-147.516350
31
0.0
0
LINE
8
Layer 1
62
4
5
24d
100
AcDbEntity
100
AcDbLine
10
22.845437
20
-147.516350
30
0.0
11
23.028300
21
-145.243170
31
0.0
0
LINE
8
Layer 1
62
4
5
24e
100
AcDbEntity
100
AcDbLine
10
23.028300
20
-145.243170
30
0.0
11
23.384423
21
-142.988143
31
0.0
0
LINE
8
Layer 1
62
4
5
24f
100
AcDbEntity
100
AcDbLine
10
23.384423
20
-142.988143
30
0.0
11
22.963049
21
-145.234409
31
0.0
0
LINE
8
Layer 1
62
4
5
250
100
AcDbEntity
100
AcDbLine
10
22.963049
20
-145.234409
30
0.0
11
22.713995
21
-147.508756
31
0.0
0
LINE
8
Layer 1
62
4
5
251
100
AcDbEntity
100
AcDbLine
10
22.713995
20
-147.508756
30
0.0
11
22.636621
21
-149.798205
31
0.0
0
LINE
8
Layer 1
62
4
5
252
100
AcDbEntity
100
AcDbLine
10
22.636621
20
-149.798205
30
0.0
11
22.730288
21
-152.089774
31
0.0
0
LINE
8
Layer 1
62
4
5
253
100
AcDbEntity
100
AcDbLine
10
22.730288
20
-152.089774
30
0.0
11
22.994357
21
-154.370482
31
0.0
0
LINE
8
Layer 1
62
4
5
254
100
AcDbEntity
100
AcDbLine
10
22.994357
20
-154.370482
30
0.0
11
23.428190
21
-156.627348
31
0.0
0
LINE
8
Layer 1
62
4
5
255
100
AcDbEntity
100
AcDbLine
10
23.428190
20
-156.627348
30
0.0
11
24.031147
21
-158.847390
31
0.0
0
LINE
8
Layer 1
62
4
5
256
100
AcDbEntity
100
AcDbLine
10
24.031147
20
-158.847390
30
0.0
11
24.802589
21
-161.017627
31
0.0
0
LINE
8
Layer 1
62
4
5
257
100
AcDbEntity
100
AcDbLine
10
24.802589
20
-161.017627
30
0.0
11
25.740353
21
-163.124001
31
0.0
0
LINE
8
Layer 1
62
4
5
258
100
AcDbEntity
100
AcDbLine
10
25.740353
20
-163.124001
30
0.0
11
26.837031
21
-165.154648
31
0.0
0
LINE
8
Layer 1
62
4
5
259
100
AcDbEntity
100
AcDbLine
10
26.837031
20
-165.154648
30
0.0
11
28.084723
21
-167.099246
31
0.0
0
LINE
8
Layer 1
62
4
5
25a
100
AcDbEntity
100
AcDbLine
10
28.084723
20
-167.099246
30
0.0
11
29.475529
21
-168.947472
31
0.0
0
LINE
8
Layer 1
62
4
5
25b
100
AcDbEntity
100
AcDbLine
10
29.475529
20
-168.947472
30
0.0
11
31.001550
21
-170.689005
31
0.0
0
LINE
8
Layer 1
62
4
5
25c
100
AcDbEntity
100
AcDbLine
10
31.001550
20
-170.689005
30
0.0
11
32.654884
21
-172.313523
31
0.0
0
LINE
8
Layer 1
62
4
5
25d
100
AcDbEntity
100
AcDbLine
10
32.654884
20
-172.313523
30
0.0
11
34.427632
21
-173.810704
31
0.0
0
LINE
8
Layer 1
62
4
5
25e
100
AcDbEntity
100
AcDbLine
10
34.427632
20
-173.810704
30
0.0
11
36.311894
21
-175.170225
31
0.0
0
LINE
8
Layer 1
62
4
5
25f
100
AcDbEntity
100
AcDbLine
10
36.311894
20
-175.170225
30
0.0
11
36.311896
21
-175.170225
31
0.0
0
LINE
8
Layer 1
62
4
5
260
100
AcDbEntity
100
AcDbLine
10
36.311896
20
-175.170225
30
0.0
11
38.297702
21
-176.381362
31
0.0
0
LINE
8
Layer 1
62
4
5
261
100
AcDbEntity
100
AcDbLine
10
38.297702
20
-176.381362
30
0.0
11
40.371676
21
-177.438450
31
0.0
0
LINE
8
Layer 1
62
4
5
262
100
AcDbEntity
100
AcDbLine
10
40.371676
20
-177.438450
30
0.0
11
42.521447
21
-178.337481
31
0.0
0
LINE
8
Layer 1
62
4
5
263
100
AcDbEntity
100
AcDbLine
10
42.521447
20
-178.337481
30
0.0
11
44.734642
21
-179.074452
31
0.0
0
LINE
8
Layer 1
62
4
5
264
100
AcDbEntity
100
AcDbLine
10
44.734642
20
-179.074452
30
0.0
11
46.998889
21
-179.645357
31
0.0
0
LINE
8
Layer 1
62
4
5
265
100
AcDbEntity
100
AcDbLine
10
46.998889
20
-179.645357
30
0.0
11
49.301814
21
-180.046192
31
0.0
0
LINE
8
Layer 1
62
4
5
266
100
AcDbEntity
100
AcDbLine
10
49.301814
20
-180.046192
30
0.0
11
51.631045
21
-180.272950
31
0.0
0
LINE
8
Layer 1
62
4
5
267
100
AcDbEntity
100
AcDbLine
10
51.631045
20
-180.272950
30
0.0
11
53.974210
21
-180.321627
31
0.0
0
LINE
8
Layer 1
62
4
5
268
100
AcDbEntity
100
AcDbLine
10
53.974210
20
-180.321627
30
0.0
11
56.316659
21
-180.188859
31
0.0
0
LINE
8
Layer 1
62
4
5
269
100
AcDbEntity
100
AcDbLine
10
56.316659
20
-180.188859
30
0.0
11
58.643687
21
-179.877816
31
0.0
0
LINE
8
Layer 1
62
4
5
26a
100
AcDbEntity
100
AcDbLine
10
58.643687
20
-179.877816
30
0.0
11
60.942834
21
-179.392224
31
0.0
0
LINE
8
Layer 1
62
4
5
26b
100
AcDbEntity
100
AcDbLine
10
60.942834
20
-179.392224
30
0.0
11
63.201642
21
-178.735813
31
0.0
0
LINE
8
Layer 1
62
4
5
26c
100
AcDbEntity
100
AcDbLine
10
63.201642
20
-178.735813
30
0.0
11
65.407652
21
-177.912309
31
0.0
0
LINE
8
Layer 1
62
4
5
26d
100
AcDbEntity
100
AcDbLine
10
65.407652
20
-177.912309
30
0.0
11
67.548406
21
-176.925441
31
0.0
0
LINE
8
Layer 1
62
4
5
26e
100
AcDbEntity
100
AcDbLine
10
67.548406
20
-176.925441
30
0.0
11
69.611446
21
-175.778936
31
0.0
0
LINE
8
Layer 1
62
4
5
26f
100
AcDbEntity
100
AcDbLine
10
69.611446
20
-175.778936
30
0.0
11
71.584312
21
-174.476523
31
0.0
0
LINE
8
Layer 1
62
4
5
270
100
AcDbEntity
100
AcDbLine
10
71.584312
20
-174.476523
30
0.0
11
74.059139
21
-172.499295
31
0.0
0
LINE
8
Layer 1
62
4
5
271
100
AcDbEntity
100
AcDbLine
10
74.059139
20
-172.499295
30
0.0
11
76.246535
21
-170.333545
31
0.0
0
LINE
8
Layer 1
62
4
5
272
100
AcDbEntity
100
AcDbLine
10
76.246535
20
-170.333545
30
0.0
11
78.150272
21
-167.985563
31
0.0
0
LINE
8
Layer 1
62
4
5
273
100
AcDbEntity
100
AcDbLine
10
78.150272
20
-167.985563
30
0.0
11
79.774119
21
-165.461640
31
0.0
0
LINE
8
Layer 1
62
4
5
274
100
AcDbEntity
100
AcDbLine
10
79.774119
20
-165.461640
30
0.0
11
81.121847
21
-162.768065
31
0.0
0
LINE
8
Layer 1
62
4
5
275
100
AcDbEntity
100
AcDbLine
10
81.121847
20
-162.768065
30
0.0
11
82.197226
21
-159.911131
31
0.0
0
LINE
8
Layer 1
62
4
5
276
100
AcDbEntity
100
AcDbLine
10
82.197226
20
-159.911131
30
0.0
11
83.004026
21
-156.897127
31
0.0
0
LINE
8
Layer 1
62
4
5
277
100
AcDbEntity
100
AcDbLine
10
83.004026
20
-156.897127
30
0.0
11
83.546019
21
-153.732343
31
0.0
0
LINE
8
Layer 1
62
4
5
278
100
AcDbEntity
100
AcDbLine
10
83.546019
20
-153.732343
30
0.0
11
83.546244
21
-153.732089
31
0.0
0
LINE
8
Layer 1
62
4
5
279
100
AcDbEntity
100
AcDbLine
10
171.466933
20
-184.381422
30
0.0
11
171.871807
21
-183.469222
31
0.0
0
LINE
8
Layer 1
62
4
5
27a
100
AcDbEntity
100
AcDbLine
10
171.871807
20
-183.469222
30
0.0
11
172.161986
21
-182.359823
31
0.0
0
LINE
8
Layer 1
62
4
5
27b
100
AcDbEntity
100
AcDbLine
10
172.161986
20
-182.359823
30
0.0
11
172.447225
21
-180.002018
31
0.0
0
LINE
8
Layer 1
62
4
5
27c
100
AcDbEntity
100
AcDbLine
10
172.447225
20
-180.002018
30
0.0
11
172.420584
21
-178.213183
31
0.0
0
LINE
8
Layer 1
62
4
5
27d
100
AcDbEntity
100
AcDbLine
10
172.420584
20
-178.213183
30
0.0
11
172.320913
21
-177.814997
31
0.0
0
LINE
8
Layer 1
62
4
5
27e
100
AcDbEntity
100
AcDbLine
10
172.320913
20
-177.814997
30
0.0
11
172.179996
21
-177.898496
31
0.0
0
LINE
8
Layer 1
62
4
5
27f
100
AcDbEntity
100
AcDbLine
10
172.179996
20
-177.898496
30
0.0
11
172.653886
21
-179.662500
31
0.0
0
LINE
8
Layer 1
62
4
5
280
100
AcDbEntity
100
AcDbLine
10
172.653886
20
-179.662500
30
0.0
11
172.930651
21
-181.548648
31
0.0
0
LINE
8
Layer 1
62
4
5
281
100
AcDbEntity
100
AcDbLine
10
172.930651
20
-181.548648
30
0.0
11
173.170882
21
-183.505478
31
0.0
0
LINE
8
Layer 1
62
4
5
282
100
AcDbEntity
100
AcDbLine
10
173.170882
20
-183.505478
30
0.0
11
173.535171
21
-185.481524
31
0.0
0
LINE
8
Layer 1
62
4
5
283
100
AcDbEntity
100
AcDbLine
10
173.535171
20
-185.481524
30
0.0
11
174.776731
21
-182.341992
31
0.0
0
LINE
8
Layer 1
62
4
5
284
100
AcDbEntity
100
AcDbLine
10
174.776731
20
-182.341992
30
0.0
11
175.400341
21
-179.695934
31
0.0
0
LINE
8
Layer 1
62
4
5
285
100
AcDbEntity
100
AcDbLine
10
175.400341
20
-179.695934
30
0.0
11
175.510865
21
-177.454529
31
0.0
0
LINE
8
Layer 1
62
4
5
286
100
AcDbEntity
100
AcDbLine
10
175.510865
20
-177.454529
30
0.0
11
175.213165
21
-175.528958
31
0.0
0
LINE
8
Layer 1
62
4
5
287
100
AcDbEntity
100
AcDbLine
10
175.213165
20
-175.528958
30
0.0
11
174.612105
21
-173.830399
31
0.0
0
LINE
8
Layer 1
62
4
5
288
100
AcDbEntity
100
AcDbLine
10
174.612105
20
-173.830399
30
0.0
11
173.812547
21
-172.270032
31
0.0
0
LINE
8
Layer 1
62
4
5
289
100
AcDbEntity
100
AcDbLine
10
173.812547
20
-172.270032
30
0.0
11
172.037389
21
-169.208591
31
0.0
0
LINE
8
Layer 1
62
4
5
28a
100
AcDbEntity
100
AcDbLine
10
172.037389
20
-169.208591
30
0.0
11
170.710496
21
-171.051832
31
0.0
0
LINE
8
Layer 1
62
4
5
28b
100
AcDbEntity
100
AcDbLine
10
170.710496
20
-171.051832
30
0.0
11
169.822129
21
-172.940865
31
0.0
0
LINE
8
Layer 1
62
4
5
28c
100
AcDbEntity
100
AcDbLine
10
169.822129
20
-172.940865
30
0.0
11
169.332394
21
-174.860419
31
0.0
0
LINE
8
Layer 1
62
4
5
28d
100
AcDbEntity
100
AcDbLine
10
169.332394
20
-174.860419
30
0.0
11
169.201398
21
-176.795218
31
0.0
0
LINE
8
Layer 1
62
4
5
28e
100
AcDbEntity
100
AcDbLine
10
169.201398
20
-176.795218
30
0.0
11
169.389248
21
-178.729992
31
0.0
0
LINE
8
Layer 1
62
4
5
28f
100
AcDbEntity
100
AcDbLine
10
169.389248
20
-178.729992
30
0.0
11
169.856049
21
-180.649465
31
0.0
0
LINE
8
Layer 1
62
4
5
290
100
AcDbEntity
100
AcDbLine
10
169.856049
20
-180.649465
30
0.0
11
170.561909
21
-182.538367
31
0.0
0
LINE
8
Layer 1
62
4
5
291
100
AcDbEntity
100
AcDbLine
10
170.561909
20
-182.538367
30
0.0
11
171.466933
21
-184.381422
31
0.0
0
LINE
8
Layer 1
62
4
5
292
100
AcDbEntity
100
AcDbLine
10
171.466933
20
-184.381422
30
0.0
11
171.466933
21
-184.381422
31
0.0
0
LINE
8
Layer 1
62
4
5
293
100
AcDbEntity
100
AcDbLine
10
148.801667
20
-153.393422
30
0.0
11
148.500648
21
-152.423727
31
0.0
0
LINE
8
Layer 1
62
4
5
294
100
AcDbEntity
100
AcDbLine
10
148.500648
20
-152.423727
30
0.0
11
147.981282
21
-151.376521
31
0.0
0
LINE
8
Layer 1
62
4
5
295
100
AcDbEntity
100
AcDbLine
10
147.981282
20
-151.376521
30
0.0
11
146.626227
21
-149.367452
31
0.0
0
LINE
8
Layer 1
62
4
5
296
100
AcDbEntity
100
AcDbLine
10
146.626227
20
-149.367452
30
0.0
11
145.413942
21
-148.001955
31
0.0
0
LINE
8
Layer 1
62
4
5
297
100
AcDbEntity
100
AcDbLine
10
145.413942
20
-148.001955
30
0.0
11
145.073037
21
-147.759215
31
0.0
0
LINE
8
Layer 1
62
4
5
298
100
AcDbEntity
100
AcDbLine
10
145.073037
20
-147.759215
30
0.0
11
145.021864
21
-147.915771
31
0.0
0
LINE
8
Layer 1
62
4
5
299
100
AcDbEntity
100
AcDbLine
10
145.021864
20
-147.915771
30
0.0
11
147.945715
21
-149.665711
31
0.0
0
LINE
8
Layer 1
62
4
5
29a
100
AcDbEntity
100
AcDbLine
10
147.945715
20
-149.665711
30
0.0
11
150.947120
21
-151.729722
31
0.0
0
LINE
8
Layer 1
62
4
5
29b
100
AcDbEntity
100
AcDbLine
10
150.947120
20
-151.729722
30
0.0
11
149.802717
21
-148.541566
31
0.0
0
LINE
8
Layer 1
62
4
5
29c
100
AcDbEntity
100
AcDbLine
10
149.802717
20
-148.541566
30
0.0
11
148.529666
21
-146.220361
31
0.0
0
LINE
8
Layer 1
62
4
5
29d
100
AcDbEntity
100
AcDbLine
10
148.529666
20
-146.220361
30
0.0
11
147.144631
21
-144.601684
31
0.0
0
LINE
8
Layer 1
62
4
5
29e
100
AcDbEntity
100
AcDbLine
10
147.144631
20
-144.601684
30
0.0
11
145.664273
21
-143.521112
31
0.0
0
LINE
8
Layer 1
62
4
5
29f
100
AcDbEntity
100
AcDbLine
10
145.664273
20
-143.521112
30
0.0
11
144.105254
21
-142.814226
31
0.0
0
LINE
8
Layer 1
62
4
5
2a0
100
AcDbEntity
100
AcDbLine
10
144.105254
20
-142.814226
30
0.0
11
142.484237
21
-142.316601
31
0.0
0
LINE
8
Layer 1
62
4
5
2a1
100
AcDbEntity
100
AcDbLine
10
142.484237
20
-142.316601
30
0.0
11
140.817883
21
-141.863817
31
0.0
0
LINE
8
Layer 1
62
4
5
2a2
100
AcDbEntity
100
AcDbLine
10
140.817883
20
-141.863817
30
0.0
11
139.122856
21
-141.291451
31
0.0
0
LINE
8
Layer 1
62
4
5
2a3
100
AcDbEntity
100
AcDbLine
10
139.122856
20
-141.291451
30
0.0
11
139.345426
21
-143.583253
31
0.0
0
LINE
8
Layer 1
62
4
5
2a4
100
AcDbEntity
100
AcDbLine
10
139.345426
20
-143.583253
30
0.0
11
139.930898
21
-145.623959
31
0.0
0
LINE
8
Layer 1
62
4
5
2a5
100
AcDbEntity
100
AcDbLine
10
139.930898
20
-145.623959
30
0.0
11
140.838857
21
-147.427823
31
0.0
0
LINE
8
Layer 1
62
4
5
2a6
100
AcDbEntity
100
AcDbLine
10
140.838857
20
-147.427823
30
0.0
11
142.028887
21
-149.009100
31
0.0
0
LINE
8
Layer 1
62
4
5
2a7
100
AcDbEntity
100
AcDbLine
10
142.028887
20
-149.009100
30
0.0
11
143.460570
21
-150.382044
31
0.0
0
LINE
8
Layer 1
62
4
5
2a8
100
AcDbEntity
100
AcDbLine
10
143.460570
20
-150.382044
30
0.0
11
145.093492
21
-151.560909
31
0.0
0
LINE
8
Layer 1
62
4
5
2a9
100
AcDbEntity
100
AcDbLine
10
145.093492
20
-151.560909
30
0.0
11
146.887235
21
-152.559951
31
0.0
0
LINE
8
Layer 1
62
4
5
2aa
100
AcDbEntity
100
AcDbLine
10
146.887235
20
-152.559951
30
0.0
11
148.801384
21
-153.393422
31
0.0
0
LINE
8
Layer 1
62
4
5
2ab
100
AcDbEntity
100
AcDbLine
10
148.801384
20
-153.393422
30
0.0
11
148.801667
21
-153.393422
31
0.0
0
LINE
8
Layer 1
62
4
5
2ac
100
AcDbEntity
100
AcDbLine
10
157.971067
20
-105.590622
30
0.0
11
158.476451
21
-106.602378
31
0.0
0
LINE
8
Layer 1
62
4
5
2ad
100
AcDbEntity
100
AcDbLine
10
158.476451
20
-106.602378
30
0.0
11
158.842615
21
-107.810179
31
0.0
0
LINE
8
Layer 1
62
4
5
2ae
100
AcDbEntity
100
AcDbLine
10
158.842615
20
-107.810179
30
0.0
11
159.213529
21
-110.339946
31
0.0
0
LINE
8
Layer 1
62
4
5
2af
100
AcDbEntity
100
AcDbLine
10
159.213529
20
-110.339946
30
0.0
11
159.196299
21
-112.231988
31
0.0
0
LINE
8
Layer 1
62
4
5
2b0
100
AcDbEntity
100
AcDbLine
10
159.196299
20
-112.231988
30
0.0
11
159.077284
21
-112.642632
31
0.0
0
LINE
8
Layer 1
62
4
5
2b1
100
AcDbEntity
100
AcDbLine
10
159.077284
20
-112.642632
30
0.0
11
158.903416
21
-112.538369
31
0.0
0
LINE
8
Layer 1
62
4
5
2b2
100
AcDbEntity
100
AcDbLine
10
158.903416
20
-112.538369
30
0.0
11
160.192371
21
-109.301354
31
0.0
0
LINE
8
Layer 1
62
4
5
2b3
100
AcDbEntity
100
AcDbLine
10
160.192371
20
-109.301354
30
0.0
11
161.299313
21
-105.748384
31
0.0
0
LINE
8
Layer 1
62
4
5
2b4
100
AcDbEntity
100
AcDbLine
10
161.299313
20
-105.748384
30
0.0
11
162.817814
21
-109.166546
31
0.0
0
LINE
8
Layer 1
62
4
5
2b5
100
AcDbEntity
100
AcDbLine
10
162.817814
20
-109.166546
30
0.0
11
163.516757
21
-111.915950
31
0.0
0
LINE
8
Layer 1
62
4
5
2b6
100
AcDbEntity
100
AcDbLine
10
163.516757
20
-111.915950
30
0.0
11
163.605231
21
-113.080937
31
0.0
0
LINE
8
Layer 1
62
4
5
2b7
100
AcDbEntity
100
AcDbLine
10
163.605231
20
-113.080937
30
0.0
11
163.544422
21
-114.128018
31
0.0
0
LINE
8
Layer 1
62
4
5
2b8
100
AcDbEntity
100
AcDbLine
10
163.544422
20
-114.128018
30
0.0
11
163.049092
21
-115.934172
31
0.0
0
LINE
8
Layer 1
62
4
5
2b9
100
AcDbEntity
100
AcDbLine
10
163.049092
20
-115.934172
30
0.0
11
162.179049
21
-117.465835
31
0.0
0
LINE
8
Layer 1
62
4
5
2ba
100
AcDbEntity
100
AcDbLine
10
162.179049
20
-117.465835
30
0.0
11
161.082573
21
-118.854427
31
0.0
0
LINE
8
Layer 1
62
4
5
2bb
100
AcDbEntity
100
AcDbLine
10
161.082573
20
-118.854427
30
0.0
11
159.907947
21
-120.231371
31
0.0
0
LINE
8
Layer 1
62
4
5
2bc
100
AcDbEntity
100
AcDbLine
10
159.907947
20
-120.231371
30
0.0
11
158.803453
21
-121.728089
31
0.0
0
LINE
8
Layer 1
62
4
5
2bd
100
AcDbEntity
100
AcDbLine
10
158.803453
20
-121.728089
30
0.0
11
157.157085
21
-119.626682
31
0.0
0
LINE
8
Layer 1
62
4
5
2be
100
AcDbEntity
100
AcDbLine
10
157.157085
20
-119.626682
30
0.0
11
156.049152
21
-117.525923
31
0.0
0
LINE
8
Layer 1
62
4
5
2bf
100
AcDbEntity
100
AcDbLine
10
156.049152
20
-117.525923
30
0.0
11
155.430768
21
-115.437521
31
0.0
0
LINE
8
Layer 1
62
4
5
2c0
100
AcDbEntity
100
AcDbLine
10
155.430768
20
-115.437521
30
0.0
11
155.253048
21
-113.373182
31
0.0
0
LINE
8
Layer 1
62
4
5
2c1
100
AcDbEntity
100
AcDbLine
10
155.253048
20
-113.373182
30
0.0
11
155.467104
21
-111.344615
31
0.0
0
LINE
8
Layer 1
62
4
5
2c2
100
AcDbEntity
100
AcDbLine
10
155.467104
20
-111.344615
30
0.0
11
156.024050
21
-109.363528
31
0.0
0
LINE
8
Layer 1
62
4
5
2c3
100
AcDbEntity
100
AcDbLine
10
156.024050
20
-109.363528
30
0.0
11
156.875000
21
-107.441627
31
0.0
0
LINE
8
Layer 1
62
4
5
2c4
100
AcDbEntity
100
AcDbLine
10
156.875000
20
-107.441627
30
0.0
11
157.971067
21
-105.590622
31
0.0
0
LINE
8
Layer 1
62
4
5
2c5
100
AcDbEntity
100
AcDbLine
10
157.971067
20
-105.590622
30
0.0
11
157.971067
21
-105.590622
31
0.0
0
LINE
8
Layer 1
62
4
5
2c6
100
AcDbEntity
100
AcDbLine
10
130.265311
20
-172.875222
30
0.0
11
131.431312
21
-175.145023
31
0.0
0
LINE
8
Layer 1
62
4
5
2c7
100
AcDbEntity
100
AcDbLine
10
131.431312
20
-175.145023
30
0.0
11
132.732366
21
-176.314845
31
0.0
0
LINE
8
Layer 1
62
4
5
2c8
100
AcDbEntity
100
AcDbLine
10
132.732366
20
-176.314845
30
0.0
11
134.146189
21
-177.349108
31
0.0
0
LINE
8
Layer 1
62
4
5
2c9
100
AcDbEntity
100
AcDbLine
10
134.146189
20
-177.349108
30
0.0
11
135.654474
21
-178.234833
31
0.0
0
LINE
8
Layer 1
62
4
5
2ca
100
AcDbEntity
100
AcDbLine
10
135.654474
20
-178.234833
30
0.0
11
137.238916
21
-178.959044
31
0.0
0
LINE
8
Layer 1
62
4
5
2cb
100
AcDbEntity
100
AcDbLine
10
137.238916
20
-178.959044
30
0.0
11
138.881210
21
-179.508763
31
0.0
0
LINE
8
Layer 1
62
4
5
2cc
100
AcDbEntity
100
AcDbLine
10
138.881210
20
-179.508763
30
0.0
11
140.563049
21
-179.871010
31
0.0
0
LINE
8
Layer 1
62
4
5
2cd
100
AcDbEntity
100
AcDbLine
10
140.563049
20
-179.871010
30
0.0
11
142.266127
21
-180.032809
31
0.0
0
LINE
8
Layer 1
62
4
5
2ce
100
AcDbEntity
100
AcDbLine
10
142.266127
20
-180.032809
30
0.0
11
143.972139
21
-179.981183
31
0.0
0
LINE
8
Layer 1
62
4
5
2cf
100
AcDbEntity
100
AcDbLine
10
143.972139
20
-179.981183
30
0.0
11
145.654375
21
-179.718786
31
0.0
0
LINE
8
Layer 1
62
4
5
2d0
100
AcDbEntity
100
AcDbLine
10
145.654375
20
-179.718786
30
0.0
11
147.288391
21
-179.272238
31
0.0
0
LINE
8
Layer 1
62
4
5
2d1
100
AcDbEntity
100
AcDbLine
10
147.288391
20
-179.272238
30
0.0
11
148.858325
21
-178.652182
31
0.0
0
LINE
8
Layer 1
62
4
5
2d2
100
AcDbEntity
100
AcDbLine
10
148.858325
20
-178.652182
30
0.0
11
150.348315
21
-177.869264
31
0.0
0
LINE
8
Layer 1
62
4
5
2d3
100
AcDbEntity
100
AcDbLine
10
150.348315
20
-177.869264
30
0.0
11
151.742499
21
-176.934129
31
0.0
0
LINE
8
Layer 1
62
4
5
2d4
100
AcDbEntity
100
AcDbLine
10
151.742499
20
-176.934129
30
0.0
11
153.025016
21
-175.857421
31
0.0
0
LINE
8
Layer 1
62
4
5
2d5
100
AcDbEntity
100
AcDbLine
10
153.025016
20
-175.857421
30
0.0
11
154.180004
21
-174.649786
31
0.0
0
LINE
8
Layer 1
62
4
5
2d6
100
AcDbEntity
100
AcDbLine
10
154.180004
20
-174.649786
30
0.0
11
155.191601
21
-173.321867
31
0.0
0
LINE
8
Layer 1
62
4
5
2d7
100
AcDbEntity
100
AcDbLine
10
155.191601
20
-173.321867
30
0.0
11
155.191604
21
-173.321867
31
0.0
0
LINE
8
Layer 1
62
4
5
2d8
100
AcDbEntity
100
AcDbLine
10
155.191604
20
-173.321867
30
0.0
11
156.139225
21
-171.691437
31
0.0
0
LINE
8
Layer 1
62
4
5
2d9
100
AcDbEntity
100
AcDbLine
10
156.139225
20
-171.691437
30
0.0
11
156.867415
21
-169.962131
31
0.0
0
LINE
8
Layer 1
62
4
5
2da
100
AcDbEntity
100
AcDbLine
10
156.867415
20
-169.962131
30
0.0
11
157.374587
21
-168.162564
31
0.0
0
LINE
8
Layer 1
62
4
5
2db
100
AcDbEntity
100
AcDbLine
10
157.374587
20
-168.162564
30
0.0
11
157.659157
21
-166.321345
31
0.0
0
LINE
8
Layer 1
62
4
5
2dc
100
AcDbEntity
100
AcDbLine
10
157.659157
20
-166.321345
30
0.0
11
157.659157
21
-166.321342
31
0.0
0
LINE
8
Layer 1
62
4
5
2dd
100
AcDbEntity
100
AcDbLine
10
157.659157
20
-166.321342
30
0.0
11
157.721391
21
-164.465010
31
0.0
0
LINE
8
Layer 1
62
4
5
2de
100
AcDbEntity
100
AcDbLine
10
157.721391
20
-164.465010
30
0.0
11
157.559008
21
-162.619631
31
0.0
0
LINE
8
Layer 1
62
4
5
2df
100
AcDbEntity
100
AcDbLine
10
157.559008
20
-162.619631
30
0.0
11
157.171279
21
-160.813876
31
0.0
0
LINE
8
Layer 1
62
4
5
2e0
100
AcDbEntity
100
AcDbLine
10
157.171279
20
-160.813876
30
0.0
11
156.557475
21
-159.076415
31
0.0
0
LINE
8
Layer 1
62
4
5
2e1
100
AcDbEntity
100
AcDbLine
10
156.557475
20
-159.076415
30
0.0
11
155.722033
21
-157.440715
31
0.0
0
LINE
8
Layer 1
62
4
5
2e2
100
AcDbEntity
100
AcDbLine
10
155.722033
20
-157.440715
30
0.0
11
154.688465
21
-155.931313
31
0.0
0
LINE
8
Layer 1
62
4
5
2e3
100
AcDbEntity
100
AcDbLine
10
154.688465
20
-155.931313
30
0.0
11
153.479987
21
-154.565078
31
0.0
0
LINE
8
Layer 1
62
4
5
2e4
100
AcDbEntity
100
AcDbLine
10
153.479987
20
-154.565078
30
0.0
11
152.119813
21
-153.358875
31
0.0
0
LINE
8
Layer 1
62
4
5
2e5
100
AcDbEntity
100
AcDbLine
10
152.119813
20
-153.358875
30
0.0
11
150.629517
21
-152.327517
31
0.0
0
LINE
8
Layer 1
62
4
5
2e6
100
AcDbEntity
100
AcDbLine
10
150.629517
20
-152.327517
30
0.0
11
149.030425
21
-151.486225
31
0.0
0
LINE
8
Layer 1
62
4
5
2e7
100
AcDbEntity
100
AcDbLine
10
149.030425
20
-151.486225
30
0.0
11
147.346264
21
-150.851149
31
0.0
0
LINE
8
Layer 1
62
4
5
2e8
100
AcDbEntity
100
AcDbLine
10
147.346264
20
-150.851149
30
0.0
11
145.600761
21
-150.438440
31
0.0
0
LINE
8
Layer 1
62
4
5
2e9
100
AcDbEntity
100
AcDbLine
10
145.600761
20
-150.438440
30
0.0
11
147.316513
21
-150.939989
31
0.0
0
LINE
8
Layer 1
62
4
5
2ea
100
AcDbEntity
100
AcDbLine
10
147.316513
20
-150.939989
30
0.0
11
148.949014
21
-151.655160
31
0.0
0
LINE
8
Layer 1
62
4
5
2eb
100
AcDbEntity
100
AcDbLine
10
148.949014
20
-151.655160
30
0.0
11
150.477391
21
-152.564329
31
0.0
0
LINE
8
Layer 1
62
4
5
2ec
100
AcDbEntity
100
AcDbLine
10
150.477391
20
-152.564329
30
0.0
11
151.880770
21
-153.647871
31
0.0
0
LINE
8
Layer 1
62
4
5
2ed
100
AcDbEntity
100
AcDbLine
10
151.880770
20
-153.647871
30
0.0
11
153.139913
21
-154.888041
31
0.0
0
LINE
8
Layer 1
62
4
5
2ee
100
AcDbEntity
100
AcDbLine
10
153.139913
20
-154.888041
30
0.0
11
154.236627
21
-156.266099
31
0.0
0
LINE
8
Layer 1
62
4
5
2ef
100
AcDbEntity
100
AcDbLine
10
154.236627
20
-156.266099
30
0.0
11
155.150600
21
-157.761818
31
0.0
0
LINE
8
Layer 1
62
4
5
2f0
100
AcDbEntity
100
AcDbLine
10
155.150600
20
-157.761818
30
0.0
11
155.861515
21
-159.354969
31
0.0
0
LINE
8
Layer 1
62
4
5
2f1
100
AcDbEntity
100
AcDbLine
10
155.861515
20
-159.354969
30
0.0
11
156.354668
21
-161.021984
31
0.0
0
LINE
8
Layer 1
62
4
5
2f2
100
AcDbEntity
100
AcDbLine
10
156.354668
20
-161.021984
30
0.0
11
156.629135
21
-162.735395
31
0.0
0
LINE
8
Layer 1
62
4
5
2f3
100
AcDbEntity
100
AcDbLine
10
156.629135
20
-162.735395
30
0.0
11
156.690099
21
-164.467024
31
0.0
0
LINE
8
Layer 1
62
4
5
2f4
100
AcDbEntity
100
AcDbLine
10
156.690099
20
-164.467024
30
0.0
11
156.542743
21
-166.188698
31
0.0
0
LINE
8
Layer 1
62
4
5
2f5
100
AcDbEntity
100
AcDbLine
10
156.542743
20
-166.188698
30
0.0
11
156.190390
21
-167.874586
31
0.0
0
LINE
8
Layer 1
62
4
5
2f6
100
AcDbEntity
100
AcDbLine
10
156.190390
20
-167.874586
30
0.0
11
155.640055
21
-169.499461
31
0.0
0
LINE
8
Layer 1
62
4
5
2f7
100
AcDbEntity
100
AcDbLine
10
155.640055
20
-169.499461
30
0.0
11
154.897759
21
-171.035287
31
0.0
0
LINE
8
Layer 1
62
4
5
2f8
100
AcDbEntity
100
AcDbLine
10
154.897759
20
-171.035287
30
0.0
11
153.969525
21
-172.454031
31
0.0
0
LINE
8
Layer 1
62
4
5
2f9
100
AcDbEntity
100
AcDbLine
10
153.969525
20
-172.454031
30
0.0
11
153.969525
21
-172.454034
31
0.0
0
LINE
8
Layer 1
62
4
5
2fa
100
AcDbEntity
100
AcDbLine
10
153.969525
20
-172.454034
30
0.0
11
153.004718
21
-173.593326
31
0.0
0
LINE
8
Layer 1
62
4
5
2fb
100
AcDbEntity
100
AcDbLine
10
153.004718
20
-173.593326
30
0.0
11
151.918283
21
-174.615067
31
0.0
0
LINE
8
Layer 1
62
4
5
2fc
100
AcDbEntity
100
AcDbLine
10
151.918283
20
-174.615067
30
0.0
11
150.727545
21
-175.511216
31
0.0
0
LINE
8
Layer 1
62
4
5
2fd
100
AcDbEntity
100
AcDbLine
10
150.727545
20
-175.511216
30
0.0
11
149.449832
21
-176.273735
31
0.0
0
LINE
8
Layer 1
62
4
5
2fe
100
AcDbEntity
100
AcDbLine
10
149.449832
20
-176.273735
30
0.0
11
148.102468
21
-176.894583
31
0.0
0
LINE
8
Layer 1
62
4
5
2ff
100
AcDbEntity
100
AcDbLine
10
148.102468
20
-176.894583
30
0.0
11
146.702780
21
-177.365719
31
0.0
0
LINE
8
Layer 1
62
4
5
300
100
AcDbEntity
100
AcDbLine
10
146.702780
20
-177.365719
30
0.0
11
145.268093
21
-177.679104
31
0.0
0
LINE
8
Layer 1
62
4
5
301
100
AcDbEntity
100
AcDbLine
10
145.268093
20
-177.679104
30
0.0
11
143.815734
21
-177.826698
31
0.0
0
LINE
8
Layer 1
62
4
5
302
100
AcDbEntity
100
AcDbLine
10
143.815734
20
-177.826698
30
0.0
11
142.222996
21
-177.779951
31
0.0
0
LINE
8
Layer 1
62
4
5
303
100
AcDbEntity
100
AcDbLine
10
142.222996
20
-177.779951
30
0.0
11
140.416584
21
-177.523183
31
0.0
0
LINE
8
Layer 1
62
4
5
304
100
AcDbEntity
100
AcDbLine
10
140.416584
20
-177.523183
30
0.0
11
138.488893
21
-177.079672
31
0.0
0
LINE
8
Layer 1
62
4
5
305
100
AcDbEntity
100
AcDbLine
10
138.488893
20
-177.079672
30
0.0
11
136.532319
21
-176.472694
31
0.0
0
LINE
8
Layer 1
62
4
5
306
100
AcDbEntity
100
AcDbLine
10
136.532319
20
-176.472694
30
0.0
11
134.639259
21
-175.725529
31
0.0
0
LINE
8
Layer 1
62
4
5
307
100
AcDbEntity
100
AcDbLine
10
134.639259
20
-175.725529
30
0.0
11
132.902108
21
-174.861452
31
0.0
0
LINE
8
Layer 1
62
4
5
308
100
AcDbEntity
100
AcDbLine
10
132.902108
20
-174.861452
30
0.0
11
131.413262
21
-173.903741
31
0.0
0
LINE
8
Layer 1
62
4
5
309
100
AcDbEntity
100
AcDbLine
10
131.413262
20
-173.903741
30
0.0
11
130.265116
21
-172.875674
31
0.0
0
LINE
8
Layer 1
62
4
5
30a
100
AcDbEntity
100
AcDbLine
10
130.265116
20
-172.875674
30
0.0
11
130.265311
21
-172.875222
31
0.0
0
LINE
8
Layer 1
62
4
5
30b
100
AcDbEntity
100
AcDbLine
10
20.916336
20
-147.907022
30
0.0
11
21.477972
21
-146.920352
31
0.0
0
LINE
8
Layer 1
62
4
5
30c
100
AcDbEntity
100
AcDbLine
10
21.477972
20
-146.920352
30
0.0
11
21.941282
21
-145.694634
31
0.0
0
LINE
8
Layer 1
62
4
5
30d
100
AcDbEntity
100
AcDbLine
10
21.941282
20
-145.694634
30
0.0
11
22.565755
21
-143.047402
31
0.0
0
LINE
8
Layer 1
62
4
5
30e
100
AcDbEntity
100
AcDbLine
10
22.565755
20
-143.047402
30
0.0
11
22.775425
21
-141.008025
31
0.0
0
LINE
8
Layer 1
62
4
5
30f
100
AcDbEntity
100
AcDbLine
10
22.775425
20
-141.008025
30
0.0
11
22.720231
21
-140.542124
31
0.0
0
LINE
8
Layer 1
62
4
5
310
100
AcDbEntity
100
AcDbLine
10
22.720231
20
-140.542124
30
0.0
11
22.555962
21
-140.619198
31
0.0
0
LINE
8
Layer 1
62
4
5
311
100
AcDbEntity
100
AcDbLine
10
22.555962
20
-140.619198
30
0.0
11
23.297434
21
-144.362615
31
0.0
0
LINE
8
Layer 1
62
4
5
312
100
AcDbEntity
100
AcDbLine
10
23.297434
20
-144.362615
30
0.0
11
23.842416
21
-148.409096
31
0.0
0
LINE
8
Layer 1
62
4
5
313
100
AcDbEntity
100
AcDbLine
10
23.842416
20
-148.409096
30
0.0
11
25.574844
21
-145.037502
31
0.0
0
LINE
8
Layer 1
62
4
5
314
100
AcDbEntity
100
AcDbLine
10
25.574844
20
-145.037502
30
0.0
11
26.511939
21
-142.220108
31
0.0
0
LINE
8
Layer 1
62
4
5
315
100
AcDbEntity
100
AcDbLine
10
26.511939
20
-142.220108
30
0.0
11
26.798838
21
-139.845421
31
0.0
0
LINE
8
Layer 1
62
4
5
316
100
AcDbEntity
100
AcDbLine
10
26.798838
20
-139.845421
30
0.0
11
26.580677
21
-137.801950
31
0.0
0
LINE
8
Layer 1
62
4
5
317
100
AcDbEntity
100
AcDbLine
10
26.580677
20
-137.801950
30
0.0
11
26.002592
21
-135.978202
31
0.0
0
LINE
8
Layer 1
62
4
5
318
100
AcDbEntity
100
AcDbLine
10
26.002592
20
-135.978202
30
0.0
11
25.209721
21
-134.262685
31
0.0
0
LINE
8
Layer 1
62
4
5
319
100
AcDbEntity
100
AcDbLine
10
25.209721
20
-134.262685
30
0.0
11
24.347200
21
-132.543907
31
0.0
0
LINE
8
Layer 1
62
4
5
31a
100
AcDbEntity
100
AcDbLine
10
24.347200
20
-132.543907
30
0.0
11
23.560165
21
-130.710376
31
0.0
0
LINE
8
Layer 1
62
4
5
31b
100
AcDbEntity
100
AcDbLine
10
23.560165
20
-130.710376
30
0.0
11
21.872407
21
-132.639188
31
0.0
0
LINE
8
Layer 1
62
4
5
31c
100
AcDbEntity
100
AcDbLine
10
21.872407
20
-132.639188
30
0.0
11
20.655085
21
-134.676003
31
0.0
0
LINE
8
Layer 1
62
4
5
31d
100
AcDbEntity
100
AcDbLine
10
20.655085
20
-134.676003
30
0.0
11
19.866878
21
-136.798359
31
0.0
0
LINE
8
Layer 1
62
4
5
31e
100
AcDbEntity
100
AcDbLine
10
19.866878
20
-136.798359
30
0.0
11
19.466465
21
-138.983791
31
0.0
0
LINE
8
Layer 1
62
4
5
31f
100
AcDbEntity
100
AcDbLine
10
19.466465
20
-138.983791
30
0.0
11
19.412525
21
-141.209836
31
0.0
0
LINE
8
Layer 1
62
4
5
320
100
AcDbEntity
100
AcDbLine
10
19.412525
20
-141.209836
30
0.0
11
19.663738
21
-143.454032
31
0.0
0
LINE
8
Layer 1
62
4
5
321
100
AcDbEntity
100
AcDbLine
10
19.663738
20
-143.454032
30
0.0
11
20.178781
21
-145.693915
31
0.0
0
LINE
8
Layer 1
62
4
5
322
100
AcDbEntity
100
AcDbLine
10
20.178781
20
-145.693915
30
0.0
11
20.916336
21
-147.907022
31
0.0
0
LINE
8
Layer 1
62
4
5
323
100
AcDbEntity
100
AcDbLine
10
20.916336
20
-147.907022
30
0.0
11
20.916336
21
-147.907022
31
0.0
0
LINE
8
Layer 1
62
4
5
324
100
AcDbEntity
100
AcDbLine
10
91.821000
20
-118.403511
30
0.0
11
89.377407
21
-120.896606
31
0.0
0
LINE
8
Layer 1
62
4
5
325
100
AcDbEntity
100
AcDbLine
10
89.377407
20
-120.896606
30
0.0
11
89.905688
21
-122.606531
31
0.0
0
LINE
8
Layer 1
62
4
5
326
100
AcDbEntity
100
AcDbLine
10
89.905688
20
-122.606531
30
0.0
11
90.617950
21
-123.857840
31
0.0
0
LINE
8
Layer 1
62
4
5
327
100
AcDbEntity
100
AcDbLine
10
90.617950
20
-123.857840
30
0.0
11
92.756172
21
-126.337850
31
0.0
0
LINE
8
Layer 1
62
4
5
328
100
AcDbEntity
100
AcDbLine
10
92.756172
20
-126.337850
30
0.0
11
94.191656
21
-127.826485
31
0.0
0
LINE
8
Layer 1
62
4
5
329
100
AcDbEntity
100
AcDbLine
10
94.191656
20
-127.826485
30
0.0
11
95.794886
21
-129.131459
31
0.0
0
LINE
8
Layer 1
62
4
5
32a
100
AcDbEntity
100
AcDbLine
10
95.794886
20
-129.131459
30
0.0
11
97.545564
21
-130.230888
31
0.0
0
LINE
8
Layer 1
62
4
5
32b
100
AcDbEntity
100
AcDbLine
10
97.545564
20
-130.230888
30
0.0
11
99.423389
21
-131.102890
31
0.0
0
LINE
8
Layer 1
62
4
5
32c
100
AcDbEntity
100
AcDbLine
10
99.423389
20
-131.102890
30
0.0
11
101.396414
21
-131.720277
31
0.0
0
LINE
8
Layer 1
62
4
5
32d
100
AcDbEntity
100
AcDbLine
10
101.396414
20
-131.720277
30
0.0
11
103.422581
21
-132.083013
31
0.0
0
LINE
8
Layer 1
62
4
5
32e
100
AcDbEntity
100
AcDbLine
10
103.422581
20
-132.083013
30
0.0
11
105.472332
21
-132.195146
31
0.0
0
LINE
8
Layer 1
62
4
5
32f
100
AcDbEntity
100
AcDbLine
10
105.472332
20
-132.195146
30
0.0
11
107.516112
21
-132.060724
31
0.0
0
LINE
8
Layer 1
62
4
5
330
100
AcDbEntity
100
AcDbLine
10
107.516112
20
-132.060724
30
0.0
11
107.516114
21
-132.060724
31
0.0
0
LINE
8
Layer 1
62
4
5
331
100
AcDbEntity
100
AcDbLine
10
107.516114
20
-132.060724
30
0.0
11
109.526879
21
-131.686605
31
0.0
0
LINE
8
Layer 1
62
4
5
332
100
AcDbEntity
100
AcDbLine
10
109.526879
20
-131.686605
30
0.0
11
111.477160
21
-131.074245
31
0.0
0
LINE
8
Layer 1
62
4
5
333
100
AcDbEntity
100
AcDbLine
10
111.477160
20
-131.074245
30
0.0
11
113.337525
21
-130.228543
31
0.0
0
LINE
8
Layer 1
62
4
5
334
100
AcDbEntity
100
AcDbLine
10
113.337525
20
-130.228543
30
0.0
11
115.078541
21
-129.154400
31
0.0
0
LINE
8
Layer 1
62
4
5
335
100
AcDbEntity
100
AcDbLine
10
115.078541
20
-129.154400
30
0.0
11
117.143345
21
-127.418633
31
0.0
0
LINE
8
Layer 1
62
4
5
336
100
AcDbEntity
100
AcDbLine
10
117.143345
20
-127.418633
30
0.0
11
118.927452
21
-125.426445
31
0.0
0
LINE
8
Layer 1
62
4
5
337
100
AcDbEntity
100
AcDbLine
10
118.927452
20
-125.426445
30
0.0
11
120.446712
21
-123.239847
31
0.0
0
LINE
8
Layer 1
62
4
5
338
100
AcDbEntity
100
AcDbLine
10
120.446712
20
-123.239847
30
0.0
11
121.716972
21
-120.920849
31
0.0
0
LINE
8
Layer 1
62
4
5
339
100
AcDbEntity
100
AcDbLine
10
121.716972
20
-120.920849
30
0.0
11
121.716975
21
-120.920849
31
0.0
0
LINE
8
Layer 1
62
4
5
33a
100
AcDbEntity
100
AcDbLine
10
121.716975
20
-120.920849
30
0.0
11
122.775635
21
-118.532005
31
0.0
0
LINE
8
Layer 1
62
4
5
33b
100
AcDbEntity
100
AcDbLine
10
122.775635
20
-118.532005
30
0.0
11
123.676571
21
-116.098870
31
0.0
0
LINE
8
Layer 1
62
4
5
33c
100
AcDbEntity
100
AcDbLine
10
123.676571
20
-116.098870
30
0.0
11
125.193953
21
-111.184182
31
0.0
0
LINE
8
Layer 1
62
4
5
33d
100
AcDbEntity
100
AcDbLine
10
125.193953
20
-111.184182
30
0.0
11
126.664923
21
-106.321423
31
0.0
0
LINE
8
Layer 1
62
4
5
33e
100
AcDbEntity
100
AcDbLine
10
126.664923
20
-106.321423
30
0.0
11
127.503075
21
-103.948754
31
0.0
0
LINE
8
Layer 1
62
4
5
33f
100
AcDbEntity
100
AcDbLine
10
127.503075
20
-103.948754
30
0.0
11
128.473375
21
-101.641120
31
0.0
0
LINE
8
Layer 1
62
4
5
340
100
AcDbEntity
100
AcDbLine
10
128.473375
20
-101.641120
30
0.0
11
129.622476
21
-99.420736
31
0.0
0
LINE
8
Layer 1
62
4
5
341
100
AcDbEntity
100
AcDbLine
10
129.622476
20
-99.420736
30
0.0
11
130.974936
21
-97.328835
31
0.0
0
LINE
8
Layer 1
62
4
5
342
100
AcDbEntity
100
AcDbLine
10
130.974936
20
-97.328835
30
0.0
11
132.550662
21
-95.424152
31
0.0
0
LINE
8
Layer 1
62
4
5
343
100
AcDbEntity
100
AcDbLine
10
132.550662
20
-95.424152
30
0.0
11
134.369562
21
-93.765426
31
0.0
0
LINE
8
Layer 1
62
4
5
344
100
AcDbEntity
100
AcDbLine
10
134.369562
20
-93.765426
30
0.0
11
136.472643
21
-92.384167
31
0.0
0
LINE
8
Layer 1
62
4
5
345
100
AcDbEntity
100
AcDbLine
10
136.472643
20
-92.384167
30
0.0
11
138.778356
21
-91.356430
31
0.0
0
LINE
8
Layer 1
62
4
5
346
100
AcDbEntity
100
AcDbLine
10
138.778356
20
-91.356430
30
0.0
11
141.223033
21
-90.706493
31
0.0
0
LINE
8
Layer 1
62
4
5
347
100
AcDbEntity
100
AcDbLine
10
141.223033
20
-90.706493
30
0.0
11
143.743008
21
-90.458629
31
0.0
0
LINE
8
Layer 1
62
4
5
348
100
AcDbEntity
100
AcDbLine
10
143.743008
20
-90.458629
30
0.0
11
143.743011
21
-90.458629
31
0.0
0
LINE
8
Layer 1
62
4
5
349
100
AcDbEntity
100
AcDbLine
10
143.743011
20
-90.458629
30
0.0
11
146.274703
21
-90.629039
31
0.0
0
LINE
8
Layer 1
62
4
5
34a
100
AcDbEntity
100
AcDbLine
10
146.274703
20
-90.629039
30
0.0
11
148.753373
21
-91.206809
31
0.0
0
LINE
8
Layer 1
62
4
5
34b
100
AcDbEntity
100
AcDbLine
10
148.753373
20
-91.206809
30
0.0
11
151.113615
21
-92.172841
31
0.0
0
LINE
8
Layer 1
62
4
5
34c
100
AcDbEntity
100
AcDbLine
10
151.113615
20
-92.172841
30
0.0
11
153.290024
21
-93.508040
31
0.0
0
LINE
8
Layer 1
62
4
5
34d
100
AcDbEntity
100
AcDbLine
10
153.290024
20
-93.508040
30
0.0
11
155.221170
21
-95.186608
31
0.0
0
LINE
8
Layer 1
62
4
5
34e
100
AcDbEntity
100
AcDbLine
10
155.221170
20
-95.186608
30
0.0
11
156.861300
21
-97.159830
31
0.0
0
LINE
8
Layer 1
62
4
5
34f
100
AcDbEntity
100
AcDbLine
10
156.861300
20
-97.159830
30
0.0
11
158.169801
21
-99.373023
31
0.0
0
LINE
8
Layer 1
62
4
5
350
100
AcDbEntity
100
AcDbLine
10
158.169801
20
-99.373023
30
0.0
11
159.106060
21
-101.771506
31
0.0
0
LINE
8
Layer 1
62
4
5
351
100
AcDbEntity
100
AcDbLine
10
159.106060
20
-101.771506
30
0.0
11
159.636114
21
-104.296443
31
0.0
0
LINE
8
Layer 1
62
4
5
352
100
AcDbEntity
100
AcDbLine
10
159.636114
20
-104.296443
30
0.0
11
159.752882
21
-106.880434
31
0.0
0
LINE
8
Layer 1
62
4
5
353
100
AcDbEntity
100
AcDbLine
10
159.752882
20
-106.880434
30
0.0
11
159.457021
21
-109.455324
31
0.0
0
LINE
8
Layer 1
62
4
5
354
100
AcDbEntity
100
AcDbLine
10
159.457021
20
-109.455324
30
0.0
11
158.749190
21
-111.952955
31
0.0
0
LINE
8
Layer 1
62
4
5
355
100
AcDbEntity
100
AcDbLine
10
158.749190
20
-111.952955
30
0.0
11
159.520572
21
-109.468659
31
0.0
0
LINE
8
Layer 1
62
4
5
356
100
AcDbEntity
100
AcDbLine
10
159.520572
20
-109.468659
30
0.0
11
159.882661
21
-106.886573
31
0.0
0
LINE
8
Layer 1
62
4
5
357
100
AcDbEntity
100
AcDbLine
10
159.882661
20
-106.886573
30
0.0
11
159.829710
21
-104.274535
31
0.0
0
LINE
8
Layer 1
62
4
5
358
100
AcDbEntity
100
AcDbLine
10
159.829710
20
-104.274535
30
0.0
11
159.355968
21
-101.700386
31
0.0
0
LINE
8
Layer 1
62
4
5
359
100
AcDbEntity
100
AcDbLine
10
159.355968
20
-101.700386
30
0.0
11
158.463439
21
-99.234333
31
0.0
0
LINE
8
Layer 1
62
4
5
35a
100
AcDbEntity
100
AcDbLine
10
158.463439
20
-99.234333
30
0.0
11
157.182793
21
-96.939333
31
0.0
0
LINE
8
Layer 1
62
4
5
35b
100
AcDbEntity
100
AcDbLine
10
157.182793
20
-96.939333
30
0.0
11
155.550389
21
-94.872986
31
0.0
0
LINE
8
Layer 1
62
4
5
35c
100
AcDbEntity
100
AcDbLine
10
155.550389
20
-94.872986
30
0.0
11
153.602586
21
-93.092891
31
0.0
0
LINE
8
Layer 1
62
4
5
35d
100
AcDbEntity
100
AcDbLine
10
153.602586
20
-93.092891
30
0.0
11
151.384151
21
-91.654600
31
0.0
0
LINE
8
Layer 1
62
4
5
35e
100
AcDbEntity
100
AcDbLine
10
151.384151
20
-91.654600
30
0.0
11
148.958548
21
-90.590271
31
0.0
0
LINE
8
Layer 1
62
4
5
35f
100
AcDbEntity
100
AcDbLine
10
148.958548
20
-90.590271
30
0.0
11
146.389541
21
-89.923812
31
0.0
0
LINE
8
Layer 1
62
4
5
360
100
AcDbEntity
100
AcDbLine
10
146.389541
20
-89.923812
30
0.0
11
143.740894
21
-89.679131
31
0.0
0
LINE
8
Layer 1
62
4
5
361
100
AcDbEntity
100
AcDbLine
10
143.740894
20
-89.679131
30
0.0
11
143.740889
21
-89.679131
31
0.0
0
LINE
8
Layer 1
62
4
5
362
100
AcDbEntity
100
AcDbLine
10
143.740889
20
-89.679131
30
0.0
11
141.082766
21
-89.873839
31
0.0
0
LINE
8
Layer 1
62
4
5
363
100
AcDbEntity
100
AcDbLine
10
141.082766
20
-89.873839
30
0.0
11
138.486370
21
-90.494937
31
0.0
0
LINE
8
Layer 1
62
4
5
364
100
AcDbEntity
100
AcDbLine
10
138.486370
20
-90.494937
30
0.0
11
136.017027
21
-91.522978
31
0.0
0
LINE
8
Layer 1
62
4
5
365
100
AcDbEntity
100
AcDbLine
10
136.017027
20
-91.522978
30
0.0
11
133.740062
21
-92.938515
31
0.0
0
LINE
8
Layer 1
62
4
5
366
100
AcDbEntity
100
AcDbLine
10
133.740062
20
-92.938515
30
0.0
11
131.762279
21
-94.658546
31
0.0
0
LINE
8
Layer 1
62
4
5
367
100
AcDbEntity
100
AcDbLine
10
131.762279
20
-94.658546
30
0.0
11
130.041050
21
-96.629308
31
0.0
0
LINE
8
Layer 1
62
4
5
368
100
AcDbEntity
100
AcDbLine
10
130.041050
20
-96.629308
30
0.0
11
128.560871
21
-98.790767
31
0.0
0
LINE
8
Layer 1
62
4
5
369
100
AcDbEntity
100
AcDbLine
10
128.560871
20
-98.790767
30
0.0
11
127.306242
21
-101.082884
31
0.0
0
LINE
8
Layer 1
62
4
5
36a
100
AcDbEntity
100
AcDbLine
10
127.306242
20
-101.082884
30
0.0
11
126.243023
21
-103.448074
31
0.0
0
LINE
8
Layer 1
62
4
5
36b
100
AcDbEntity
100
AcDbLine
10
126.243023
20
-103.448074
30
0.0
11
125.320477
21
-105.860201
31
0.0
0
LINE
8
Layer 1
62
4
5
36c
100
AcDbEntity
100
AcDbLine
10
125.320477
20
-105.860201
30
0.0
11
123.712707
21
-110.733191
31
0.0
0
LINE
8
Layer 1
62
4
5
36d
100
AcDbEntity
100
AcDbLine
10
123.712707
20
-110.733191
30
0.0
11
122.097302
21
-115.537671
31
0.0
0
LINE
8
Layer 1
62
4
5
36e
100
AcDbEntity
100
AcDbLine
10
122.097302
20
-115.537671
30
0.0
11
121.172072
21
-117.864082
31
0.0
0
LINE
8
Layer 1
62
4
5
36f
100
AcDbEntity
100
AcDbLine
10
121.172072
20
-117.864082
30
0.0
11
120.107882
21
-120.107202
31
0.0
0
LINE
8
Layer 1
62
4
5
370
100
AcDbEntity
100
AcDbLine
10
120.107882
20
-120.107202
30
0.0
11
118.862600
21
-122.239506
31
0.0
0
LINE
8
Layer 1
62
4
5
371
100
AcDbEntity
100
AcDbLine
10
118.862600
20
-122.239506
30
0.0
11
117.421155
21
-124.218404
31
0.0
0
LINE
8
Layer 1
62
4
5
372
100
AcDbEntity
100
AcDbLine
10
117.421155
20
-124.218404
30
0.0
11
115.772404
21
-125.980873
31
0.0
0
LINE
8
Layer 1
62
4
5
373
100
AcDbEntity
100
AcDbLine
10
115.772404
20
-125.980873
30
0.0
11
113.905202
21
-127.463889
31
0.0
0
LINE
8
Layer 1
62
4
5
374
100
AcDbEntity
100
AcDbLine
10
113.905202
20
-127.463889
30
0.0
11
112.371474
21
-128.359298
31
0.0
0
LINE
8
Layer 1
62
4
5
375
100
AcDbEntity
100
AcDbLine
10
112.371474
20
-128.359298
30
0.0
11
110.733275
21
-129.053262
31
0.0
0
LINE
8
Layer 1
62
4
5
376
100
AcDbEntity
100
AcDbLine
10
110.733275
20
-129.053262
30
0.0
11
109.020373
21
-129.543089
31
0.0
0
LINE
8
Layer 1
62
4
5
377
100
AcDbEntity
100
AcDbLine
10
109.020373
20
-129.543089
30
0.0
11
107.262538
21
-129.826089
31
0.0
0
LINE
8
Layer 1
62
4
5
378
100
AcDbEntity
100
AcDbLine
10
107.262538
20
-129.826089
30
0.0
11
105.486207
21
-129.896985
31
0.0
0
LINE
8
Layer 1
62
4
5
379
100
AcDbEntity
100
AcDbLine
10
105.486207
20
-129.896985
30
0.0
11
103.718793
21
-129.757051
31
0.0
0
LINE
8
Layer 1
62
4
5
37a
100
AcDbEntity
100
AcDbLine
10
103.718793
20
-129.757051
30
0.0
11
101.990125
21
-129.404458
31
0.0
0
LINE
8
Layer 1
62
4
5
37b
100
AcDbEntity
100
AcDbLine
10
101.990125
20
-129.404458
30
0.0
11
100.330031
21
-128.837380
31
0.0
0
LINE
8
Layer 1
62
4
5
37c
100
AcDbEntity
100
AcDbLine
10
100.330031
20
-128.837380
30
0.0
11
100.330028
21
-128.837377
31
0.0
0
LINE
8
Layer 1
62
4
5
37d
100
AcDbEntity
100
AcDbLine
10
100.330028
20
-128.837377
30
0.0
11
98.760086
21
-128.061476
31
0.0
0
LINE
8
Layer 1
62
4
5
37e
100
AcDbEntity
100
AcDbLine
10
98.760086
20
-128.061476
30
0.0
11
97.298450
21
-127.089349
31
0.0
0
LINE
8
Layer 1
62
4
5
37f
100
AcDbEntity
100
AcDbLine
10
97.298450
20
-127.089349
30
0.0
11
95.963788
21
-125.944333
31
0.0
0
LINE
8
Layer 1
62
4
5
380
100
AcDbEntity
100
AcDbLine
10
95.963788
20
-125.944333
30
0.0
11
94.774766
21
-124.649763
31
0.0
0
LINE
8
Layer 1
62
4
5
381
100
AcDbEntity
100
AcDbLine
10
94.774766
20
-124.649763
30
0.0
11
93.750623
21
-123.224597
31
0.0
0
LINE
8
Layer 1
62
4
5
382
100
AcDbEntity
100
AcDbLine
10
93.750623
20
-123.224597
30
0.0
11
92.905037
21
-121.692618
31
0.0
0
LINE
8
Layer 1
62
4
5
383
100
AcDbEntity
100
AcDbLine
10
92.905037
20
-121.692618
30
0.0
11
92.255951
21
-120.077676
31
0.0
0
LINE
8
Layer 1
62
4
5
384
100
AcDbEntity
100
AcDbLine
10
92.255951
20
-120.077676
30
0.0
11
91.821310
21
-118.403621
31
0.0
0
LINE
8
Layer 1
62
4
5
385
100
AcDbEntity
100
AcDbLine
10
91.821310
20
-118.403621
30
0.0
11
91.821000
21
-118.403511
31
0.0
0
LINE
8
Layer 1
62
4
5
386
100
AcDbEntity
100
AcDbLine
10
79.445556
20
-14.255044
30
0.0
11
79.969322
21
-12.460251
31
0.0
0
LINE
8
Layer 1
62
4
5
387
100
AcDbEntity
100
AcDbLine
10
79.969322
20
-12.460251
30
0.0
11
80.239282
21
-10.321436
31
0.0
0
LINE
8
Layer 1
62
4
5
388
100
AcDbEntity
100
AcDbLine
10
80.239282
20
-10.321436
30
0.0
11
80.303839
21
-8.047637
31
0.0
0
LINE
8
Layer 1
62
4
5
389
100
AcDbEntity
100
AcDbLine
10
80.303839
20
-8.047637
30
0.0
11
80.211393
21
-5.847891
31
0.0
0
LINE
8
Layer 1
62
4
5
38a
100
AcDbEntity
100
AcDbLine
10
80.211393
20
-5.847891
30
0.0
11
79.749098
21
-2.506711
31
0.0
0
LINE
8
Layer 1
62
4
5
38b
100
AcDbEntity
100
AcDbLine
10
79.749098
20
-2.506711
30
0.0
11
79.476052
21
-1.783351
31
0.0
0
LINE
8
Layer 1
62
4
5
38c
100
AcDbEntity
100
AcDbLine
10
79.476052
20
-1.783351
30
0.0
11
79.350230
21
-1.749932
31
0.0
0
LINE
8
Layer 1
62
4
5
38d
100
AcDbEntity
100
AcDbLine
10
79.350230
20
-1.749932
30
0.0
11
79.239610
21
-1.970193
31
0.0
0
LINE
8
Layer 1
62
4
5
38e
100
AcDbEntity
100
AcDbLine
10
79.239610
20
-1.970193
30
0.0
11
81.917433
21
-7.666708
31
0.0
0
LINE
8
Layer 1
62
4
5
38f
100
AcDbEntity
100
AcDbLine
10
81.917433
20
-7.666708
30
0.0
11
84.395527
21
-13.923716
31
0.0
0
LINE
8
Layer 1
62
4
5
390
100
AcDbEntity
100
AcDbLine
10
84.395527
20
-13.923716
30
0.0
11
85.284967
21
-10.729504
31
0.0
0
LINE
8
Layer 1
62
4
5
391
100
AcDbEntity
100
AcDbLine
10
85.284967
20
-10.729504
30
0.0
11
85.882028
21
-7.863096
31
0.0
0
LINE
8
Layer 1
62
4
5
392
100
AcDbEntity
100
AcDbLine
10
85.882028
20
-7.863096
30
0.0
11
86.210690
21
-5.295187
31
0.0
0
LINE
8
Layer 1
62
4
5
393
100
AcDbEntity
100
AcDbLine
10
86.210690
20
-5.295187
30
0.0
11
86.294934
21
-2.996472
31
0.0
0
LINE
8
Layer 1
62
4
5
394
100
AcDbEntity
100
AcDbLine
10
86.294934
20
-2.996472
30
0.0
11
86.158739
21
-0.937647
31
0.0
0
LINE
8
Layer 1
62
4
5
395
100
AcDbEntity
100
AcDbLine
10
86.158739
20
-0.937647
30
0.0
11
85.826086
21
0.910594
31
0.0
0
LINE
8
Layer 1
62
4
5
396
100
AcDbEntity
100
AcDbLine
10
85.826086
20
0.910594
30
0.0
11
85.320954
21
2.577555
31
0.0
0
LINE
8
Layer 1
62
4
5
397
100
AcDbEntity
100
AcDbLine
10
85.320954
20
2.577555
30
0.0
11
84.667325
21
4.092540
31
0.0
0
LINE
8
Layer 1
62
4
5
398
100
AcDbEntity
100
AcDbLine
10
84.667325
20
4.092540
30
0.0
11
83.010493
21
6.783803
31
0.0
0
LINE
8
Layer 1
62
4
5
399
100
AcDbEntity
100
AcDbLine
10
83.010493
20
6.783803
30
0.0
11
81.047430
21
9.218820
31
0.0
0
LINE
8
Layer 1
62
4
5
39a
100
AcDbEntity
100
AcDbLine
10
81.047430
20
9.218820
30
0.0
11
78.969978
21
11.632029
31
0.0
0
LINE
8
Layer 1
62
4
5
39b
100
AcDbEntity
100
AcDbLine
10
78.969978
20
11.632029
30
0.0
11
76.969978
21
14.257867
31
0.0
0
LINE
8
Layer 1
62
4
5
39c
100
AcDbEntity
100
AcDbLine
10
76.969978
20
14.257867
30
0.0
11
75.873481
21
12.389308
31
0.0
0
LINE
8
Layer 1
62
4
5
39d
100
AcDbEntity
100
AcDbLine
10
75.873481
20
12.389308
30
0.0
11
74.988119
21
10.520676
31
0.0
0
LINE
8
Layer 1
62
4
5
39e
100
AcDbEntity
100
AcDbLine
10
74.988119
20
10.520676
30
0.0
11
74.304398
21
8.654458
31
0.0
0
LINE
8
Layer 1
62
4
5
39f
100
AcDbEntity
100
AcDbLine
10
74.304398
20
8.654458
30
0.0
11
73.812825
21
6.793142
31
0.0
0
LINE
8
Layer 1
62
4
5
3a0
100
AcDbEntity
100
AcDbLine
10
73.812825
20
6.793142
30
0.0
11
73.503905
21
4.939214
31
0.0
0
LINE
8
Layer 1
62
4
5
3a1
100
AcDbEntity
100
AcDbLine
10
73.503905
20
4.939214
30
0.0
11
73.368144
21
3.095162
31
0.0
0
LINE
8
Layer 1
62
4
5
3a2
100
AcDbEntity
100
AcDbLine
10
73.368144
20
3.095162
30
0.0
11
73.396049
21
1.263473
31
0.0
0
LINE
8
Layer 1
62
4
5
3a3
100
AcDbEntity
100
AcDbLine
10
73.396049
20
1.263473
30
0.0
11
73.578126
21
-0.553367
31
0.0
0
LINE
8
Layer 1
62
4
5
3a4
100
AcDbEntity
100
AcDbLine
10
73.578126
20
-0.553367
30
0.0
11
74.366817
21
-4.132549
31
0.0
0
LINE
8
Layer 1
62
4
5
3a5
100
AcDbEntity
100
AcDbLine
10
74.366817
20
-4.132549
30
0.0
11
75.658267
21
-7.622487
31
0.0
0
LINE
8
Layer 1
62
4
5
3a6
100
AcDbEntity
100
AcDbLine
10
75.658267
20
-7.622487
30
0.0
11
77.376522
21
-11.003284
31
0.0
0
LINE
8
Layer 1
62
4
5
3a7
100
AcDbEntity
100
AcDbLine
10
77.376522
20
-11.003284
30
0.0
11
79.445632
21
-14.255044
31
0.0
0
LINE
8
Layer 1
62
4
5
3a8
100
AcDbEntity
100
AcDbLine
10
79.445632
20
-14.255044
30
0.0
11
79.445556
21
-14.255044
31
0.0
0
LINE
8
Layer 1
62
4
5
3a9
100
AcDbEntity
100
AcDbLine
10
103.126822
20
-101.484289
30
0.0
11
105.650961
21
-97.723396
31
0.0
0
LINE
8
Layer 1
62
4
5
3aa
100
AcDbEntity
100
AcDbLine
10
105.650961
20
-97.723396
30
0.0
11
101.835762
21
-97.964414
31
0.0
0
LINE
8
Layer 1
62
4
5
3ab
100
AcDbEntity
100
AcDbLine
10
101.835762
20
-97.964414
30
0.0
11
97.893907
21
-97.658761
31
0.0
0
LINE
8
Layer 1
62
4
5
3ac
100
AcDbEntity
100
AcDbLine
10
97.893907
20
-97.658761
30
0.0
11
94.029469
21
-96.817791
31
0.0
0
LINE
8
Layer 1
62
4
5
3ad
100
AcDbEntity
100
AcDbLine
10
94.029469
20
-96.817791
30
0.0
11
92.190054
21
-96.200112
31
0.0
0
LINE
8
Layer 1
62
4
5
3ae
100
AcDbEntity
100
AcDbLine
10
92.190054
20
-96.200112
30
0.0
11
90.446521
21
-95.452861
31
0.0
0
LINE
8
Layer 1
62
4
5
3af
100
AcDbEntity
100
AcDbLine
10
90.446521
20
-95.452861
30
0.0
11
87.200512
21
-93.582223
31
0.0
0
LINE
8
Layer 1
62
4
5
3b0
100
AcDbEntity
100
AcDbLine
10
87.200512
20
-93.582223
30
0.0
11
84.254460
21
-91.250495
31
0.0
0
LINE
8
Layer 1
62
4
5
3b1
100
AcDbEntity
100
AcDbLine
10
84.254460
20
-91.250495
30
0.0
11
81.671893
21
-88.513605
31
0.0
0
LINE
8
Layer 1
62
4
5
3b2
100
AcDbEntity
100
AcDbLine
10
81.671893
20
-88.513605
30
0.0
11
79.516337
21
-85.427481
31
0.0
0
LINE
8
Layer 1
62
4
5
3b3
100
AcDbEntity
100
AcDbLine
10
79.516337
20
-85.427481
30
0.0
11
79.516331
21
-85.427476
31
0.0
0
LINE
8
Layer 1
62
4
5
3b4
100
AcDbEntity
100
AcDbLine
10
79.516331
20
-85.427476
30
0.0
11
77.680151
21
-81.758788
31
0.0
0
LINE
8
Layer 1
62
4
5
3b5
100
AcDbEntity
100
AcDbLine
10
77.680151
20
-81.758788
30
0.0
11
76.217436
21
-77.852631
31
0.0
0
LINE
8
Layer 1
62
4
5
3b6
100
AcDbEntity
100
AcDbLine
10
76.217436
20
-77.852631
30
0.0
11
76.217433
21
-77.852628
31
0.0
0
LINE
8
Layer 1
62
4
5
3b7
100
AcDbEntity
100
AcDbLine
10
76.217433
20
-77.852628
30
0.0
11
73.641308
21
-69.702051
31
0.0
0
LINE
8
Layer 1
62
4
5
3b8
100
AcDbEntity
100
AcDbLine
10
73.641308
20
-69.702051
30
0.0
11
73.641308
21
-69.702042
31
0.0
0
LINE
8
Layer 1
62
4
5
3b9
100
AcDbEntity
100
AcDbLine
10
73.641308
20
-69.702042
30
0.0
11
72.113149
21
-65.643807
31
0.0
0
LINE
8
Layer 1
62
4
5
3ba
100
AcDbEntity
100
AcDbLine
10
72.113149
20
-65.643807
30
0.0
11
71.195404
21
-63.664613
31
0.0
0
LINE
8
Layer 1
62
4
5
3bb
100
AcDbEntity
100
AcDbLine
10
71.195404
20
-63.664613
30
0.0
11
70.144575
21
-61.742247
31
0.0
0
LINE
8
Layer 1
62
4
5
3bc
100
AcDbEntity
100
AcDbLine
10
70.144575
20
-61.742247
30
0.0
11
68.934442
21
-59.898179
31
0.0
0
LINE
8
Layer 1
62
4
5
3bd
100
AcDbEntity
100
AcDbLine
10
68.934442
20
-59.898179
30
0.0
11
67.550664
21
-58.171758
31
0.0
0
LINE
8
Layer 1
62
4
5
3be
100
AcDbEntity
100
AcDbLine
10
67.550664
20
-58.171758
30
0.0
11
65.989794
21
-56.599902
31
0.0
0
LINE
8
Layer 1
62
4
5
3bf
100
AcDbEntity
100
AcDbLine
10
65.989794
20
-56.599902
30
0.0
11
64.248388
21
-55.219527
31
0.0
0
LINE
8
Layer 1
62
4
5
3c0
100
AcDbEntity
100
AcDbLine
10
64.248388
20
-55.219527
30
0.0
11
61.874952
21
-53.856112
31
0.0
0
LINE
8
Layer 1
62
4
5
3c1
100
AcDbEntity
100
AcDbLine
10
61.874952
20
-53.856112
30
0.0
11
59.320224
21
-52.894746
31
0.0
0
LINE
8
Layer 1
62
4
5
3c2
100
AcDbEntity
100
AcDbLine
10
59.320224
20
-52.894746
30
0.0
11
56.650137
21
-52.347457
31
0.0
0
LINE
8
Layer 1
62
4
5
3c3
100
AcDbEntity
100
AcDbLine
10
56.650137
20
-52.347457
30
0.0
11
53.930626
21
-52.226278
31
0.0
0
LINE
8
Layer 1
62
4
5
3c4
100
AcDbEntity
100
AcDbLine
10
53.930626
20
-52.226278
30
0.0
11
51.233622
21
-52.534799
31
0.0
0
LINE
8
Layer 1
62
4
5
3c5
100
AcDbEntity
100
AcDbLine
10
51.233622
20
-52.534799
30
0.0
11
48.621391
21
-53.248935
31
0.0
0
LINE
8
Layer 1
62
4
5
3c6
100
AcDbEntity
100
AcDbLine
10
48.621391
20
-53.248935
30
0.0
11
46.147907
21
-54.342435
31
0.0
0
LINE
8
Layer 1
62
4
5
3c7
100
AcDbEntity
100
AcDbLine
10
46.147907
20
-54.342435
30
0.0
11
43.867146
21
-55.789051
31
0.0
0
LINE
8
Layer 1
62
4
5
3c8
100
AcDbEntity
100
AcDbLine
10
43.867146
20
-55.789051
30
0.0
11
41.832368
21
-57.554392
31
0.0
0
LINE
8
Layer 1
62
4
5
3c9
100
AcDbEntity
100
AcDbLine
10
41.832368
20
-57.554392
30
0.0
11
40.076408
21
-59.589978
31
0.0
0
LINE
8
Layer 1
62
4
5
3ca
100
AcDbEntity
100
AcDbLine
10
40.076408
20
-59.589978
30
0.0
11
38.625777
21
-61.849316
31
0.0
0
LINE
8
Layer 1
62
4
5
3cb
100
AcDbEntity
100
AcDbLine
10
38.625777
20
-61.849316
30
0.0
11
37.506986
21
-64.285916
31
0.0
0
LINE
8
Layer 1
62
4
5
3cc
100
AcDbEntity
100
AcDbLine
10
37.506986
20
-64.285916
30
0.0
11
37.506986
21
-64.285918
31
0.0
0
LINE
8
Layer 1
62
4
5
3cd
100
AcDbEntity
100
AcDbLine
10
37.506986
20
-64.285918
30
0.0
11
36.741806
21
-66.849100
31
0.0
0
LINE
8
Layer 1
62
4
5
3ce
100
AcDbEntity
100
AcDbLine
10
36.741806
20
-66.849100
30
0.0
11
36.331499
21
-69.487662
31
0.0
0
LINE
8
Layer 1
62
4
5
3cf
100
AcDbEntity
100
AcDbLine
10
36.331499
20
-69.487662
30
0.0
11
36.273780
21
-72.154322
31
0.0
0
LINE
8
Layer 1
62
4
5
3d0
100
AcDbEntity
100
AcDbLine
10
36.273780
20
-72.154322
30
0.0
11
36.566368
21
-74.801801
31
0.0
0
LINE
8
Layer 1
62
4
5
3d1
100
AcDbEntity
100
AcDbLine
10
36.566368
20
-74.801801
30
0.0
11
37.010844
21
-76.732168
31
0.0
0
LINE
8
Layer 1
62
4
5
3d2
100
AcDbEntity
100
AcDbLine
10
37.010844
20
-76.732168
30
0.0
11
37.641604
21
-78.607095
31
0.0
0
LINE
8
Layer 1
62
4
5
3d3
100
AcDbEntity
100
AcDbLine
10
37.641604
20
-78.607095
30
0.0
11
38.448679
21
-80.411465
31
0.0
0
LINE
8
Layer 1
62
4
5
3d4
100
AcDbEntity
100
AcDbLine
10
38.448679
20
-80.411465
30
0.0
11
39.422100
21
-82.130159
31
0.0
0
LINE
8
Layer 1
62
4
5
3d5
100
AcDbEntity
100
AcDbLine
10
39.422100
20
-82.130159
30
0.0
11
40.551900
21
-83.748060
31
0.0
0
LINE
8
Layer 1
62
4
5
3d6
100
AcDbEntity
100
AcDbLine
10
40.551900
20
-83.748060
30
0.0
11
41.828109
21
-85.250051
31
0.0
0
LINE
8
Layer 1
62
4
5
3d7
100
AcDbEntity
100
AcDbLine
10
41.828109
20
-85.250051
30
0.0
11
43.240759
21
-86.621013
31
0.0
0
LINE
8
Layer 1
62
4
5
3d8
100
AcDbEntity
100
AcDbLine
10
43.240759
20
-86.621013
30
0.0
11
44.779881
21
-87.845829
31
0.0
0
LINE
8
Layer 1
62
4
5
3d9
100
AcDbEntity
100
AcDbLine
10
44.779881
20
-87.845829
30
0.0
11
46.432206
21
-88.909459
31
0.0
0
LINE
8
Layer 1
62
4
5
3da
100
AcDbEntity
100
AcDbLine
10
46.432206
20
-88.909459
30
0.0
11
48.178891
21
-89.804787
31
0.0
0
LINE
8
Layer 1
62
4
5
3db
100
AcDbEntity
100
AcDbLine
10
48.178891
20
-89.804787
30
0.0
11
50.002245
21
-90.527950
31
0.0
0
LINE
8
Layer 1
62
4
5
3dc
100
AcDbEntity
100
AcDbLine
10
50.002245
20
-90.527950
30
0.0
11
51.884579
21
-91.075087
31
0.0
0
LINE
8
Layer 1
62
4
5
3dd
100
AcDbEntity
100
AcDbLine
10
51.884579
20
-91.075087
30
0.0
11
53.808200
21
-91.442333
31
0.0
0
LINE
8
Layer 1
62
4
5
3de
100
AcDbEntity
100
AcDbLine
10
53.808200
20
-91.442333
30
0.0
11
55.755420
21
-91.625826
31
0.0
0
LINE
8
Layer 1
62
4
5
3df
100
AcDbEntity
100
AcDbLine
10
55.755420
20
-91.625826
30
0.0
11
57.708546
21
-91.621703
31
0.0
0
LINE
8
Layer 1
62
4
5
3e0
100
AcDbEntity
100
AcDbLine
10
57.708546
20
-91.621703
30
0.0
11
59.649888
21
-91.426101
31
0.0
0
LINE
8
Layer 1
62
4
5
3e1
100
AcDbEntity
100
AcDbLine
10
59.649888
20
-91.426101
30
0.0
11
57.706886
21
-91.582094
31
0.0
0
LINE
8
Layer 1
62
4
5
3e2
100
AcDbEntity
100
AcDbLine
10
57.706886
20
-91.582094
30
0.0
11
55.759820
21
-91.546618
31
0.0
0
LINE
8
Layer 1
62
4
5
3e3
100
AcDbEntity
100
AcDbLine
10
55.759820
20
-91.546618
30
0.0
11
53.826109
21
-91.324612
31
0.0
0
LINE
8
Layer 1
62
4
5
3e4
100
AcDbEntity
100
AcDbLine
10
53.826109
20
-91.324612
30
0.0
11
51.923172
21
-90.921018
31
0.0
0
LINE
8
Layer 1
62
4
5
3e5
100
AcDbEntity
100
AcDbLine
10
51.923172
20
-90.921018
30
0.0
11
50.068430
21
-90.340776
31
0.0
0
LINE
8
Layer 1
62
4
5
3e6
100
AcDbEntity
100
AcDbLine
10
50.068430
20
-90.340776
30
0.0
11
48.279300
21
-89.588827
31
0.0
0
LINE
8
Layer 1
62
4
5
3e7
100
AcDbEntity
100
AcDbLine
10
48.279300
20
-89.588827
30
0.0
11
46.573203
21
-88.670112
31
0.0
0
LINE
8
Layer 1
62
4
5
3e8
100
AcDbEntity
100
AcDbLine
10
46.573203
20
-88.670112
30
0.0
11
44.967559
21
-87.589572
31
0.0
0
LINE
8
Layer 1
62
4
5
3e9
100
AcDbEntity
100
AcDbLine
10
44.967559
20
-87.589572
30
0.0
11
43.479447
21
-86.355235
31
0.0
0
LINE
8
Layer 1
62
4
5
3ea
100
AcDbEntity
100
AcDbLine
10
43.479447
20
-86.355235
30
0.0
11
42.120779
21
-84.981710
31
0.0
0
LINE
8
Layer 1
62
4
5
3eb
100
AcDbEntity
100
AcDbLine
10
42.120779
20
-84.981710
30
0.0
11
40.900587
21
-83.484699
31
0.0
0
LINE
8
Layer 1
62
4
5
3ec
100
AcDbEntity
100
AcDbLine
10
40.900587
20
-83.484699
30
0.0
11
39.827904
21
-81.879899
31
0.0
0
LINE
8
Layer 1
62
4
5
3ed
100
AcDbEntity
100
AcDbLine
10
39.827904
20
-81.879899
30
0.0
11
38.911762
21
-80.183010
31
0.0
0
LINE
8
Layer 1
62
4
5
3ee
100
AcDbEntity
100
AcDbLine
10
38.911762
20
-80.183010
30
0.0
11
38.161192
21
-78.409734
31
0.0
0
LINE
8
Layer 1
62
4
5
3ef
100
AcDbEntity
100
AcDbLine
10
38.161192
20
-78.409734
30
0.0
11
37.585228
21
-76.575768
31
0.0
0
LINE
8
Layer 1
62
4
5
3f0
100
AcDbEntity
100
AcDbLine
10
37.585228
20
-76.575768
30
0.0
11
37.192901
21
-74.696814
31
0.0
0
LINE
8
Layer 1
62
4
5
3f1
100
AcDbEntity
100
AcDbLine
10
37.192901
20
-74.696814
30
0.0
11
36.962250
21
-72.130779
31
0.0
0
LINE
8
Layer 1
62
4
5
3f2
100
AcDbEntity
100
AcDbLine
10
36.962250
20
-72.130779
30
0.0
11
37.069992
21
-69.559876
31
0.0
0
LINE
8
Layer 1
62
4
5
3f3
100
AcDbEntity
100
AcDbLine
10
37.069992
20
-69.559876
30
0.0
11
37.515519
21
-67.031411
31
0.0
0
LINE
8
Layer 1
62
4
5
3f4
100
AcDbEntity
100
AcDbLine
10
37.515519
20
-67.031411
30
0.0
11
38.298224
21
-64.592694
31
0.0
0
LINE
8
Layer 1
62
4
5
3f5
100
AcDbEntity
100
AcDbLine
10
38.298224
20
-64.592694
30
0.0
11
38.298227
21
-64.592688
31
0.0
0
LINE
8
Layer 1
62
4
5
3f6
100
AcDbEntity
100
AcDbLine
10
38.298227
20
-64.592688
30
0.0
11
39.412882
21
-62.290284
31
0.0
0
LINE
8
Layer 1
62
4
5
3f7
100
AcDbEntity
100
AcDbLine
10
39.412882
20
-62.290284
30
0.0
11
40.836425
21
-60.168643
31
0.0
0
LINE
8
Layer 1
62
4
5
3f8
100
AcDbEntity
100
AcDbLine
10
40.836425
20
-60.168643
30
0.0
11
42.539563
21
-58.272533
31
0.0
0
LINE
8
Layer 1
62
4
5
3f9
100
AcDbEntity
100
AcDbLine
10
42.539563
20
-58.272533
30
0.0
11
44.493005
21
-56.646722
31
0.0
0
LINE
8
Layer 1
62
4
5
3fa
100
AcDbEntity
100
AcDbLine
10
44.493005
20
-56.646722
30
0.0
11
46.663507
21
-55.331686
31
0.0
0
LINE
8
Layer 1
62
4
5
3fb
100
AcDbEntity
100
AcDbLine
10
46.663507
20
-55.331686
30
0.0
11
49.002338
21
-54.353797
31
0.0
0
LINE
8
Layer 1
62
4
5
3fc
100
AcDbEntity
100
AcDbLine
10
49.002338
20
-54.353797
30
0.0
11
51.453923
21
-53.735957
31
0.0
0
LINE
8
Layer 1
62
4
5
3fd
100
AcDbEntity
100
AcDbLine
10
51.453923
20
-53.735957
30
0.0
11
53.962689
21
-53.501073
31
0.0
0
LINE
8
Layer 1
62
4
5
3fe
100
AcDbEntity
100
AcDbLine
10
53.962689
20
-53.501073
30
0.0
11
56.472941
21
-53.664808
31
0.0
0
LINE
8
Layer 1
62
4
5
3ff
100
AcDbEntity
100
AcDbLine
10
56.472941
20
-53.664808
30
0.0
11
58.924297
21
-54.219200
31
0.0
0
LINE
8
Layer 1
62
4
5
400
100
AcDbEntity
100
AcDbLine
10
58.924297
20
-54.219200
30
0.0
11
61.251616
21
-55.148236
31
0.0
0
LINE
8
Layer 1
62
4
5
401
100
AcDbEntity
100
AcDbLine
10
61.251616
20
-55.148236
30
0.0
11
63.389758
21
-56.435902
31
0.0
0
LINE
8
Layer 1
62
4
5
402
100
AcDbEntity
100
AcDbLine
10
63.389758
20
-56.435902
30
0.0
11
64.956558
21
-57.727008
31
0.0
0
LINE
8
Layer 1
62
4
5
403
100
AcDbEntity
100
AcDbLine
10
64.956558
20
-57.727008
30
0.0
11
66.361565
21
-59.205969
31
0.0
0
LINE
8
Layer 1
62
4
5
404
100
AcDbEntity
100
AcDbLine
10
66.361565
20
-59.205969
30
0.0
11
67.610500
21
-60.836102
31
0.0
0
LINE
8
Layer 1
62
4
5
405
100
AcDbEntity
100
AcDbLine
10
67.610500
20
-60.836102
30
0.0
11
68.709083
21
-62.580726
31
0.0
0
LINE
8
Layer 1
62
4
5
406
100
AcDbEntity
100
AcDbLine
10
68.709083
20
-62.580726
30
0.0
11
69.664791
21
-64.413523
31
0.0
0
LINE
8
Layer 1
62
4
5
407
100
AcDbEntity
100
AcDbLine
10
69.664791
20
-64.413523
30
0.0
11
70.498400
21
-66.316699
31
0.0
0
LINE
8
Layer 1
62
4
5
408
100
AcDbEntity
100
AcDbLine
10
70.498400
20
-66.316699
30
0.0
11
71.895372
21
-70.269588
31
0.0
0
LINE
8
Layer 1
62
4
5
409
100
AcDbEntity
100
AcDbLine
10
71.895372
20
-70.269588
30
0.0
11
71.895375
21
-70.269594
31
0.0
0
LINE
8
Layer 1
62
4
5
40a
100
AcDbEntity
100
AcDbLine
10
71.895375
20
-70.269594
30
0.0
11
74.305355
21
-78.471536
31
0.0
0
LINE
8
Layer 1
62
4
5
40b
100
AcDbEntity
100
AcDbLine
10
74.305355
20
-78.471536
30
0.0
11
75.742935
21
-82.559804
31
0.0
0
LINE
8
Layer 1
62
4
5
40c
100
AcDbEntity
100
AcDbLine
10
75.742935
20
-82.559804
30
0.0
11
76.617108
21
-84.564175
31
0.0
0
LINE
8
Layer 1
62
4
5
40d
100
AcDbEntity
100
AcDbLine
10
76.617108
20
-84.564175
30
0.0
11
77.627110
21
-86.520796
31
0.0
0
LINE
8
Layer 1
62
4
5
40e
100
AcDbEntity
100
AcDbLine
10
77.627110
20
-86.520796
30
0.0
11
77.627110
21
-86.520799
31
0.0
0
LINE
8
Layer 1
62
4
5
40f
100
AcDbEntity
100
AcDbLine
10
77.627110
20
-86.520799
30
0.0
11
78.701715
21
-88.264509
31
0.0
0
LINE
8
Layer 1
62
4
5
410
100
AcDbEntity
100
AcDbLine
10
78.701715
20
-88.264509
30
0.0
11
79.902524
21
-89.924081
31
0.0
0
LINE
8
Layer 1
62
4
5
411
100
AcDbEntity
100
AcDbLine
10
79.902524
20
-89.924081
30
0.0
11
82.652772
21
-92.960969
31
0.0
0
LINE
8
Layer 1
62
4
5
412
100
AcDbEntity
100
AcDbLine
10
82.652772
20
-92.960969
30
0.0
11
85.817892
21
-95.571771
31
0.0
0
LINE
8
Layer 1
62
4
5
413
100
AcDbEntity
100
AcDbLine
10
85.817892
20
-95.571771
30
0.0
11
87.537291
21
-96.698738
31
0.0
0
LINE
8
Layer 1
62
4
5
414
100
AcDbEntity
100
AcDbLine
10
87.537291
20
-96.698738
30
0.0
11
89.337921
21
-97.696799
31
0.0
0
LINE
8
Layer 1
62
4
5
415
100
AcDbEntity
100
AcDbLine
10
89.337921
20
-97.696799
30
0.0
11
92.789486
21
-99.427402
31
0.0
0
LINE
8
Layer 1
62
4
5
416
100
AcDbEntity
100
AcDbLine
10
92.789486
20
-99.427402
30
0.0
11
96.012794
21
-100.766858
31
0.0
0
LINE
8
Layer 1
62
4
5
417
100
AcDbEntity
100
AcDbLine
10
96.012794
20
-100.766858
30
0.0
11
97.644463
21
-101.228401
31
0.0
0
LINE
8
Layer 1
62
4
5
418
100
AcDbEntity
100
AcDbLine
10
97.644463
20
-101.228401
30
0.0
11
99.345799
21
-101.518352
31
0.0
0
LINE
8
Layer 1
62
4
5
419
100
AcDbEntity
100
AcDbLine
10
99.345799
20
-101.518352
30
0.0
11
101.159048
21
-101.612108
31
0.0
0
LINE
8
Layer 1
62
4
5
41a
100
AcDbEntity
100
AcDbLine
10
101.159048
20
-101.612108
30
0.0
11
103.126453
21
-101.485068
31
0.0
0
LINE
8
Layer 1
62
4
5
41b
100
AcDbEntity
100
AcDbLine
10
103.126453
20
-101.485068
30
0.0
11
103.126822
21
-101.484289
31
0.0
0
LINE
8
Layer 1
62
4
5
41c
100
AcDbEntity
100
AcDbLine
10
53.043667
20
-89.619667
30
0.0
11
53.977053
21
-90.266006
31
0.0
0
LINE
8
Layer 1
62
4
5
41d
100
AcDbEntity
100
AcDbLine
10
53.977053
20
-90.266006
30
0.0
11
55.157233
21
-90.835445
31
0.0
0
LINE
8
Layer 1
62
4
5
41e
100
AcDbEntity
100
AcDbLine
10
55.157233
20
-90.835445
30
0.0
11
57.739245
21
-91.690585
31
0.0
0
LINE
8
Layer 1
62
4
5
41f
100
AcDbEntity
100
AcDbLine
10
57.739245
20
-91.690585
30
0.0
11
59.752243
21
-92.079022
31
0.0
0
LINE
8
Layer 1
62
4
5
420
100
AcDbEntity
100
AcDbLine
10
59.752243
20
-92.079022
30
0.0
11
60.221157
21
-92.065080
31
0.0
0
LINE
8
Layer 1
62
4
5
421
100
AcDbEntity
100
AcDbLine
10
60.221157
20
-92.065080
30
0.0
11
60.158771
21
-91.894688
31
0.0
0
LINE
8
Layer 1
62
4
5
422
100
AcDbEntity
100
AcDbLine
10
60.158771
20
-91.894688
30
0.0
11
56.364576
21
-92.303628
31
0.0
0
LINE
8
Layer 1
62
4
5
423
100
AcDbEntity
100
AcDbLine
10
56.364576
20
-92.303628
30
0.0
11
52.285900
21
-92.490149
31
0.0
0
LINE
8
Layer 1
62
4
5
424
100
AcDbEntity
100
AcDbLine
10
52.285900
20
-92.490149
30
0.0
11
55.491831
21
-94.512759
31
0.0
0
LINE
8
Layer 1
62
4
5
425
100
AcDbEntity
100
AcDbLine
10
55.491831
20
-94.512759
30
0.0
11
58.215755
21
-95.694320
31
0.0
0
LINE
8
Layer 1
62
4
5
426
100
AcDbEntity
100
AcDbLine
10
58.215755
20
-95.694320
30
0.0
11
60.555947
21
-96.189223
31
0.0
0
LINE
8
Layer 1
62
4
5
427
100
AcDbEntity
100
AcDbLine
10
60.555947
20
-96.189223
30
0.0
11
62.610682
21
-96.151859
31
0.0
0
LINE
8
Layer 1
62
4
5
428
100
AcDbEntity
100
AcDbLine
10
62.610682
20
-96.151859
30
0.0
11
64.478239
21
-95.736618
31
0.0
0
LINE
8
Layer 1
62
4
5
429
100
AcDbEntity
100
AcDbLine
10
64.478239
20
-95.736618
30
0.0
11
66.256892
21
-95.097891
31
0.0
0
LINE
8
Layer 1
62
4
5
42a
100
AcDbEntity
100
AcDbLine
10
66.256892
20
-95.097891
30
0.0
11
68.044918
21
-94.390070
31
0.0
0
LINE
8
Layer 1
62
4
5
42b
100
AcDbEntity
100
AcDbLine
10
68.044918
20
-94.390070
30
0.0
11
69.940593
21
-93.767543
31
0.0
0
LINE
8
Layer 1
62
4
5
42c
100
AcDbEntity
100
AcDbLine
10
69.940593
20
-93.767543
30
0.0
11
68.167895
21
-91.916457
31
0.0
0
LINE
8
Layer 1
62
4
5
42d
100
AcDbEntity
100
AcDbLine
10
68.167895
20
-91.916457
30
0.0
11
66.246190
21
-90.524479
31
0.0
0
LINE
8
Layer 1
62
4
5
42e
100
AcDbEntity
100
AcDbLine
10
66.246190
20
-90.524479
30
0.0
11
64.201493
21
-89.552428
31
0.0
0
LINE
8
Layer 1
62
4
5
42f
100
AcDbEntity
100
AcDbLine
10
64.201493
20
-89.552428
30
0.0
11
62.059820
21
-88.961122
31
0.0
0
LINE
8
Layer 1
62
4
5
430
100
AcDbEntity
100
AcDbLine
10
62.059820
20
-88.961122
30
0.0
11
59.847186
21
-88.711380
31
0.0
0
LINE
8
Layer 1
62
4
5
431
100
AcDbEntity
100
AcDbLine
10
59.847186
20
-88.711380
30
0.0
11
57.589605
21
-88.764021
31
0.0
0
LINE
8
Layer 1
62
4
5
432
100
AcDbEntity
100
AcDbLine
10
57.589605
20
-88.764021
30
0.0
11
55.313094
21
-89.079862
31
0.0
0
LINE
8
Layer 1
62
4
5
433
100
AcDbEntity
100
AcDbLine
10
55.313094
20
-89.079862
30
0.0
11
53.043667
21
-89.619723
31
0.0
0
LINE
8
Layer 1
62
4
5
434
100
AcDbEntity
100
AcDbLine
10
53.043667
20
-89.619723
30
0.0
11
53.043667
21
-89.619667
31
0.0
0
LINE
8
Layer 1
62
4
5
435
100
AcDbEntity
100
AcDbLine
10
117.195600
20
-61.769978
30
0.0
11
118.325618
21
-65.557964
31
0.0
0
LINE
8
Layer 1
62
4
5
436
100
AcDbEntity
100
AcDbLine
10
118.325618
20
-65.557964
30
0.0
11
118.101278
21
-63.989760
31
0.0
0
LINE
8
Layer 1
62
4
5
437
100
AcDbEntity
100
AcDbLine
10
118.101278
20
-63.989760
30
0.0
11
118.150625
21
-62.072718
31
0.0
0
LINE
8
Layer 1
62
4
5
438
100
AcDbEntity
100
AcDbLine
10
118.150625
20
-62.072718
30
0.0
11
118.433099
21
-59.931502
31
0.0
0
LINE
8
Layer 1
62
4
5
439
100
AcDbEntity
100
AcDbLine
10
118.433099
20
-59.931502
30
0.0
11
118.908142
21
-57.690773
31
0.0
0
LINE
8
Layer 1
62
4
5
43a
100
AcDbEntity
100
AcDbLine
10
118.908142
20
-57.690773
30
0.0
11
119.535195
21
-55.475192
31
0.0
0
LINE
8
Layer 1
62
4
5
43b
100
AcDbEntity
100
AcDbLine
10
119.535195
20
-55.475192
30
0.0
11
120.273699
21
-53.409422
31
0.0
0
LINE
8
Layer 1
62
4
5
43c
100
AcDbEntity
100
AcDbLine
10
120.273699
20
-53.409422
30
0.0
11
121.083094
21
-51.618124
31
0.0
0
LINE
8
Layer 1
62
4
5
43d
100
AcDbEntity
100
AcDbLine
10
121.083094
20
-51.618124
30
0.0
11
121.922822
21
-50.225960
31
0.0
0
LINE
8
Layer 1
62
4
5
43e
100
AcDbEntity
100
AcDbLine
10
121.922822
20
-50.225960
30
0.0
11
122.829580
21
-49.122215
31
0.0
0
LINE
8
Layer 1
62
4
5
43f
100
AcDbEntity
100
AcDbLine
10
122.829580
20
-49.122215
30
0.0
11
123.863684
21
-48.125733
31
0.0
0
LINE
8
Layer 1
62
4
5
440
100
AcDbEntity
100
AcDbLine
10
123.863684
20
-48.125733
30
0.0
11
125.008096
21
-47.246302
31
0.0
0
LINE
8
Layer 1
62
4
5
441
100
AcDbEntity
100
AcDbLine
10
125.008096
20
-47.246302
30
0.0
11
126.245779
21
-46.493712
31
0.0
0
LINE
8
Layer 1
62
4
5
442
100
AcDbEntity
100
AcDbLine
10
126.245779
20
-46.493712
30
0.0
11
127.559694
21
-45.877753
31
0.0
0
LINE
8
Layer 1
62
4
5
443
100
AcDbEntity
100
AcDbLine
10
127.559694
20
-45.877753
30
0.0
11
128.932806
21
-45.408215
31
0.0
0
LINE
8
Layer 1
62
4
5
444
100
AcDbEntity
100
AcDbLine
10
128.932806
20
-45.408215
30
0.0
11
130.348075
21
-45.094887
31
0.0
0
LINE
8
Layer 1
62
4
5
445
100
AcDbEntity
100
AcDbLine
10
130.348075
20
-45.094887
30
0.0
11
131.788464
21
-44.947558
31
0.0
0
LINE
8
Layer 1
62
4
5
446
100
AcDbEntity
100
AcDbLine
10
131.788464
20
-44.947558
30
0.0
11
133.979272
21
-45.027738
31
0.0
0
LINE
8
Layer 1
62
4
5
447
100
AcDbEntity
100
AcDbLine
10
133.979272
20
-45.027738
30
0.0
11
136.159628
21
-45.447217
31
0.0
0
LINE
8
Layer 1
62
4
5
448
100
AcDbEntity
100
AcDbLine
10
136.159628
20
-45.447217
30
0.0
11
138.298445
21
-46.155544
31
0.0
0
LINE
8
Layer 1
62
4
5
449
100
AcDbEntity
100
AcDbLine
10
138.298445
20
-46.155544
30
0.0
11
140.364633
21
-47.102268
31
0.0
0
LINE
8
Layer 1
62
4
5
44a
100
AcDbEntity
100
AcDbLine
10
140.364633
20
-47.102268
30
0.0
11
142.341441
21
-48.249886
31
0.0
0
LINE
8
Layer 1
62
4
5
44b
100
AcDbEntity
100
AcDbLine
10
142.341441
20
-48.249886
30
0.0
11
144.240500
21
-49.557379
31
0.0
0
LINE
8
Layer 1
62
4
5
44c
100
AcDbEntity
100
AcDbLine
10
144.240500
20
-49.557379
30
0.0
11
147.875978
21
-52.488761
31
0.0
0
LINE
8
Layer 1
62
4
5
44d
100
AcDbEntity
100
AcDbLine
10
147.875978
20
-52.488761
30
0.0
11
151.433766
21
-55.599584
31
0.0
0
LINE
8
Layer 1
62
4
5
44e
100
AcDbEntity
100
AcDbLine
10
151.433766
20
-55.599584
30
0.0
11
155.131064
21
-58.612701
31
0.0
0
LINE
8
Layer 1
62
4
5
44f
100
AcDbEntity
100
AcDbLine
10
155.131064
20
-58.612701
30
0.0
11
157.099941
21
-59.993467
31
0.0
0
LINE
8
Layer 1
62
4
5
450
100
AcDbEntity
100
AcDbLine
10
157.099941
20
-59.993467
30
0.0
11
159.171277
21
-61.227931
31
0.0
0
LINE
8
Layer 1
62
4
5
451
100
AcDbEntity
100
AcDbLine
10
159.171277
20
-61.227931
30
0.0
11
161.345805
21
-62.268218
31
0.0
0
LINE
8
Layer 1
62
4
5
452
100
AcDbEntity
100
AcDbLine
10
161.345805
20
-62.268218
30
0.0
11
163.624260
21
-63.066450
31
0.0
0
LINE
8
Layer 1
62
4
5
453
100
AcDbEntity
100
AcDbLine
10
163.624260
20
-63.066450
30
0.0
11
163.624263
21
-63.066450
31
0.0
0
LINE
8
Layer 1
62
4
5
454
100
AcDbEntity
100
AcDbLine
10
163.624263
20
-63.066450
30
0.0
11
165.521922
21
-63.492623
31
0.0
0
LINE
8
Layer 1
62
4
5
455
100
AcDbEntity
100
AcDbLine
10
165.521922
20
-63.492623
30
0.0
11
167.449569
21
-63.715880
31
0.0
0
LINE
8
Layer 1
62
4
5
456
100
AcDbEntity
100
AcDbLine
10
167.449569
20
-63.715880
30
0.0
11
169.387210
21
-63.739654
31
0.0
0
LINE
8
Layer 1
62
4
5
457
100
AcDbEntity
100
AcDbLine
10
169.387210
20
-63.739654
30
0.0
11
171.314854
21
-63.567377
31
0.0
0
LINE
8
Layer 1
62
4
5
458
100
AcDbEntity
100
AcDbLine
10
171.314854
20
-63.567377
30
0.0
11
173.212507
21
-63.202482
31
0.0
0
LINE
8
Layer 1
62
4
5
459
100
AcDbEntity
100
AcDbLine
10
173.212507
20
-63.202482
30
0.0
11
175.060176
21
-62.648402
31
0.0
0
LINE
8
Layer 1
62
4
5
45a
100
AcDbEntity
100
AcDbLine
10
175.060176
20
-62.648402
30
0.0
11
176.837870
21
-61.908569
31
0.0
0
LINE
8
Layer 1
62
4
5
45b
100
AcDbEntity
100
AcDbLine
10
176.837870
20
-61.908569
30
0.0
11
178.525596
21
-60.986416
31
0.0
0
LINE
8
Layer 1
62
4
5
45c
100
AcDbEntity
100
AcDbLine
10
178.525596
20
-60.986416
30
0.0
11
180.101357
21
-59.889085
31
0.0
0
LINE
8
Layer 1
62
4
5
45d
100
AcDbEntity
100
AcDbLine
10
180.101357
20
-59.889085
30
0.0
11
181.549797
21
-58.633970
31
0.0
0
LINE
8
Layer 1
62
4
5
45e
100
AcDbEntity
100
AcDbLine
10
181.549797
20
-58.633970
30
0.0
11
182.859933
21
-57.238133
31
0.0
0
LINE
8
Layer 1
62
4
5
45f
100
AcDbEntity
100
AcDbLine
10
182.859933
20
-57.238133
30
0.0
11
184.020780
21
-55.718636
31
0.0
0
LINE
8
Layer 1
62
4
5
460
100
AcDbEntity
100
AcDbLine
10
184.020780
20
-55.718636
30
0.0
11
185.021357
21
-54.092543
31
0.0
0
LINE
8
Layer 1
62
4
5
461
100
AcDbEntity
100
AcDbLine
10
185.021357
20
-54.092543
30
0.0
11
185.850678
21
-52.376915
31
0.0
0
LINE
8
Layer 1
62
4
5
462
100
AcDbEntity
100
AcDbLine
10
185.850678
20
-52.376915
30
0.0
11
186.497762
21
-50.588817
31
0.0
0
LINE
8
Layer 1
62
4
5
463
100
AcDbEntity
100
AcDbLine
10
186.497762
20
-50.588817
30
0.0
11
186.951623
21
-48.745309
31
0.0
0
LINE
8
Layer 1
62
4
5
464
100
AcDbEntity
100
AcDbLine
10
186.951623
20
-48.745309
30
0.0
11
186.443069
21
-50.571405
31
0.0
0
LINE
8
Layer 1
62
4
5
465
100
AcDbEntity
100
AcDbLine
10
186.443069
20
-50.571405
30
0.0
11
185.745511
21
-52.330846
31
0.0
0
LINE
8
Layer 1
62
4
5
466
100
AcDbEntity
100
AcDbLine
10
185.745511
20
-52.330846
30
0.0
11
184.871422
21
-54.007644
31
0.0
0
LINE
8
Layer 1
62
4
5
467
100
AcDbEntity
100
AcDbLine
10
184.871422
20
-54.007644
30
0.0
11
183.833279
21
-55.585812
31
0.0
0
LINE
8
Layer 1
62
4
5
468
100
AcDbEntity
100
AcDbLine
10
183.833279
20
-55.585812
30
0.0
11
182.643556
21
-57.049362
31
0.0
0
LINE
8
Layer 1
62
4
5
469
100
AcDbEntity
100
AcDbLine
10
182.643556
20
-57.049362
30
0.0
11
181.314728
21
-58.382307
31
0.0
0
LINE
8
Layer 1
62
4
5
46a
100
AcDbEntity
100
AcDbLine
10
181.314728
20
-58.382307
30
0.0
11
179.859270
21
-59.568661
31
0.0
0
LINE
8
Layer 1
62
4
5
46b
100
AcDbEntity
100
AcDbLine
10
179.859270
20
-59.568661
30
0.0
11
178.289658
21
-60.592434
31
0.0
0
LINE
8
Layer 1
62
4
5
46c
100
AcDbEntity
100
AcDbLine
10
178.289658
20
-60.592434
30
0.0
11
176.621589
21
-61.439700
31
0.0
0
LINE
8
Layer 1
62
4
5
46d
100
AcDbEntity
100
AcDbLine
10
176.621589
20
-61.439700
30
0.0
11
174.875285
21
-62.105036
31
0.0
0
LINE
8
Layer 1
62
4
5
46e
100
AcDbEntity
100
AcDbLine
10
174.875285
20
-62.105036
30
0.0
11
173.070965
21
-62.586830
31
0.0
0
LINE
8
Layer 1
62
4
5
46f
100
AcDbEntity
100
AcDbLine
10
173.070965
20
-62.586830
30
0.0
11
171.228846
21
-62.883471
31
0.0
0
LINE
8
Layer 1
62
4
5
470
100
AcDbEntity
100
AcDbLine
10
171.228846
20
-62.883471
30
0.0
11
169.369146
21
-62.993349
31
0.0
0
LINE
8
Layer 1
62
4
5
471
100
AcDbEntity
100
AcDbLine
10
169.369146
20
-62.993349
30
0.0
11
167.512081
21
-62.914851
31
0.0
0
LINE
8
Layer 1
62
4
5
472
100
AcDbEntity
100
AcDbLine
10
167.512081
20
-62.914851
30
0.0
11
165.677870
21
-62.646366
31
0.0
0
LINE
8
Layer 1
62
4
5
473
100
AcDbEntity
100
AcDbLine
10
165.677870
20
-62.646366
30
0.0
11
163.886729
21
-62.186284
31
0.0
0
LINE
8
Layer 1
62
4
5
474
100
AcDbEntity
100
AcDbLine
10
163.886729
20
-62.186284
30
0.0
11
163.886727
21
-62.186281
31
0.0
0
LINE
8
Layer 1
62
4
5
475
100
AcDbEntity
100
AcDbLine
10
163.886727
20
-62.186281
30
0.0
11
161.739174
21
-61.362534
31
0.0
0
LINE
8
Layer 1
62
4
5
476
100
AcDbEntity
100
AcDbLine
10
161.739174
20
-61.362534
30
0.0
11
159.689941
21
-60.301696
31
0.0
0
LINE
8
Layer 1
62
4
5
477
100
AcDbEntity
100
AcDbLine
10
159.689941
20
-60.301696
30
0.0
11
157.734053
21
-59.051369
31
0.0
0
LINE
8
Layer 1
62
4
5
478
100
AcDbEntity
100
AcDbLine
10
157.734053
20
-59.051369
30
0.0
11
155.866536
21
-57.659154
31
0.0
0
LINE
8
Layer 1
62
4
5
479
100
AcDbEntity
100
AcDbLine
10
155.866536
20
-57.659154
30
0.0
11
152.331282
21
-54.594489
31
0.0
0
LINE
8
Layer 1
62
4
5
47a
100
AcDbEntity
100
AcDbLine
10
152.331282
20
-54.594489
30
0.0
11
148.865731
21
-51.374630
31
0.0
0
LINE
8
Layer 1
62
4
5
47b
100
AcDbEntity
100
AcDbLine
10
148.865731
20
-51.374630
30
0.0
11
145.228409
21
-48.256561
31
0.0
0
LINE
8
Layer 1
62
4
5
47c
100
AcDbEntity
100
AcDbLine
10
145.228409
20
-48.256561
30
0.0
11
143.278826
21
-46.829403
31
0.0
0
LINE
8
Layer 1
62
4
5
47d
100
AcDbEntity
100
AcDbLine
10
143.278826
20
-46.829403
30
0.0
11
141.213558
21
-45.542225
31
0.0
0
LINE
8
Layer 1
62
4
5
47e
100
AcDbEntity
100
AcDbLine
10
141.213558
20
-45.542225
30
0.0
11
139.009010
21
-44.443047
31
0.0
0
LINE
8
Layer 1
62
4
5
47f
100
AcDbEntity
100
AcDbLine
10
139.009010
20
-44.443047
30
0.0
11
136.676377
21
-43.598674
31
0.0
0
LINE
8
Layer 1
62
4
5
480
100
AcDbEntity
100
AcDbLine
10
136.676377
20
-43.598674
30
0.0
11
134.242091
21
-43.062169
31
0.0
0
LINE
8
Layer 1
62
4
5
481
100
AcDbEntity
100
AcDbLine
10
134.242091
20
-43.062169
30
0.0
11
131.732584
21
-42.886599
31
0.0
0
LINE
8
Layer 1
62
4
5
482
100
AcDbEntity
100
AcDbLine
10
131.732584
20
-42.886599
30
0.0
11
130.045335
21
-43.009361
31
0.0
0
LINE
8
Layer 1
62
4
5
483
100
AcDbEntity
100
AcDbLine
10
130.045335
20
-43.009361
30
0.0
11
128.384485
21
-43.323073
31
0.0
0
LINE
8
Layer 1
62
4
5
484
100
AcDbEntity
100
AcDbLine
10
128.384485
20
-43.323073
30
0.0
11
126.767887
21
-43.819533
31
0.0
0
LINE
8
Layer 1
62
4
5
485
100
AcDbEntity
100
AcDbLine
10
126.767887
20
-43.819533
30
0.0
11
125.213392
21
-44.490538
31
0.0
0
LINE
8
Layer 1
62
4
5
486
100
AcDbEntity
100
AcDbLine
10
125.213392
20
-44.490538
30
0.0
11
123.738855
21
-45.327887
31
0.0
0
LINE
8
Layer 1
62
4
5
487
100
AcDbEntity
100
AcDbLine
10
123.738855
20
-45.327887
30
0.0
11
122.362128
21
-46.323378
31
0.0
0
LINE
8
Layer 1
62
4
5
488
100
AcDbEntity
100
AcDbLine
10
122.362128
20
-46.323378
30
0.0
11
121.101063
21
-47.468807
31
0.0
0
LINE
8
Layer 1
62
4
5
489
100
AcDbEntity
100
AcDbLine
10
121.101063
20
-47.468807
30
0.0
11
119.973513
21
-48.755975
31
0.0
0
LINE
8
Layer 1
62
4
5
48a
100
AcDbEntity
100
AcDbLine
10
119.973513
20
-48.755975
30
0.0
11
119.005084
21
-50.170062
31
0.0
0
LINE
8
Layer 1
62
4
5
48b
100
AcDbEntity
100
AcDbLine
10
119.005084
20
-50.170062
30
0.0
11
118.204710
21
-51.683078
31
0.0
0
LINE
8
Layer 1
62
4
5
48c
100
AcDbEntity
100
AcDbLine
10
118.204710
20
-51.683078
30
0.0
11
117.577115
21
-53.275944
31
0.0
0
LINE
8
Layer 1
62
4
5
48d
100
AcDbEntity
100
AcDbLine
10
117.577115
20
-53.275944
30
0.0
11
117.127020
21
-54.929586
31
0.0
0
LINE
8
Layer 1
62
4
5
48e
100
AcDbEntity
100
AcDbLine
10
117.127020
20
-54.929586
30
0.0
11
116.859149
21
-56.624925
31
0.0
0
LINE
8
Layer 1
62
4
5
48f
100
AcDbEntity
100
AcDbLine
10
116.859149
20
-56.624925
30
0.0
11
116.778225
21
-58.342887
31
0.0
0
LINE
8
Layer 1
62
4
5
490
100
AcDbEntity
100
AcDbLine
10
116.778225
20
-58.342887
30
0.0
11
116.888970
21
-60.064394
31
0.0
0
LINE
8
Layer 1
62
4
5
491
100
AcDbEntity
100
AcDbLine
10
116.888970
20
-60.064394
30
0.0
11
117.196108
21
-61.770370
31
0.0
0
LINE
8
Layer 1
62
4
5
492
100
AcDbEntity
100
AcDbLine
10
117.196108
20
-61.770370
30
0.0
11
117.195600
21
-61.769978
31
0.0
0
LINE
8
Layer 1
62
4
5
493
100
AcDbEntity
100
AcDbLine
10
184.248778
20
-52.101044
30
0.0
11
185.054650
21
-51.301336
31
0.0
0
LINE
8
Layer 1
62
4
5
494
100
AcDbEntity
100
AcDbLine
10
185.054650
20
-51.301336
30
0.0
11
185.829963
21
-50.244949
31
0.0
0
LINE
8
Layer 1
62
4
5
495
100
AcDbEntity
100
AcDbLine
10
185.829963
20
-50.244949
30
0.0
11
187.142081
21
-47.862451
31
0.0
0
LINE
8
Layer 1
62
4
5
496
100
AcDbEntity
100
AcDbLine
10
187.142081
20
-47.862451
30
0.0
11
187.891467
21
-45.954177
31
0.0
0
LINE
8
Layer 1
62
4
5
497
100
AcDbEntity
100
AcDbLine
10
187.891467
20
-45.954177
30
0.0
11
187.963366
21
-45.490569
31
0.0
0
LINE
8
Layer 1
62
4
5
498
100
AcDbEntity
100
AcDbLine
10
187.963366
20
-45.490569
30
0.0
11
187.784458
21
-45.520751
31
0.0
0
LINE
8
Layer 1
62
4
5
499
100
AcDbEntity
100
AcDbLine
10
187.784458
20
-45.520751
30
0.0
11
187.493891
21
-49.325798
31
0.0
0
LINE
8
Layer 1
62
4
5
49a
100
AcDbEntity
100
AcDbLine
10
187.493891
20
-49.325798
30
0.0
11
186.932655
21
-53.370198
31
0.0
0
LINE
8
Layer 1
62
4
5
49b
100
AcDbEntity
100
AcDbLine
10
186.932655
20
-53.370198
30
0.0
11
189.506526
21
-50.587414
31
0.0
0
LINE
8
Layer 1
62
4
5
49c
100
AcDbEntity
100
AcDbLine
10
189.506526
20
-50.587414
30
0.0
11
191.165499
21
-48.124974
31
0.0
0
LINE
8
Layer 1
62
4
5
49d
100
AcDbEntity
100
AcDbLine
10
191.165499
20
-48.124974
30
0.0
11
192.079305
21
-45.914444
31
0.0
0
LINE
8
Layer 1
62
4
5
49e
100
AcDbEntity
100
AcDbLine
10
192.079305
20
-45.914444
30
0.0
11
192.417679
21
-43.887390
31
0.0
0
LINE
8
Layer 1
62
4
5
49f
100
AcDbEntity
100
AcDbLine
10
192.417679
20
-43.887390
30
0.0
11
192.350354
21
-41.975376
31
0.0
0
LINE
8
Layer 1
62
4
5
4a0
100
AcDbEntity
100
AcDbLine
10
192.350354
20
-41.975376
30
0.0
11
192.047064
21
-40.109969
31
0.0
0
LINE
8
Layer 1
62
4
5
4a1
100
AcDbEntity
100
AcDbLine
10
192.047064
20
-40.109969
30
0.0
11
191.677542
21
-38.222734
31
0.0
0
LINE
8
Layer 1
62
4
5
4a2
100
AcDbEntity
100
AcDbLine
10
191.677542
20
-38.222734
30
0.0
11
191.411521
21
-36.245236
31
0.0
0
LINE
8
Layer 1
62
4
5
4a3
100
AcDbEntity
100
AcDbLine
10
191.411521
20
-36.245236
30
0.0
11
189.267913
21
-37.650288
31
0.0
0
LINE
8
Layer 1
62
4
5
4a4
100
AcDbEntity
100
AcDbLine
10
189.267913
20
-37.650288
30
0.0
11
187.548499
21
-39.285633
31
0.0
0
LINE
8
Layer 1
62
4
5
4a5
100
AcDbEntity
100
AcDbLine
10
187.548499
20
-39.285633
30
0.0
11
186.219503
21
-41.118543
31
0.0
0
LINE
8
Layer 1
62
4
5
4a6
100
AcDbEntity
100
AcDbLine
10
186.219503
20
-41.118543
30
0.0
11
185.247153
21
-43.116288
31
0.0
0
LINE
8
Layer 1
62
4
5
4a7
100
AcDbEntity
100
AcDbLine
10
185.247153
20
-43.116288
30
0.0
11
184.597674
21
-45.246140
31
0.0
0
LINE
8
Layer 1
62
4
5
4a8
100
AcDbEntity
100
AcDbLine
10
184.597674
20
-45.246140
30
0.0
11
184.237291
21
-47.475369
31
0.0
0
LINE
8
Layer 1
62
4
5
4a9
100
AcDbEntity
100
AcDbLine
10
184.237291
20
-47.475369
30
0.0
11
184.132232
21
-49.771247
31
0.0
0
LINE
8
Layer 1
62
4
5
4aa
100
AcDbEntity
100
AcDbLine
10
184.132232
20
-49.771247
30
0.0
11
184.248721
21
-52.101044
31
0.0
0
LINE
8
Layer 1
62
4
5
4ab
100
AcDbEntity
100
AcDbLine
10
184.248721
20
-52.101044
30
0.0
11
184.248778
21
-52.101044
31
0.0
0
LINE
8
Layer 1
62
4
5
4ac
100
AcDbEntity
100
AcDbLine
10
77.052311
20
-11.791244
30
0.0
11
76.934138
21
-9.473900
31
0.0
0
LINE
8
Layer 1
62
4
5
4ad
100
AcDbEntity
100
AcDbLine
10
76.934138
20
-9.473900
30
0.0
11
76.691075
21
-8.823671
31
0.0
0
LINE
8
Layer 1
62
4
5
4ae
100
AcDbEntity
100
AcDbLine
10
76.691075
20
-8.823671
30
0.0
11
76.146527
21
-8.263043
31
0.0
0
LINE
8
Layer 1
62
4
5
4af
100
AcDbEntity
100
AcDbLine
10
76.146527
20
-8.263043
30
0.0
11
73.616472
21
-6.662508
31
0.0
0
LINE
8
Layer 1
62
4
5
4b0
100
AcDbEntity
100
AcDbLine
10
73.616472
20
-6.662508
30
0.0
11
68.270967
21
-3.176129
31
0.0
0
LINE
8
Layer 1
62
4
5
4b1
100
AcDbEntity
100
AcDbLine
10
68.270967
20
-3.176129
30
0.0
11
73.163112
21
-7.202678
31
0.0
0
LINE
8
Layer 1
62
4
5
4b2
100
AcDbEntity
100
AcDbLine
10
73.163112
20
-7.202678
30
0.0
11
78.117700
21
-11.820031
31
0.0
0
LINE
8
Layer 1
62
4
5
4b3
100
AcDbEntity
100
AcDbLine
10
78.117700
20
-11.820031
30
0.0
11
77.536735
21
-8.557771
31
0.0
0
LINE
8
Layer 1
62
4
5
4b4
100
AcDbEntity
100
AcDbLine
10
77.536735
20
-8.557771
30
0.0
11
76.833530
21
-5.714780
31
0.0
0
LINE
8
Layer 1
62
4
5
4b5
100
AcDbEntity
100
AcDbLine
10
76.833530
20
-5.714780
30
0.0
11
76.017063
21
-3.254483
31
0.0
0
LINE
8
Layer 1
62
4
5
4b6
100
AcDbEntity
100
AcDbLine
10
76.017063
20
-3.254483
30
0.0
11
75.096308
21
-1.140306
31
0.0
0
LINE
8
Layer 1
62
4
5
4b7
100
AcDbEntity
100
AcDbLine
10
75.096308
20
-1.140306
30
0.0
11
74.080243
21
0.664328
31
0.0
0
LINE
8
Layer 1
62
4
5
4b8
100
AcDbEntity
100
AcDbLine
10
74.080243
20
0.664328
30
0.0
11
72.977844
21
2.195992
31
0.0
0
LINE
8
Layer 1
62
4
5
4b9
100
AcDbEntity
100
AcDbLine
10
72.977844
20
2.195992
30
0.0
11
71.798087
21
3.491261
31
0.0
0
LINE
8
Layer 1
62
4
5
4ba
100
AcDbEntity
100
AcDbLine
10
71.798087
20
3.491261
30
0.0
11
70.549950
21
4.586711
31
0.0
0
LINE
8
Layer 1
62
4
5
4bb
100
AcDbEntity
100
AcDbLine
10
70.549950
20
4.586711
30
0.0
11
67.884438
21
6.324452
31
0.0
0
LINE
8
Layer 1
62
4
5
4bc
100
AcDbEntity
100
AcDbLine
10
67.884438
20
6.324452
30
0.0
11
65.053119
21
7.701814
31
0.0
0
LINE
8
Layer 1
62
4
5
4bd
100
AcDbEntity
100
AcDbLine
10
65.053119
20
7.701814
30
0.0
11
62.127805
21
9.011396
31
0.0
0
LINE
8
Layer 1
62
4
5
4be
100
AcDbEntity
100
AcDbLine
10
62.127805
20
9.011396
30
0.0
11
59.180307
21
10.545798
31
0.0
0
LINE
8
Layer 1
62
4
5
4bf
100
AcDbEntity
100
AcDbLine
10
59.180307
20
10.545798
30
0.0
11
59.035786
21
8.422430
31
0.0
0
LINE
8
Layer 1
62
4
5
4c0
100
AcDbEntity
100
AcDbLine
10
59.035786
20
8.422430
30
0.0
11
59.149237
21
6.437068
31
0.0
0
LINE
8
Layer 1
62
4
5
4c1
100
AcDbEntity
100
AcDbLine
10
59.149237
20
6.437068
30
0.0
11
59.501422
21
4.580918
31
0.0
0
LINE
8
Layer 1
62
4
5
4c2
100
AcDbEntity
100
AcDbLine
10
59.501422
20
4.580918
30
0.0
11
60.073105
21
2.845188
31
0.0
0
LINE
8
Layer 1
62
4
5
4c3
100
AcDbEntity
100
AcDbLine
10
60.073105
20
2.845188
30
0.0
11
60.845050
21
1.221086
31
0.0
0
LINE
8
Layer 1
62
4
5
4c4
100
AcDbEntity
100
AcDbLine
10
60.845050
20
1.221086
30
0.0
11
61.798020
21
-0.300181
31
0.0
0
LINE
8
Layer 1
62
4
5
4c5
100
AcDbEntity
100
AcDbLine
10
61.798020
20
-0.300181
30
0.0
11
62.912778
21
-1.727405
31
0.0
0
LINE
8
Layer 1
62
4
5
4c6
100
AcDbEntity
100
AcDbLine
10
62.912778
20
-1.727405
30
0.0
11
64.170087
21
-3.069378
31
0.0
0
LINE
8
Layer 1
62
4
5
4c7
100
AcDbEntity
100
AcDbLine
10
64.170087
20
-3.069378
30
0.0
11
67.035415
21
-5.532744
31
0.0
0
LINE
8
Layer 1
62
4
5
4c8
100
AcDbEntity
100
AcDbLine
10
67.035415
20
-5.532744
30
0.0
11
70.240110
21
-7.760617
31
0.0
0
LINE
8
Layer 1
62
4
5
4c9
100
AcDbEntity
100
AcDbLine
10
70.240110
20
-7.760617
30
0.0
11
77.052029
21
-11.791244
31
0.0
0
LINE
8
Layer 1
62
4
5
4ca
100
AcDbEntity
100
AcDbLine
10
77.052029
20
-11.791244
30
0.0
11
77.052311
21
-11.791244
31
0.0
0
LINE
8
Layer 1
62
4
5
4cb
100
AcDbEntity
100
AcDbLine
10
83.755089
20
-8.861778
30
0.0
11
84.858702
21
-7.641571
31
0.0
0
LINE
8
Layer 1
62
4
5
4cc
100
AcDbEntity
100
AcDbLine
10
84.858702
20
-7.641571
30
0.0
11
85.523683
21
-6.167673
31
0.0
0
LINE
8
Layer 1
62
4
5
4cd
100
AcDbEntity
100
AcDbLine
10
85.523683
20
-6.167673
30
0.0
11
85.818258
21
-4.590096
31
0.0
0
LINE
8
Layer 1
62
4
5
4ce
100
AcDbEntity
100
AcDbLine
10
85.818258
20
-4.590096
30
0.0
11
85.810651
21
-3.058848
31
0.0
0
LINE
8
Layer 1
62
4
5
4cf
100
AcDbEntity
100
AcDbLine
10
85.810651
20
-3.058848
30
0.0
11
85.569087
21
-1.723941
31
0.0
0
LINE
8
Layer 1
62
4
5
4d0
100
AcDbEntity
100
AcDbLine
10
85.569087
20
-1.723941
30
0.0
11
85.161792
21
-0.735385
31
0.0
0
LINE
8
Layer 1
62
4
5
4d1
100
AcDbEntity
100
AcDbLine
10
85.161792
20
-0.735385
30
0.0
11
84.656991
21
-0.243191
31
0.0
0
LINE
8
Layer 1
62
4
5
4d2
100
AcDbEntity
100
AcDbLine
10
84.656991
20
-0.243191
30
0.0
11
84.389346
21
-0.230108
31
0.0
0
LINE
8
Layer 1
62
4
5
4d3
100
AcDbEntity
100
AcDbLine
10
84.389346
20
-0.230108
30
0.0
11
84.122909
21
-0.397369
31
0.0
0
LINE
8
Layer 1
62
4
5
4d4
100
AcDbEntity
100
AcDbLine
10
84.122909
20
-0.397369
30
0.0
11
84.138141
21
-1.943226
31
0.0
0
LINE
8
Layer 1
62
4
5
4d5
100
AcDbEntity
100
AcDbLine
10
84.138141
20
-1.943226
30
0.0
11
84.290654
21
-3.267326
31
0.0
0
LINE
8
Layer 1
62
4
5
4d6
100
AcDbEntity
100
AcDbLine
10
84.290654
20
-3.267326
30
0.0
11
84.786982
21
-5.578934
31
0.0
0
LINE
8
Layer 1
62
4
5
4d7
100
AcDbEntity
100
AcDbLine
10
84.786982
20
-5.578934
30
0.0
11
85.170814
21
-7.989548
31
0.0
0
LINE
8
Layer 1
62
4
5
4d8
100
AcDbEntity
100
AcDbLine
10
85.170814
20
-7.989548
30
0.0
11
85.182707
21
-9.437407
31
0.0
0
LINE
8
Layer 1
62
4
5
4d9
100
AcDbEntity
100
AcDbLine
10
85.182707
20
-9.437407
30
0.0
11
85.001072
21
-11.156527
31
0.0
0
LINE
8
Layer 1
62
4
5
4da
100
AcDbEntity
100
AcDbLine
10
85.001072
20
-11.156527
30
0.0
11
87.383200
21
-8.779064
31
0.0
0
LINE
8
Layer 1
62
4
5
4db
100
AcDbEntity
100
AcDbLine
10
87.383200
20
-8.779064
30
0.0
11
89.415171
21
-6.545001
31
0.0
0
LINE
8
Layer 1
62
4
5
4dc
100
AcDbEntity
100
AcDbLine
10
89.415171
20
-6.545001
30
0.0
11
91.122833
21
-4.440746
31
0.0
0
LINE
8
Layer 1
62
4
5
4dd
100
AcDbEntity
100
AcDbLine
10
91.122833
20
-4.440746
30
0.0
11
92.532035
21
-2.452710
31
0.0
0
LINE
8
Layer 1
62
4
5
4de
100
AcDbEntity
100
AcDbLine
10
92.532035
20
-2.452710
30
0.0
11
93.668625
21
-0.567300
31
0.0
0
LINE
8
Layer 1
62
4
5
4df
100
AcDbEntity
100
AcDbLine
10
93.668625
20
-0.567300
30
0.0
11
94.558452
21
1.229074
31
0.0
0
LINE
8
Layer 1
62
4
5
4e0
100
AcDbEntity
100
AcDbLine
10
94.558452
20
1.229074
30
0.0
11
95.227364
21
2.950003
31
0.0
0
LINE
8
Layer 1
62
4
5
4e1
100
AcDbEntity
100
AcDbLine
10
95.227364
20
2.950003
30
0.0
11
95.701210
21
4.609077
31
0.0
0
LINE
8
Layer 1
62
4
5
4e2
100
AcDbEntity
100
AcDbLine
10
95.701210
20
4.609077
30
0.0
11
96.167098
21
7.796027
31
0.0
0
LINE
8
Layer 1
62
4
5
4e3
100
AcDbEntity
100
AcDbLine
10
96.167098
20
7.796027
30
0.0
11
96.162903
21
10.898651
31
0.0
0
LINE
8
Layer 1
62
4
5
4e4
100
AcDbEntity
100
AcDbLine
10
96.162903
20
10.898651
30
0.0
11
95.571423
21
17.285829
31
0.0
0
LINE
8
Layer 1
62
4
5
4e5
100
AcDbEntity
100
AcDbLine
10
95.571423
20
17.285829
30
0.0
11
93.694702
21
16.170366
31
0.0
0
LINE
8
Layer 1
62
4
5
4e6
100
AcDbEntity
100
AcDbLine
10
93.694702
20
16.170366
30
0.0
11
92.002843
21
14.954522
31
0.0
0
LINE
8
Layer 1
62
4
5
4e7
100
AcDbEntity
100
AcDbLine
10
92.002843
20
14.954522
30
0.0
11
90.488753
21
13.644988
31
0.0
0
LINE
8
Layer 1
62
4
5
4e8
100
AcDbEntity
100
AcDbLine
10
90.488753
20
13.644988
30
0.0
11
89.145338
21
12.248453
31
0.0
0
LINE
8
Layer 1
62
4
5
4e9
100
AcDbEntity
100
AcDbLine
10
89.145338
20
12.248453
30
0.0
11
87.965504
21
10.771607
31
0.0
0
LINE
8
Layer 1
62
4
5
4ea
100
AcDbEntity
100
AcDbLine
10
87.965504
20
10.771607
30
0.0
11
86.942160
21
9.221140
31
0.0
0
LINE
8
Layer 1
62
4
5
4eb
100
AcDbEntity
100
AcDbLine
10
86.942160
20
9.221140
30
0.0
11
86.068211
21
7.603742
31
0.0
0
LINE
8
Layer 1
62
4
5
4ec
100
AcDbEntity
100
AcDbLine
10
86.068211
20
7.603742
30
0.0
11
85.336563
21
5.926102
31
0.0
0
LINE
8
Layer 1
62
4
5
4ed
100
AcDbEntity
100
AcDbLine
10
85.336563
20
5.926102
30
0.0
11
84.271802
21
2.416857
31
0.0
0
LINE
8
Layer 1
62
4
5
4ee
100
AcDbEntity
100
AcDbLine
10
84.271802
20
2.416857
30
0.0
11
83.691129
21
-1.253075
31
0.0
0
LINE
8
Layer 1
62
4
5
4ef
100
AcDbEntity
100
AcDbLine
10
83.691129
20
-1.253075
30
0.0
11
83.537797
21
-5.030178
31
0.0
0
LINE
8
Layer 1
62
4
5
4f0
100
AcDbEntity
100
AcDbLine
10
83.537797
20
-5.030178
30
0.0
11
83.755061
21
-8.860931
31
0.0
0
LINE
8
Layer 1
62
4
5
4f1
100
AcDbEntity
100
AcDbLine
10
83.755061
20
-8.860931
30
0.0
11
83.755089
21
-8.861778
31
0.0
  0
ENDSEC
  0
SECTION
  2
OBJECTS
  0
DICTIONARY
  5
C
330
0
100
AcDbDictionary
  3
ACAD_GROUP
350
D
  3
ACAD_MLINESTYLE
350
17
  0
DICTIONARY
  5
D
330
C
100
AcDbDictionary
  0
DICTIONARY
  5
1A
330
C
100
AcDbDictionary
  0
DICTIONARY
  5
17
330
C
100
AcDbDictionary
  3
STANDARD
350
18
  0
DICTIONARY
  5
19
330
C
100
AcDbDictionary
  0
ENDSEC
  0
EOF
